<?xml version="1.0" encoding="UTF-8"?>
<svg xmlns="http://www.w3.org/2000/svg" xmlns:xlink="http://www.w3.org/1999/xlink" version="1.1" viewBox="0 0 666.06 711">
  <defs>
    <style>
      .cls-1 {
        fill: #d3f2e4;
        opacity: .19;
      }

      .cls-2 {
        fill: none;
      }

      .cls-3 {
        mask: url(#mask);
      }

      .cls-4 {
        fill: #55cb98;
        opacity: .75;
      }

      .cls-5 {
        fill: #3cc488;
        opacity: .86;
      }

      .cls-6 {
        fill: #71d4a9;
        opacity: .63;
      }

      .cls-7 {
        fill: #94debe;
        opacity: .47;
      }

      .cls-8 {
        fill: #53cb96;
        opacity: .76;
      }

      .cls-9 {
        fill: #73d4aa;
        opacity: .62;
      }

      .cls-10 {
        filter: url(#luminosity-noclip);
      }

      .cls-11 {
        fill: #61cf9f;
        opacity: .7;
      }

      .cls-12 {
        fill: #c4eddb;
        opacity: .26;
      }

      .cls-13 {
        fill: #84dab4;
        opacity: .54;
      }

      .cls-14 {
        fill: #fbfefd;
        opacity: .02;
      }

      .cls-15 {
        fill: #6ed3a7;
        opacity: .64;
      }

      .cls-16 {
        fill: #d8f3e7;
        opacity: .17;
      }

      .cls-17 {
        fill: #33c183;
        opacity: .9;
      }

      .cls-18 {
        fill: #aee6ce;
        opacity: .36;
      }

      .cls-19 {
        fill: #74d5aa;
        opacity: .61;
      }

      .cls-20 {
        fill: #5dce9d;
        opacity: .71;
      }

      .cls-21 {
        fill: #30c081;
        opacity: .91;
      }

      .cls-22 {
        fill: #66d0a2;
        opacity: .67;
      }

      .cls-23 {
        fill: #c5eddc;
        opacity: .26;
      }

      .cls-24 {
        fill: #cdf0e1;
        opacity: .22;
      }

      .cls-25 {
        fill: #8bdcb8;
        opacity: .51;
      }

      .cls-26 {
        fill: #8fddbb;
        opacity: .49;
      }

      .cls-27 {
        fill: #fdfefe;
        opacity: 0;
      }

      .cls-28 {
        fill: #65d0a1;
        opacity: .68;
      }

      .cls-29 {
        fill: #4fca94;
        opacity: .78;
      }

      .cls-30 {
        fill: #88dbb7;
        opacity: .52;
      }

      .cls-31 {
        fill: #c0ecd9;
        opacity: .28;
      }

      .cls-32 {
        fill: #91debc;
        opacity: .48;
      }

      .cls-33 {
        fill: #b1e7d0;
        opacity: .34;
      }

      .cls-34 {
        fill: #67d1a3;
        opacity: .67;
      }

      .cls-35 {
        fill: #c9efde;
        opacity: .24;
      }

      .cls-36 {
        fill: #9de1c3;
        opacity: .43;
      }

      .cls-37 {
        fill: #f4fcf8;
        opacity: .05;
      }

      .cls-38 {
        fill: #b5e9d2;
        opacity: .33;
      }

      .cls-39 {
        fill: #f2fbf7;
        opacity: .06;
      }

      .cls-40 {
        fill: #79d6ae;
        opacity: .59;
      }

      .cls-41 {
        fill: #e8f8f1;
        opacity: .1;
      }

      .cls-42 {
        fill: #afe7ce;
        opacity: .35;
      }

      .cls-43 {
        fill: #2dbf7f;
        opacity: .93;
      }

      .cls-44 {
        fill: #d2f1e4;
        opacity: .2;
      }

      .cls-45 {
        fill: #6cd2a6;
        opacity: .65;
      }

      .cls-46 {
        fill: url(#linear-gradient-5);
      }

      .cls-47 {
        fill: url(#linear-gradient-2);
      }

      .cls-48 {
        fill: #e0f6ec;
        opacity: .14;
      }

      .cls-49 {
        fill: #8cdcb9;
        opacity: .51;
      }

      .cls-50 {
        fill: #27bd7c;
        opacity: .95;
      }

      .cls-51 {
        fill: #f9fdfb;
        opacity: .03;
      }

      .cls-52 {
        fill: #59cd9a;
        opacity: .73;
      }

      .cls-53 {
        fill: #5acd9b;
        opacity: .73;
      }

      .cls-54 {
        fill: #d5f2e5;
        opacity: .19;
      }

      .cls-55 {
        fill: #ddf5ea;
        opacity: .15;
      }

      .cls-56 {
        fill: #69d1a4;
        opacity: .66;
      }

      .cls-57 {
        fill: #99e0c1;
        opacity: .45;
      }

      .cls-58 {
        fill: #6ad2a4;
        opacity: .66;
      }

      .cls-59 {
        fill: #caefdf;
        opacity: .23;
      }

      .cls-60 {
        fill: url(#linear-gradient-3);
        mix-blend-mode: multiply;
      }

      .cls-61 {
        fill: #56cc98;
        opacity: .74;
      }

      .cls-62 {
        fill: #41c58b;
        opacity: .84;
      }

      .cls-63 {
        fill: #37c285;
        opacity: .88;
      }

      .cls-64 {
        fill: #a9e5cb;
        opacity: .38;
      }

      .cls-65 {
        fill: #3ac387;
        opacity: .87;
      }

      .cls-66 {
        fill: #2ebf80;
        opacity: .92;
      }

      .cls-67 {
        fill: #d0f1e2;
        opacity: .21;
      }

      .cls-68 {
        fill: #c8eede;
        opacity: .24;
      }

      .cls-69 {
        fill: #f6fcfa;
        opacity: .04;
      }

      .cls-70 {
        fill: #38c386;
        opacity: .88;
      }

      .cls-71 {
        fill: #f0faf6;
        opacity: .07;
      }

      .cls-72 {
        fill: #45c68e;
        opacity: .82;
      }

      .cls-73 {
        fill: url(#linear-gradient);
      }

      .cls-74 {
        fill: #4cc992;
        opacity: .79;
      }

      .cls-75 {
        fill: #eaf9f2;
        opacity: .09;
      }

      .cls-76 {
        fill: #2cbf7f;
        opacity: .93;
      }

      .cls-77 {
        fill: #fcfefd;
        opacity: .01;
      }

      .cls-78 {
        fill: #85dab5;
        opacity: .54;
      }

      .cls-79 {
        fill: #75d5ab;
        opacity: .61;
      }

      .cls-80 {
        fill: #86dab5;
        opacity: .53;
      }

      .cls-81 {
        fill: #44c68d;
        opacity: .82;
      }

      .cls-82 {
        fill: #7dd7b0;
        opacity: .57;
      }

      .cls-83 {
        fill: #d7f3e7;
        opacity: .18;
      }

      .cls-84 {
        fill: #6bd2a5;
        opacity: .65;
      }

      .cls-85 {
        fill: #ade6cd;
        opacity: .36;
      }

      .cls-86 {
        fill: #b0e7cf;
        opacity: .35;
      }

      .cls-87 {
        fill: #92debd;
        opacity: .48;
      }

      .cls-88 {
        fill: #42c68c;
        opacity: .83;
      }

      .cls-89 {
        fill: #6fd3a7;
        opacity: .63;
      }

      .cls-90 {
        fill: #5ece9d;
        opacity: .71;
      }

      .cls-91 {
        fill: #fefffe;
        opacity: 0;
      }

      .cls-92 {
        fill: #dbf4e9;
        opacity: .16;
      }

      .cls-93 {
        fill: #2abe7e;
        opacity: .94;
      }

      .cls-94 {
        fill: #34c184;
        opacity: .89;
      }

      .cls-95 {
        fill: #a0e2c5;
        opacity: .42;
      }

      .cls-96 {
        mask: url(#mask-1);
      }

      .cls-97 {
        fill: #ace6cd;
        opacity: .37;
      }

      .cls-98 {
        fill: #31c082;
        opacity: .91;
      }

      .cls-99 {
        fill: #9ae0c2;
        opacity: .44;
      }

      .cls-100 {
        fill: #b7e9d3;
        opacity: .32;
      }

      .cls-101 {
        fill: #fafdfc;
        opacity: .02;
      }

      .cls-102 {
        fill: #f7fdfa;
        opacity: .04;
      }

      .cls-103 {
        fill: #daf4e9;
        opacity: .16;
      }

      .cls-104 {
        fill: #abe5cc;
        opacity: .37;
      }

      .cls-105 {
        fill: #78d6ad;
        opacity: .59;
      }

      .cls-106 {
        fill: #e6f7f0;
        opacity: .11;
      }

      .cls-107 {
        fill: #e2f6ed;
        opacity: .13;
      }

      .cls-108 {
        fill: #cbefdf;
        opacity: .23;
      }

      .cls-109 {
        fill: #e1f6ed;
        opacity: .13;
      }

      .cls-110 {
        fill: #35c284;
        opacity: .89;
      }

      .cls-111 {
        fill: #bdebd7;
        opacity: .29;
      }

      .cls-112 {
        fill: #a4e3c8;
        opacity: .4;
      }

      .cls-113 {
        fill: #b4e8d1;
        opacity: .33;
      }

      .cls-114 {
        fill: #68d1a3;
        opacity: .67;
      }

      .cls-115 {
        fill: #b9ead4;
        opacity: .31;
      }

      .cls-116 {
        fill: #b8e9d4;
        opacity: .31;
      }

      .cls-117 {
        fill: #a7e4ca;
        opacity: .39;
      }

      .cls-118 {
        fill: #64d0a1;
        opacity: .68;
      }

      .cls-119 {
        fill: #b6e9d3;
        opacity: .32;
      }

      .cls-120 {
        fill: #81d9b2;
        opacity: .56;
      }

      .cls-121 {
        fill: #e4f7ef;
        opacity: .12;
      }

      .cls-122 {
        fill: #f1fbf6;
        opacity: .06;
      }

      .cls-123 {
        fill: url(#linear-gradient-4);
      }

      .cls-123, .cls-124 {
        opacity: .8;
      }

      .cls-125 {
        fill: #23bc79;
        opacity: .97;
      }

      .cls-126 {
        fill: #24bc7a;
        opacity: .96;
      }

      .cls-127 {
        fill: #ecf9f3;
        opacity: .08;
      }

      .cls-128 {
        fill: #43c68d;
        opacity: .83;
      }

      .cls-129 {
        fill: #62cfa0;
        opacity: .69;
      }

      .cls-130 {
        fill: #39c387;
        opacity: .87;
      }

      .cls-131 {
        fill: #9be1c2;
        opacity: .44;
      }

      .cls-132 {
        fill: #20bb77;
        opacity: .98;
      }

      .cls-133 {
        fill: #1ebb76;
        opacity: .99;
      }

      .cls-134 {
        fill: #effaf5;
        opacity: .07;
      }

      .cls-135 {
        fill: #25bd7a;
        opacity: .96;
      }

      .cls-136 {
        fill: #d9f3e8;
        opacity: .17;
      }

      .cls-137 {
        fill: #58cc99;
        opacity: .74;
      }

      .cls-138, .cls-139 {
        fill: #fff;
      }

      .cls-140 {
        fill: #d4f2e5;
        opacity: .19;
      }

      .cls-141 {
        fill: #9ee2c4;
        opacity: .43;
      }

      .cls-142 {
        fill: #edfaf4;
        opacity: .08;
      }

      .cls-143 {
        fill: #70d4a8;
        opacity: .63;
      }

      .cls-144 {
        fill: #63d0a0;
        opacity: .69;
      }

      .cls-145 {
        fill: #96dfbf;
        opacity: .46;
      }

      .cls-146 {
        fill: #48c790;
        opacity: .81;
      }

      .cls-147 {
        fill: #8adbb8;
        opacity: .52;
      }

      .cls-139 {
        opacity: 0;
      }

      .cls-148 {
        fill: #bbead6;
        opacity: .3;
      }

      .cls-149 {
        fill: #bfecd8;
        opacity: .28;
      }

      .cls-150 {
        fill: #4ec993;
        opacity: .78;
      }

      .cls-151 {
        fill: #54cb97;
        opacity: .75;
      }

      .cls-152 {
        fill: #36c285;
        opacity: .89;
      }

      .cls-153 {
        fill: #8eddba;
        opacity: .5;
      }

      .cls-154 {
        fill: #c6eedc;
        opacity: .25;
      }

      .cls-155 {
        fill: #51ca95;
        opacity: .77;
      }

      .cls-156 {
        fill: #21bc78;
        opacity: .98;
      }

      .cls-157 {
        fill: #e3f6ee;
        opacity: .12;
      }

      .cls-158 {
        fill: #eefaf5;
        opacity: .07;
      }

      .cls-159 {
        fill: #a5e4c8;
        opacity: .4;
      }

      .cls-160 {
        fill: #beebd7;
        opacity: .29;
      }

      .cls-161 {
        fill: #c3eddb;
        opacity: .26;
      }

      .cls-162 {
        fill: #93debd;
        opacity: .48;
      }

      .cls-163 {
        fill: #f5fcf9;
        opacity: .04;
      }

      .cls-164 {
        fill: #e9f8f2;
        opacity: .1;
      }

      .cls-165 {
        fill: #46c78f;
        opacity: .81;
      }

      .cls-166 {
        fill: #2bbf7e;
        opacity: .93;
      }

      .cls-167 {
        fill: #72d4a9;
        opacity: .62;
      }

      .cls-168 {
        fill: #3fc58a;
        opacity: .85;
      }

      .cls-169 {
        fill: #76d5ac;
        opacity: .6;
      }

      .cls-170 {
        fill: #5fce9e;
        opacity: .7;
      }

      .cls-171 {
        fill: #28be7c;
        opacity: .95;
      }

      .cls-172 {
        fill: #d1f1e3;
        opacity: .2;
      }

      .cls-173 {
        fill: #8ddcba;
        opacity: .5;
      }

      .cls-174 {
        fill: #def5eb;
        opacity: .15;
      }

      .cls-175 {
        fill: #dff5ec;
        opacity: .14;
      }

      .cls-176 {
        fill: #29be7d;
        opacity: .94;
      }

      .cls-177 {
        fill: #1cba75;
      }

      .cls-178 {
        fill: #d6f3e6;
        opacity: .18;
      }

      .cls-179 {
        fill: #6dd3a6;
        opacity: .64;
      }

      .cls-180 {
        fill: #80d8b2;
        opacity: .56;
      }

      .cls-181 {
        fill: #7cd7af;
        opacity: .58;
      }

      .cls-182 {
        fill: #82d9b3;
        opacity: .55;
      }

      .cls-183 {
        fill: #4bc892;
        opacity: .79;
      }

      .cls-184 {
        fill: #22bc79;
        opacity: .97;
      }

      .cls-185 {
        fill: #a2e3c6;
        opacity: .41;
      }

      .cls-186 {
        fill: #97dfc0;
        opacity: .46;
      }

      .cls-187 {
        fill: #47c78f;
        opacity: .81;
      }

      .cls-188 {
        fill: #90ddbc;
        opacity: .49;
      }

      .cls-189 {
        fill: #7ed8b1;
        opacity: .57;
      }

      .cls-190 {
        fill: #b2e8d0;
        opacity: .34;
      }

      .cls-191 {
        fill: #3dc489;
        opacity: .85;
      }

      .cls-192 {
        fill: #bcebd6;
        opacity: .3;
      }

      .cls-193 {
        fill: #c2ecda;
        opacity: .27;
      }

      .cls-194 {
        fill: #dcf4ea;
        opacity: .15;
      }

      .cls-195 {
        fill: #9ce1c3;
        opacity: .44;
      }

      .cls-196 {
        fill: #2fc081;
        opacity: .92;
      }

      .cls-197 {
        fill: #3bc388;
        opacity: .86;
      }

      .cls-198 {
        fill: #49c890;
        opacity: .8;
      }

      .cls-199 {
        fill: #f8fdfb;
        opacity: .03;
      }

      .cls-200 {
        fill: #60cf9e;
        opacity: .7;
      }

      .cls-201 {
        fill: #52ca96;
        opacity: .76;
      }

      .cls-202 {
        fill: #aae5cb;
        opacity: .37;
      }

      .cls-203 {
        fill: #26bd7b;
        opacity: .96;
      }

      .cls-204 {
        fill: #3ec48a;
        opacity: .85;
      }

      .cls-205 {
        fill: #57cc99;
        opacity: .74;
      }

      .cls-206 {
        fill: #7ad7ae;
        opacity: .59;
      }

      .cls-207 {
        fill: #5bcd9b;
        opacity: .72;
      }

      .cls-208 {
        fill: #a6e4c9;
        opacity: .39;
      }

      .cls-209 {
        fill: #89dbb7;
        opacity: .52;
      }

      .cls-210 {
        fill: #5ccd9c;
        opacity: .72;
      }

      .cls-211 {
        fill: #50ca95;
        opacity: .77;
      }

      .cls-212 {
        fill: #a1e2c6;
        opacity: .41;
      }

      .cls-213 {
        fill: #a8e5ca;
        opacity: .38;
      }

      .cls-214 {
        fill: #77d6ac;
        opacity: .6;
      }

      .cls-215 {
        fill: #4ac891;
        opacity: .8;
      }

      .cls-216 {
        fill: #cef0e1;
        opacity: .22;
      }

      .cls-217 {
        fill: #c1ecd9;
        opacity: .27;
      }

      .cls-218 {
        fill: #e7f8f0;
        opacity: .11;
      }

      .cls-219 {
        fill: #7fd8b1;
        opacity: .56;
      }

      .cls-220 {
        fill: #32c182;
        opacity: .9;
      }

      .cls-221 {
        fill: #f3fbf8;
        opacity: .05;
      }

      .cls-222 {
        fill: #ccefe0;
        opacity: .22;
      }

      .cls-223 {
        fill: #cff0e2;
        opacity: .21;
      }

      .cls-224 {
        fill: #83d9b4;
        opacity: .55;
      }

      .cls-225 {
        fill: #4dc993;
        opacity: .78;
      }

      .cls-226 {
        fill: #95dfbf;
        opacity: .47;
      }

      .cls-227 {
        fill: #9fe2c5;
        opacity: .42;
      }

      .cls-228 {
        fill: #ebf9f3;
        opacity: .09;
      }

      .cls-229 {
        fill: #baead5;
        opacity: .3;
      }

      .cls-230 {
        fill: #c7eedd;
        opacity: .25;
      }

      .cls-231 {
        fill: #7bd7af;
        opacity: .58;
      }

      .cls-232 {
        clip-path: url(#clippath);
      }

      .cls-233 {
        fill: #87dbb6;
        opacity: .53;
      }

      .cls-234 {
        fill: #40c58b;
        opacity: .84;
      }

      .cls-235 {
        fill: #e5f7ef;
        opacity: .11;
      }

      .cls-236 {
        fill: #a3e3c7;
        opacity: .41;
      }

      .cls-237 {
        fill: #1dba76;
        opacity: 1;
      }

      .cls-238 {
        fill: #b3e8d1;
        opacity: .33;
      }

      .cls-239 {
        fill: #1fbb77;
        opacity: .99;
      }

      .cls-240 {
        fill: #98e0c0;
        opacity: .45;
      }
    </style>
    <linearGradient id="linear-gradient" x1="504.99" y1="205.37" x2="256.53" y2="417.87" gradientUnits="userSpaceOnUse">
      <stop offset="0" stop-color="#004645"/>
      <stop offset="1" stop-color="#00bb72" stop-opacity=".5"/>
    </linearGradient>
    <linearGradient id="linear-gradient-2" x1="230.67" y1="355.5" x2="411.46" y2="355.5" xlink:href="#linear-gradient"/>
    <clipPath id="clippath">
      <path class="cls-2" d="M393.24,301.82v52.92c0,6.74-3.46,13.02-9.16,16.62l-52.52,33.16c-6.41,4.05-14.58,4.05-20.98,0l-52.52-33.16c-5.7-3.6-9.16-9.88-9.16-16.62v-52.92c0-12.28,9.96-22.23,22.24-22.23h99.89c12.28,0,22.23,9.95,22.23,22.23Z"/>
    </clipPath>
    <filter id="luminosity-noclip" x="248.88" y="279.59" width="144.36" height="127.97" color-interpolation-filters="sRGB" filterUnits="userSpaceOnUse">
      <feFlood flood-color="#fff" result="bg"/>
      <feBlend in="SourceGraphic" in2="bg"/>
    </filter>
    <filter id="luminosity-noclip-2" x="248.88" y="-7605.45" width="144.36" height="32766" color-interpolation-filters="sRGB" filterUnits="userSpaceOnUse">
      <feFlood flood-color="#fff" result="bg"/>
      <feBlend in="SourceGraphic" in2="bg"/>
    </filter>
    <mask id="mask-1" x="248.88" y="-7605.45" width="144.36" height="32766" maskUnits="userSpaceOnUse"/>
    <linearGradient id="linear-gradient-3" x1="321.06" y1="407.55" x2="321.06" y2="279.59" gradientUnits="userSpaceOnUse">
      <stop offset="0" stop-color="#595959"/>
      <stop offset="1" stop-color="#fff"/>
    </linearGradient>
    <mask id="mask" x="248.88" y="279.59" width="144.36" height="127.97" maskUnits="userSpaceOnUse">
      <g class="cls-10">
        <g class="cls-96">
          <path class="cls-60" d="M393.24,301.82v52.92c0,6.74-3.46,13.02-9.16,16.62l-52.52,33.16c-6.41,4.05-14.58,4.05-20.98,0l-52.52-33.16c-5.7-3.6-9.16-9.88-9.16-16.62v-52.92c0-12.28,9.96-22.23,22.24-22.23h99.89c12.28,0,22.23,9.95,22.23,22.23Z"/>
        </g>
      </g>
    </mask>
    <linearGradient id="linear-gradient-4" x1="321.06" y1="407.55" x2="321.06" y2="279.59" gradientUnits="userSpaceOnUse">
      <stop offset="0" stop-color="#f2f8ff"/>
      <stop offset="1" stop-color="#1cba75"/>
    </linearGradient>
    <linearGradient id="linear-gradient-5" x1="321.06" y1="407.92" x2="321.06" y2="279.2" gradientUnits="userSpaceOnUse">
      <stop offset="0" stop-color="#e6f1ff"/>
      <stop offset="1" stop-color="#f7fbff"/>
    </linearGradient>
  </defs>
  <!-- Generator: Adobe Illustrator 28.6.0, SVG Export Plug-In . SVG Version: 1.2.0 Build 709)  -->
  <g>
    <g id="Layer_1">
      <circle class="cls-73" cx="321.06" cy="362.67" r="195.67"/>
      <g>
        <path class="cls-47" d="M411.46,331.67v98.19c0,10.82-8.77,19.6-19.6,19.6h-141.59c-10.82,0-19.6-8.77-19.6-19.6v-98.19c0-3.89,1.84-7.56,4.97-9.87l78.11-57.84c4.34-3.22,10.28-3.22,14.62,0l78.11,57.84c3.13,2.32,4.97,5.98,4.97,9.87Z"/>
        <g class="cls-232">
          <g>
            <path class="cls-139" d="M250.27,462.75c-18.14,0-32.89-14.76-32.89-32.89v-98.19c0-8.07,3.87-15.76,10.36-20.56l78.11-57.84c4.44-3.29,9.7-5.02,15.22-5.02s10.79,1.74,15.22,5.02l78.11,57.84c6.49,4.8,10.36,12.49,10.36,20.56v98.19c0,18.14-14.76,32.89-32.89,32.89h-141.59Z"/>
            <path class="cls-91" d="M227.77,311.16l78.11-57.84c4.44-3.29,9.7-5.01,15.22-5,5.5,0,10.79,1.77,15.21,5.04l78.06,57.8c6.47,4.79,10.33,12.46,10.33,20.51v98.13c0,5.49-1.36,10.72-3.75,15.27-5.49,10.46-16.46,17.62-29.08,17.62h-141.59c-12.62,0-23.59-7.16-29.08-17.62-2.4-4.55-3.75-9.79-3.75-15.28v-98.13c0-8.05,3.86-15.72,10.33-20.51Z"/>
            <path class="cls-27" d="M227.8,311.2l78.11-57.84c4.44-3.29,9.71-4.96,15.22-4.98s10.79,1.79,15.19,5.05l78.01,57.77c6.46,4.78,10.31,12.43,10.31,20.46v98.07c0,5.46-1.35,10.74-3.74,15.27-5.46,10.47-16.43,17.63-29.04,17.63h-141.59c-12.61,0-23.57-7.16-29.04-17.63-2.39-4.53-3.74-9.8-3.74-15.27v-98.07c0-8.03,3.85-15.68,10.31-20.46Z"/>
            <path class="cls-77" d="M227.84,311.25l78.11-57.84c4.44-3.28,9.71-4.93,15.22-4.96s10.79,1.82,15.17,5.07l77.96,57.73c6.44,4.77,10.29,12.4,10.29,20.42v98.01c0,5.44-1.36,10.74-3.72,15.26-5.47,10.45-16.4,17.64-29,17.64h-141.59c-12.6,0-23.53-7.18-29-17.64-2.36-4.52-3.72-9.82-3.72-15.26v-98.01c0-8.02,3.84-15.65,10.29-20.42Z"/>
            <path class="cls-14" d="M227.87,311.3l78.11-57.84c4.44-3.28,9.71-4.91,15.21-4.93,5.42-.03,10.79,1.85,15.15,5.08l77.91,57.69c6.43,4.76,10.26,12.37,10.26,20.37v97.95c0,5.41-1.36,10.76-3.7,15.25-5.45,10.45-16.36,17.65-28.96,17.65h-141.59c-12.59,0-23.5-7.2-28.95-17.64-2.35-4.5-3.7-9.84-3.7-15.26v-97.95c0-8,3.84-15.61,10.26-20.37Z"/>
            <path class="cls-101" d="M227.91,311.34l78.11-57.84c4.44-3.28,9.71-4.88,15.21-4.91,5.4-.03,10.8,1.88,15.14,5.1l77.86,57.66c6.41,4.75,10.24,12.34,10.24,20.32v97.89c0,5.39-1.35,10.77-3.69,15.24-5.44,10.45-16.33,17.66-28.91,17.66h-141.59c-12.58,0-23.47-7.21-28.91-17.65-2.33-4.48-3.69-9.86-3.69-15.25v-97.89c0-7.98,3.83-15.57,10.24-20.32Z"/>
            <path class="cls-51" d="M227.94,311.39l78.11-57.84c4.44-3.28,9.72-4.85,15.21-4.89,5.38-.04,10.8,1.91,15.12,5.11l77.81,57.62c6.4,4.74,10.21,12.32,10.21,20.28v97.83c0,5.37-1.35,10.78-3.67,15.24-5.43,10.44-16.29,17.67-28.87,17.67h-141.59c-12.58,0-23.44-7.22-28.87-17.66-2.32-4.46-3.67-9.87-3.67-15.24v-97.83c0-7.96,3.82-15.54,10.21-20.28Z"/>
            <path class="cls-199" d="M227.98,311.44l78.11-57.84c4.44-3.28,9.72-4.82,15.2-4.87,5.35-.05,10.8,1.94,15.1,5.12l77.76,57.58c6.38,4.73,10.19,12.29,10.19,20.23v97.77c0,5.34-1.35,10.79-3.65,15.23-5.41,10.44-16.26,17.67-28.83,17.67h-141.59c-12.57,0-23.42-7.23-28.83-17.67-2.3-4.44-3.65-9.89-3.65-15.23v-97.77c0-7.94,3.81-15.5,10.19-20.23Z"/>
            <path class="cls-102" d="M228.01,311.49l78.11-57.84c4.43-3.28,9.72-4.79,15.2-4.85,5.33-.06,10.8,1.97,15.08,5.14l77.71,57.55c6.37,4.71,10.17,12.26,10.17,20.18v97.71c0,5.32-1.35,10.8-3.64,15.22-5.4,10.44-16.23,17.68-28.79,17.68h-141.59c-12.56,0-23.39-7.25-28.79-17.68-2.29-4.43-3.64-9.91-3.64-15.23v-97.71c0-7.92,3.8-15.47,10.17-20.18Z"/>
            <path class="cls-69" d="M228.05,311.53l78.11-57.84c4.43-3.28,9.72-4.76,15.2-4.82,5.3-.06,10.8,2,15.06,5.15l77.66,57.51c6.35,4.7,10.14,12.23,10.14,20.13v97.65c0,5.29-1.35,10.81-3.62,15.22-5.38,10.43-16.19,17.69-28.75,17.69h-141.59c-12.55,0-23.36-7.26-28.74-17.69-2.27-4.41-3.62-9.92-3.62-15.22v-97.65c0-7.9,3.79-15.43,10.14-20.13Z"/>
            <path class="cls-163" d="M228.08,311.58l78.11-57.84c4.43-3.28,9.73-4.73,15.2-4.8,5.28-.07,10.81,2.03,15.05,5.17l77.61,57.47c6.34,4.69,10.12,12.2,10.12,20.09v97.59c0,5.27-1.34,10.82-3.6,15.21-5.37,10.43-16.16,17.7-28.7,17.7h-141.59c-12.54,0-23.33-7.27-28.7-17.7-2.26-4.39-3.6-9.94-3.6-15.21v-97.59c0-7.89,3.78-15.39,10.12-20.09Z"/>
            <path class="cls-37" d="M228.12,311.63l78.11-57.84c4.43-3.28,9.73-4.7,15.19-4.78s10.81,2.06,15.03,5.18l77.56,57.44c6.32,4.68,10.1,12.17,10.1,20.04v97.53c0,5.24-1.34,10.83-3.59,15.2-5.35,10.43-16.12,17.71-28.66,17.71h-141.59c-12.54,0-23.31-7.28-28.66-17.71-2.25-4.37-3.59-9.96-3.59-15.21v-97.53c0-7.87,3.77-15.36,10.1-20.04Z"/>
            <path class="cls-221" d="M228.15,311.67l78.11-57.84c4.43-3.28,9.73-4.67,15.19-4.76s10.81,2.08,15.01,5.2l77.51,57.4c6.31,4.67,10.07,12.14,10.07,19.99v97.47c0,5.22-1.34,10.84-3.57,15.19-5.34,10.42-16.09,17.72-28.62,17.72h-141.59c-12.53,0-23.28-7.29-28.62-17.71-2.23-4.35-3.57-9.98-3.57-15.2v-97.47c0-7.85,3.76-15.32,10.07-19.99Z"/>
            <path class="cls-39" d="M228.19,311.72l78.11-57.84c4.43-3.28,9.73-4.64,15.19-4.73s10.81,2.11,14.99,5.21l77.46,57.36c6.29,4.66,10.05,12.11,10.05,19.95v97.41c0,5.2-1.34,10.85-3.55,15.19-5.33,10.42-16.06,17.73-28.58,17.73h-141.59c-12.52,0-23.25-7.31-28.58-17.72-2.22-4.34-3.56-9.99-3.56-15.19v-97.41c0-7.83,3.76-15.29,10.05-19.95Z"/>
            <path class="cls-122" d="M228.22,311.77l78.11-57.84c4.43-3.28,9.73-4.61,15.19-4.71,5.18-.09,10.81,2.14,14.98,5.23l77.41,57.33c6.28,4.65,10.02,12.09,10.02,19.9v97.35c0,5.17-1.34,10.86-3.54,15.18-5.31,10.42-16.02,17.74-28.54,17.74h-141.59c-12.51,0-23.22-7.32-28.53-17.73-2.2-4.32-3.54-10.01-3.54-15.18v-97.35c0-7.81,3.75-15.25,10.02-19.9Z"/>
            <path class="cls-71" d="M228.26,311.82l78.11-57.84c4.43-3.28,9.74-4.58,15.18-4.69,5.16-.1,10.81,2.17,14.96,5.24l77.36,57.29c6.26,4.64,10,12.06,10,19.85v97.29c0,5.15-1.33,10.88-3.52,15.17-5.3,10.41-15.99,17.74-28.49,17.74h-141.59c-12.5,0-23.19-7.33-28.49-17.74-2.19-4.3-3.52-10.03-3.52-15.18v-97.29c0-7.79,3.74-15.21,10-19.85Z"/>
            <path class="cls-134" d="M228.29,311.86l78.11-57.84c4.43-3.28,9.74-4.56,15.18-4.67,5.13-.11,10.82,2.2,14.94,5.25l77.32,57.25c6.25,4.63,9.98,12.03,9.98,19.8v97.23c0,5.12-1.33,10.89-3.5,15.17-5.28,10.41-15.95,17.75-28.45,17.75h-141.59c-12.5,0-23.17-7.34-28.45-17.75-2.17-4.28-3.51-10.05-3.51-15.17v-97.23c0-7.78,3.73-15.18,9.98-19.8Z"/>
            <path class="cls-158" d="M228.33,311.91l78.11-57.84c4.43-3.28,9.74-4.53,15.18-4.65,5.11-.11,10.82,2.23,14.92,5.27l77.27,57.22c6.23,4.62,9.95,12,9.95,19.76v97.17c0,5.1-1.33,10.9-3.49,15.16-5.27,10.41-15.92,17.76-28.41,17.76h-141.59c-12.49,0-23.14-7.35-28.41-17.76-2.16-4.26-3.49-10.06-3.49-15.16v-97.17c0-7.76,3.72-15.14,9.95-19.76Z"/>
            <path class="cls-142" d="M228.36,311.96l78.11-57.84c4.43-3.28,9.74-4.5,15.18-4.62,5.08-.12,10.82,2.26,14.91,5.28l77.22,57.18c6.22,4.6,9.93,11.97,9.93,19.71v97.11c0,5.07-1.33,10.91-3.47,15.15-5.25,10.4-15.89,17.77-28.37,17.77h-141.59c-12.48,0-23.11-7.37-28.37-17.77-2.14-4.24-3.47-10.08-3.47-15.16v-97.11c0-7.74,3.71-15.11,9.93-19.71Z"/>
            <path class="cls-127" d="M228.4,312l78.11-57.84c4.43-3.28,9.75-4.47,15.17-4.6,5.06-.13,10.82,2.29,14.89,5.3l77.17,57.14c6.2,4.59,9.91,11.94,9.91,19.66v97.05c0,5.05-1.33,10.92-3.45,15.15-5.24,10.4-15.85,17.78-28.33,17.78h-141.59c-12.47,0-23.08-7.38-28.32-17.78-2.13-4.23-3.46-10.1-3.46-15.15v-97.05c0-7.72,3.7-15.07,9.91-19.66Z"/>
            <path class="cls-228" d="M228.43,312.05l78.11-57.84c4.43-3.28,9.75-4.44,15.17-4.58,5.03-.13,10.82,2.32,14.87,5.31l77.12,57.11c6.19,4.58,9.88,11.91,9.88,19.62v96.99c0,5.03-1.32,10.93-3.44,15.14-5.23,10.4-15.82,17.79-28.28,17.79h-141.59c-12.47,0-23.06-7.39-28.28-17.78-2.12-4.21-3.44-10.11-3.44-15.14v-96.99c0-7.7,3.69-15.03,9.88-19.62Z"/>
            <path class="cls-75" d="M228.47,312.1l78.11-57.84c4.43-3.28,9.75-4.41,15.17-4.56,5.01-.14,10.83,2.34,14.85,5.33l77.07,57.07c6.17,4.57,9.86,11.89,9.86,19.57v96.93c0,5-1.32,10.94-3.42,15.13-5.21,10.39-15.78,17.8-28.24,17.8h-141.59c-12.46,0-23.03-7.4-28.24-17.79-2.1-4.19-3.42-10.13-3.42-15.13v-96.93c0-7.68,3.68-15,9.86-19.57Z"/>
            <path class="cls-164" d="M228.5,312.14l78.11-57.84c4.43-3.28,9.75-4.38,15.17-4.54,4.98-.14,10.83,2.37,14.84,5.34l77.02,57.03c6.16,4.56,9.84,11.86,9.84,19.52v96.87c0,4.98-1.32,10.95-3.4,15.12-5.2,10.39-15.75,17.81-28.2,17.81h-141.59c-12.45,0-23-7.41-28.2-17.8-2.09-4.17-3.41-10.15-3.41-15.13v-96.87c0-7.67,3.68-14.96,9.84-19.52Z"/>
            <path class="cls-41" d="M228.54,312.19l78.11-57.84c4.43-3.28,9.75-4.35,15.16-4.51,4.96-.15,10.83,2.4,14.82,5.36l76.97,57c6.15,4.55,9.81,11.83,9.81,19.48v96.81c0,4.95-1.32,10.97-3.39,15.12-5.18,10.39-15.72,17.81-28.16,17.81h-141.59c-12.44,0-22.97-7.42-28.16-17.81-2.07-4.15-3.39-10.17-3.39-15.12v-96.81c0-7.65,3.67-14.92,9.81-19.48Z"/>
            <path class="cls-218" d="M228.57,312.24l78.11-57.84c4.43-3.28,9.75-4.32,15.16-4.49,4.94-.16,10.83,2.43,14.8,5.37l76.92,56.96c6.13,4.54,9.79,11.8,9.79,19.43v96.75c0,4.93-1.31,10.98-3.37,15.11-5.17,10.39-15.68,17.82-28.12,17.82h-141.59c-12.43,0-22.94-7.44-28.11-17.82-2.06-4.13-3.37-10.18-3.37-15.11v-96.75c0-7.63,3.66-14.89,9.79-19.43Z"/>
            <path class="cls-106" d="M228.61,312.29l78.11-57.84c4.43-3.28,9.76-4.29,15.16-4.47,4.91-.16,10.83,2.46,14.78,5.38l76.87,56.92c6.12,4.53,9.76,11.77,9.76,19.38v96.69c0,4.9-1.31,10.99-3.35,15.1-5.16,10.38-15.65,17.83-28.07,17.83h-141.59c-12.43,0-22.92-7.45-28.07-17.83-2.04-4.12-3.36-10.2-3.36-15.11v-96.69c0-7.61,3.65-14.85,9.76-19.38Z"/>
            <path class="cls-235" d="M228.64,312.33l78.11-57.84c4.43-3.28,9.76-4.26,15.15-4.45,4.89-.17,10.84,2.49,14.76,5.4l76.82,56.89c6.1,4.52,9.74,11.74,9.74,19.33v96.63c0,4.88-1.31,11-3.34,15.1-5.14,10.38-15.61,17.84-28.03,17.84h-141.59c-12.42,0-22.89-7.46-28.03-17.84-2.03-4.1-3.34-10.22-3.34-15.1v-96.63c0-7.59,3.64-14.82,9.74-19.33Z"/>
            <path class="cls-121" d="M228.68,312.38l78.11-57.84c4.43-3.28,9.76-4.23,15.15-4.43,4.86-.17,10.84,2.52,14.75,5.41l76.77,56.85c6.09,4.51,9.72,11.71,9.72,19.29v96.57c0,4.86-1.31,11.01-3.32,15.09-5.13,10.38-15.58,17.85-27.99,17.85h-141.59c-12.41,0-22.86-7.47-27.99-17.85-2.02-4.08-3.32-10.23-3.32-15.09v-96.57c0-7.57,3.63-14.78,9.72-19.29Z"/>
            <path class="cls-157" d="M228.71,312.43l78.11-57.84c4.43-3.28,9.76-4.2,15.15-4.4,4.84-.18,10.84,2.55,14.73,5.43l76.72,56.82c6.07,4.5,9.69,11.68,9.69,19.24v96.51c0,4.83-1.3,11.02-3.3,15.08-5.11,10.37-15.55,17.86-27.95,17.86h-141.59c-12.4,0-22.83-7.48-27.95-17.85-2-4.06-3.31-10.25-3.31-15.09v-96.51c0-7.56,3.62-14.74,9.69-19.24Z"/>
            <path class="cls-107" d="M228.75,312.47l78.11-57.84c4.43-3.28,9.76-4.18,15.15-4.38,4.81-.18,10.84,2.58,14.71,5.44l76.67,56.78c6.06,4.48,9.67,11.66,9.67,19.19v96.45c0,4.81-1.3,11.03-3.29,15.07-5.1,10.37-15.51,17.87-27.91,17.87h-141.59c-12.39,0-22.81-7.49-27.9-17.86-1.99-4.04-3.29-10.27-3.29-15.08v-96.45c0-7.54,3.61-14.71,9.67-19.19Z"/>
            <path class="cls-109" d="M228.78,312.52l78.11-57.84c4.43-3.28,9.77-4.15,15.14-4.36,4.79-.19,10.84,2.61,14.69,5.46l76.62,56.74c6.04,4.47,9.65,11.63,9.65,19.15v96.39c0,4.78-1.3,11.04-3.27,15.07-5.08,10.37-15.48,17.88-27.86,17.88h-141.59c-12.39,0-22.78-7.51-27.86-17.87-1.97-4.02-3.27-10.29-3.27-15.07v-96.39c0-7.52,3.6-14.67,9.65-19.15Z"/>
            <path class="cls-48" d="M228.82,312.57l78.11-57.84c4.43-3.28,9.77-4.12,15.14-4.34,4.76-.19,10.85,2.63,14.68,5.47l76.57,56.71c6.03,4.46,9.62,11.6,9.62,19.1v96.33c0,4.76-1.3,11.06-3.25,15.06-5.07,10.37-15.44,17.88-27.82,17.88h-141.59c-12.38,0-22.75-7.52-27.82-17.88-1.96-4.01-3.26-10.3-3.26-15.06v-96.33c0-7.5,3.59-14.64,9.62-19.1Z"/>
            <path class="cls-175" d="M228.85,312.62l78.11-57.84c4.42-3.28,9.77-4.09,15.14-4.31,4.74-.2,10.85,2.66,14.66,5.49l76.52,56.67c6.01,4.45,9.6,11.57,9.6,19.05v96.27c0,4.74-1.29,11.07-3.24,15.05-5.06,10.36-15.41,17.89-27.78,17.89h-141.59c-12.37,0-22.72-7.53-27.78-17.89-1.95-3.99-3.24-10.32-3.24-15.06v-96.27c0-7.48,3.59-14.6,9.6-19.05Z"/>
            <path class="cls-174" d="M228.89,312.66l78.11-57.84c4.42-3.28,9.77-4.06,15.14-4.29,4.71-.21,10.85,2.69,14.64,5.5l76.48,56.63c6,4.44,9.57,11.54,9.57,19v96.21c0,4.71-1.29,11.08-3.22,15.05-5.04,10.36-15.38,17.9-27.74,17.9h-141.59c-12.36,0-22.69-7.54-27.74-17.9-1.93-3.97-3.22-10.34-3.22-15.05v-96.21c0-7.46,3.58-14.56,9.57-19Z"/>
            <path class="cls-55" d="M228.92,312.71l78.11-57.84c4.42-3.28,9.77-4.03,15.13-4.27,4.69-.21,10.85,2.72,14.62,5.51l76.43,56.6c5.98,4.43,9.55,11.51,9.55,18.96v96.15c0,4.69-1.29,11.09-3.2,15.04-5.03,10.36-15.34,17.91-27.7,17.91h-141.59c-12.35,0-22.67-7.55-27.69-17.91-1.92-3.95-3.21-10.36-3.21-15.04v-96.15c0-7.44,3.57-14.53,9.55-18.96Z"/>
            <path class="cls-194" d="M228.96,312.76l78.11-57.84c4.42-3.28,9.77-4,15.13-4.25,4.67-.22,10.85,2.75,14.61,5.53l76.38,56.56c5.97,4.42,9.53,11.48,9.53,18.91v96.09c0,4.66-1.28,11.1-3.19,15.03-5.01,10.35-15.31,17.92-27.65,17.92h-141.59c-12.35,0-22.64-7.56-27.65-17.92-1.9-3.93-3.19-10.37-3.19-15.04v-96.09c0-7.43,3.56-14.49,9.53-18.91Z"/>
            <path class="cls-92" d="M228.99,312.8l78.11-57.84c4.42-3.27,9.78-3.97,15.13-4.23,4.64-.22,10.85,2.78,14.59,5.54l76.33,56.52c5.95,4.41,9.5,11.46,9.5,18.86v96.03c0,4.64-1.28,11.11-3.17,15.03-5,10.35-15.27,17.93-27.61,17.93h-141.59c-12.34,0-22.61-7.57-27.61-17.92-1.89-3.91-3.17-10.39-3.17-15.03v-96.03c0-7.41,3.55-14.45,9.5-18.86Z"/>
            <path class="cls-103" d="M229.02,312.85l78.11-57.84c4.42-3.27,9.78-3.94,15.13-4.2,4.62-.23,10.86,2.81,14.57,5.56l76.28,56.49c5.94,4.4,9.48,11.43,9.48,18.82v95.97c0,4.61-1.28,11.12-3.15,15.02-4.99,10.35-15.24,17.94-27.57,17.94h-141.59c-12.33,0-22.58-7.59-27.57-17.93-1.88-3.89-3.16-10.41-3.16-15.02v-95.97c0-7.39,3.54-14.42,9.48-18.82Z"/>
            <path class="cls-136" d="M229.06,312.9l78.11-57.84c4.42-3.27,9.78-3.91,15.12-4.18,4.59-.23,10.86,2.84,14.55,5.57l76.23,56.45c5.92,4.39,9.46,11.4,9.46,18.77v95.91c0,4.59-1.28,11.14-3.14,15.01-4.97,10.35-15.21,17.94-27.53,17.94h-141.59c-12.32,0-22.55-7.6-27.53-17.94-1.86-3.88-3.14-10.42-3.14-15.01v-95.9c0-7.37,3.53-14.38,9.46-18.77Z"/>
            <path class="cls-16" d="M229.09,312.94l78.11-57.84c4.42-3.27,9.78-3.88,15.12-4.16,4.57-.24,10.86,2.87,14.54,5.59l76.18,56.41c5.91,4.37,9.43,11.37,9.43,18.72v95.85c0,4.57-1.27,11.15-3.12,15-4.96,10.34-15.17,17.95-27.49,17.95h-141.59c-12.31,0-22.53-7.61-27.49-17.95-1.85-3.86-3.12-10.44-3.12-15.01v-95.84c0-7.35,3.52-14.35,9.43-18.72Z"/>
            <path class="cls-83" d="M229.13,312.99l78.11-57.84c4.42-3.27,9.78-3.85,15.12-4.14,4.54-.24,10.86,2.89,14.52,5.6l76.13,56.38c5.89,4.36,9.41,11.34,9.41,18.67v95.78c0,4.54-1.27,11.16-3.11,15-4.95,10.34-15.14,17.96-27.44,17.96h-141.59c-12.31,0-22.5-7.62-27.44-17.96-1.84-3.84-3.11-10.46-3.11-15v-95.78c0-7.33,3.51-14.31,9.41-18.67Z"/>
            <path class="cls-178" d="M229.16,313.04l78.11-57.84c4.42-3.27,9.78-3.82,15.11-4.12,4.52-.25,10.86,2.92,14.5,5.62l76.08,56.34c5.88,4.35,9.38,11.31,9.38,18.63v95.72c0,4.52-1.27,11.17-3.09,14.99-4.93,10.34-15.1,17.97-27.4,17.97h-141.59c-12.3,0-22.47-7.63-27.4-17.97-1.82-3.82-3.09-10.48-3.09-14.99v-95.72c0-7.32,3.51-14.27,9.38-18.63Z"/>
            <path class="cls-54" d="M229.2,313.09l78.11-57.84c4.42-3.27,9.78-3.8,15.11-4.09,4.49-.25,10.87,2.95,14.48,5.63l76.03,56.3c5.86,4.34,9.36,11.28,9.36,18.58v95.66c0,4.49-1.26,11.18-3.07,14.98-4.92,10.34-15.07,17.98-27.36,17.98h-141.59c-12.29,0-22.44-7.64-27.36-17.98-1.81-3.8-3.07-10.49-3.07-14.99v-95.66c0-7.3,3.5-14.24,9.36-18.58Z"/>
            <path class="cls-140" d="M229.23,313.13l78.11-57.84c4.42-3.27,9.78-3.77,15.11-4.07,4.47-.26,10.87,2.98,14.47,5.65l75.98,56.27c5.85,4.33,9.34,11.25,9.34,18.53v95.6c0,4.47-1.26,11.19-3.06,14.98-4.9,10.34-15.04,17.99-27.32,17.99h-141.59c-12.28,0-22.41-7.65-27.32-17.99-1.79-3.78-3.06-10.51-3.06-14.98v-95.6c0-7.28,3.49-14.2,9.34-18.53Z"/>
            <path class="cls-1" d="M229.27,313.18l78.11-57.84c4.42-3.27,9.79-3.74,15.11-4.05,4.44-.26,10.87,3.01,14.45,5.66l75.93,56.23c5.83,4.32,9.31,11.23,9.31,18.49v95.54c0,4.44-1.26,11.21-3.04,14.97-4.89,10.33-15,18-27.28,18h-141.59c-12.27,0-22.38-7.66-27.28-17.99-1.78-3.76-3.04-10.53-3.04-14.97v-95.54c0-7.26,3.48-14.17,9.31-18.49Z"/>
            <path class="cls-44" d="M229.3,313.23l78.11-57.84c4.42-3.27,9.79-3.71,15.1-4.03,4.42-.27,10.87,3.04,14.43,5.67l75.88,56.19c5.82,4.31,9.29,11.2,9.29,18.44v95.48c0,4.42-1.25,11.22-3.02,14.96-4.88,10.33-14.97,18.01-27.23,18.01h-141.59c-12.27,0-22.36-7.67-27.23-18-1.77-3.74-3.02-10.54-3.02-14.97v-95.48c0-7.24,3.47-14.13,9.29-18.44Z"/>
            <path class="cls-172" d="M229.34,313.27l78.11-57.84c4.42-3.27,9.79-3.68,15.1-4,4.39-.27,10.87,3.07,14.41,5.69l75.83,56.16c5.8,4.3,9.27,11.17,9.27,18.39v95.42c0,4.4-1.25,11.23-3.01,14.95-4.86,10.33-14.93,18.01-27.19,18.01h-141.59c-12.26,0-22.33-7.69-27.19-18.01-1.75-3.73-3.01-10.56-3.01-14.96v-95.42c0-7.22,3.46-14.09,9.27-18.39Z"/>
            <path class="cls-67" d="M229.37,313.32l78.11-57.84c4.42-3.27,9.79-3.65,15.1-3.98,4.37-.27,10.88,3.1,14.39,5.7l75.78,56.12c5.79,4.29,9.24,11.14,9.24,18.35v95.36c0,4.37-1.25,11.24-2.99,14.95-4.85,10.33-14.9,18.02-27.15,18.02h-141.59c-12.25,0-22.3-7.7-27.15-18.02-1.74-3.71-2.99-10.58-2.99-14.95v-95.36c0-7.21,3.45-14.06,9.24-18.35Z"/>
            <path class="cls-223" d="M229.41,313.37l78.11-57.84c4.42-3.27,9.79-3.62,15.1-3.96,4.35-.28,10.88,3.13,14.38,5.72l75.73,56.08c5.78,4.28,9.22,11.11,9.22,18.3v95.3c0,4.35-1.25,11.25-2.97,14.94-4.84,10.32-14.86,18.03-27.11,18.03h-141.59c-12.24,0-22.27-7.71-27.11-18.03-1.73-3.69-2.97-10.6-2.97-14.94v-95.3c0-7.19,3.44-14.02,9.22-18.3Z"/>
            <path class="cls-216" d="M229.44,313.42l78.11-57.84c4.42-3.27,9.79-3.59,15.09-3.94,4.32-.28,10.88,3.16,14.36,5.73l75.68,56.05c5.76,4.27,9.19,11.08,9.19,18.25v95.24c0,4.32-1.24,11.27-2.96,14.93-4.82,10.32-14.83,18.04-27.07,18.04h-141.59c-12.23,0-22.24-7.72-27.07-18.04-1.71-3.67-2.96-10.61-2.96-14.94v-95.24c0-7.17,3.43-13.99,9.19-18.25Z"/>
            <path class="cls-24" d="M229.48,313.46l78.11-57.84c4.42-3.27,9.79-3.56,15.09-3.92,4.3-.29,10.88,3.18,14.34,5.75l75.63,56.01c5.75,4.25,9.17,11.05,9.17,18.2v95.18c0,4.3-1.24,11.28-2.94,14.93-4.81,10.32-14.8,18.05-27.03,18.05h-141.59c-12.23,0-22.22-7.73-27.02-18.05-1.7-3.65-2.94-10.63-2.94-14.93v-95.18c0-7.15,3.43-13.95,9.17-18.2Z"/>
            <path class="cls-222" d="M229.51,313.51l78.11-57.84c4.42-3.27,9.79-3.53,15.09-3.89,4.27-.29,10.88,3.21,14.32,5.76l75.59,55.97c5.73,4.24,9.15,11.03,9.15,18.16v95.12c0,4.27-1.24,11.29-2.92,14.92-4.79,10.32-14.76,18.06-26.98,18.06h-141.59c-12.22,0-22.19-7.74-26.98-18.06-1.69-3.63-2.92-10.65-2.92-14.92v-95.12c0-7.13,3.42-13.91,9.15-18.16Z"/>
            <path class="cls-108" d="M229.55,313.56l78.11-57.84c4.42-3.27,9.8-3.5,15.09-3.87,4.25-.3,10.89,3.24,14.31,5.78l75.54,55.94c5.72,4.23,9.12,11,9.12,18.11v95.06c0,4.25-1.23,11.3-2.91,14.91-4.78,10.32-14.73,18.07-26.94,18.07h-141.59c-12.21,0-22.16-7.75-26.94-18.06-1.67-3.61-2.91-10.67-2.91-14.92v-95.06c0-7.11,3.41-13.88,9.12-18.11Z"/>
            <path class="cls-59" d="M229.58,313.6l78.11-57.84c4.42-3.27,9.8-3.47,15.08-3.85,4.22-.3,10.89,3.27,14.29,5.79l75.49,55.9c5.7,4.22,9.1,10.97,9.1,18.06v95c0,4.23-1.23,11.31-2.89,14.9-4.77,10.31-14.69,18.08-26.9,18.08h-141.59c-12.2,0-22.13-7.76-26.9-18.07-1.66-3.59-2.89-10.68-2.89-14.91v-95c0-7.1,3.4-13.84,9.1-18.06Z"/>
            <path class="cls-35" d="M229.62,313.65l78.11-57.84c4.42-3.27,9.8-3.44,15.08-3.83,4.2-.3,10.89,3.3,14.27,5.8l75.44,55.86c5.69,4.21,9.08,10.94,9.08,18.02v94.94c0,4.2-1.23,11.32-2.87,14.9-4.75,10.31-14.66,18.08-26.86,18.08h-141.59c-12.2,0-22.1-7.77-26.86-18.08-1.65-3.57-2.87-10.7-2.87-14.9v-94.94c0-7.08,3.39-13.8,9.08-18.02Z"/>
            <path class="cls-68" d="M229.65,313.7l78.11-57.84c4.42-3.27,9.8-3.41,15.08-3.81,4.17-.31,10.89,3.33,14.25,5.82l75.39,55.83c5.67,4.2,9.05,10.91,9.05,17.97v94.88c0,4.18-1.22,11.34-2.86,14.89-4.74,10.31-14.63,18.09-26.82,18.09h-141.59c-12.19,0-22.07-7.78-26.81-18.09-1.63-3.56-2.86-10.72-2.86-14.89v-94.88c0-7.06,3.38-13.77,9.05-17.97Z"/>
            <path class="cls-230" d="M229.69,313.75l78.11-57.84c4.41-3.27,9.8-3.39,15.07-3.78,4.15-.31,10.89,3.36,14.24,5.83l75.34,55.79c5.66,4.19,9.03,10.88,9.03,17.92v94.82c0,4.15-1.22,11.35-2.84,14.88-4.73,10.31-14.59,18.1-26.77,18.1h-141.59c-12.18,0-22.05-7.79-26.77-18.1-1.62-3.54-2.84-10.73-2.84-14.89v-94.82c0-7.04,3.37-13.73,9.03-17.92Z"/>
            <path class="cls-154" d="M229.72,313.79l78.11-57.84c4.41-3.27,9.8-3.36,15.07-3.76,4.12-.32,10.9,3.39,14.22,5.85l75.29,55.75c5.64,4.18,9.01,10.85,9.01,17.87v94.76c0,4.13-1.21,11.36-2.82,14.88-4.71,10.31-14.56,18.11-26.73,18.11h-141.59c-12.17,0-22.02-7.8-26.73-18.11-1.61-3.52-2.82-10.75-2.82-14.88v-94.76c0-7.02,3.36-13.7,9.01-17.87Z"/>
            <path class="cls-23" d="M229.76,313.84l78.11-57.84c4.41-3.27,9.8-3.33,15.07-3.74,4.1-.32,10.9,3.42,14.2,5.86l75.24,55.72c5.63,4.17,8.98,10.82,8.98,17.83v94.7c0,4.1-1.21,11.37-2.81,14.87-4.7,10.3-14.52,18.12-26.69,18.12h-141.59c-12.16,0-21.99-7.81-26.69-18.12-1.6-3.5-2.81-10.77-2.81-14.87v-94.7c0-7,3.35-13.66,8.98-17.83Z"/>
            <path class="cls-12" d="M229.79,313.89l78.11-57.84c4.41-3.27,9.8-3.3,15.07-3.72,4.07-.32,10.9,3.45,14.18,5.88l75.19,55.68c5.61,4.16,8.96,10.8,8.96,17.78v94.64c0,4.08-1.21,11.38-2.79,14.86-4.68,10.3-14.49,18.13-26.65,18.13h-141.59c-12.16,0-21.96-7.83-26.65-18.13-1.58-3.48-2.79-10.79-2.79-14.87v-94.64c0-6.98,3.34-13.62,8.96-17.78Z"/>
            <path class="cls-161" d="M229.83,313.93l78.11-57.84c4.41-3.27,9.8-3.27,15.06-3.7,4.05-.33,10.9,3.47,14.17,5.89l75.14,55.64c5.6,4.14,8.93,10.77,8.93,17.73v94.58c0,4.06-1.2,11.4-2.77,14.86-4.67,10.3-14.46,18.14-26.61,18.14h-141.59c-12.15,0-21.93-7.84-26.6-18.13-1.57-3.46-2.77-10.8-2.77-14.86v-94.58c0-6.97,3.34-13.59,8.93-17.73Z"/>
            <path class="cls-193" d="M229.86,313.98l78.11-57.84c4.41-3.27,9.8-3.24,15.06-3.67,4.02-.33,10.9,3.5,14.15,5.91l75.09,55.61c5.58,4.13,8.91,10.74,8.91,17.69v94.52c0,4.03-1.2,11.41-2.76,14.85-4.66,10.3-14.42,18.15-26.56,18.15h-141.59c-12.14,0-21.9-7.85-26.56-18.14-1.56-3.44-2.76-10.82-2.76-14.85v-94.52c0-6.95,3.33-13.55,8.91-17.69Z"/>
            <path class="cls-217" d="M229.9,314.03l78.11-57.84c4.41-3.27,9.8-3.21,15.06-3.65,4-.34,10.9,3.53,14.13,5.92l75.04,55.57c5.57,4.12,8.89,10.71,8.89,17.64v94.46c0,4.01-1.2,11.42-2.74,14.84-4.64,10.3-14.39,18.15-26.52,18.15h-141.59c-12.13,0-21.88-7.86-26.52-18.15-1.54-3.42-2.74-10.84-2.74-14.84v-94.46c0-6.93,3.32-13.52,8.89-17.64Z"/>
            <path class="cls-31" d="M229.93,314.07l78.11-57.84c4.41-3.27,9.8-3.18,15.06-3.63,3.98-.34,10.91,3.56,14.11,5.93l74.99,55.53c5.55,4.11,8.86,10.68,8.86,17.59v94.4c0,3.98-1.19,11.43-2.72,14.83-4.63,10.3-14.35,18.16-26.48,18.16h-141.59c-12.12,0-21.85-7.87-26.48-18.16-1.53-3.4-2.72-10.85-2.72-14.84v-94.4c0-6.91,3.31-13.48,8.86-17.59Z"/>
            <path class="cls-149" d="M229.97,314.12l78.11-57.84c4.41-3.27,9.81-3.15,15.05-3.61,3.95-.34,10.91,3.59,14.09,5.95l74.94,55.5c5.54,4.1,8.84,10.65,8.84,17.55v94.34c0,3.96-1.19,11.44-2.71,14.83-4.62,10.29-14.32,18.17-26.44,18.17h-141.59c-12.12,0-21.82-7.88-26.44-18.17-1.52-3.38-2.71-10.87-2.71-14.83v-94.34c0-6.89,3.3-13.44,8.84-17.55Z"/>
            <path class="cls-160" d="M230,314.17l78.11-57.84c4.41-3.27,9.81-3.12,15.05-3.58,3.93-.35,10.91,3.62,14.08,5.96l74.89,55.46c5.52,4.09,8.82,10.62,8.82,17.5v94.28c0,3.93-1.19,11.46-2.69,14.82-4.6,10.29-14.29,18.18-26.4,18.18h-141.59c-12.11,0-21.79-7.89-26.39-18.18-1.51-3.36-2.69-10.89-2.69-14.82v-94.28c0-6.87,3.29-13.41,8.82-17.5Z"/>
            <path class="cls-111" d="M230.04,314.22l78.11-57.84c4.41-3.27,9.81-3.09,15.05-3.56,3.9-.35,10.91,3.65,14.06,5.98l74.84,55.42c5.51,4.08,8.79,10.6,8.79,17.45v94.22c0,3.91-1.18,11.47-2.67,14.81-4.59,10.29-14.25,18.19-26.35,18.19h-141.59c-12.1,0-21.76-7.9-26.35-18.19-1.49-3.35-2.67-10.91-2.67-14.82v-94.22c0-6.86,3.28-13.37,8.79-17.45Z"/>
            <path class="cls-192" d="M230.07,314.26l78.11-57.84c4.41-3.27,9.81-3.06,15.05-3.54,3.88-.35,10.91,3.68,14.04,5.99l74.79,55.39c5.49,4.07,8.77,10.57,8.77,17.4v94.16c0,3.89-1.18,11.48-2.66,14.81-4.58,10.29-14.22,18.2-26.31,18.2h-141.59c-12.09,0-21.73-7.91-26.31-18.2-1.48-3.33-2.66-10.92-2.66-14.81v-94.16c0-6.84,3.27-13.34,8.77-17.4Z"/>
            <path class="cls-148" d="M230.11,314.31l78.11-57.84c4.41-3.27,9.81-3.03,15.04-3.52,3.85-.36,10.92,3.71,14.02,6.01l74.75,55.35c5.48,4.06,8.74,10.54,8.74,17.36v94.1c0,3.86-1.17,11.49-2.64,14.8-4.56,10.29-14.18,18.21-26.27,18.21h-141.59c-12.08,0-21.7-7.92-26.27-18.2-1.47-3.31-2.64-10.94-2.64-14.8v-94.1c0-6.82,3.26-13.3,8.74-17.36Z"/>
            <path class="cls-229" d="M230.14,314.36l78.11-57.84c4.41-3.26,9.81-3,15.04-3.5,3.83-.36,10.92,3.73,14.01,6.02l74.7,55.31c5.46,4.05,8.72,10.51,8.72,17.31v94.04c0,3.84-1.17,11.51-2.62,14.79-4.55,10.29-14.15,18.22-26.23,18.22h-141.59c-12.08,0-21.68-7.93-26.23-18.21-1.45-3.29-2.62-10.96-2.62-14.8v-94.04c0-6.8,3.26-13.26,8.72-17.31Z"/>
            <path class="cls-115" d="M230.18,314.4l78.11-57.84c4.41-3.26,9.81-2.98,15.04-3.47,3.8-.36,10.92,3.76,13.99,6.04l74.65,55.28c5.45,4.04,8.7,10.48,8.7,17.26v93.98c0,3.81-1.17,11.52-2.61,14.78-4.54,10.28-14.12,18.22-26.19,18.22h-141.59c-12.07,0-21.65-7.94-26.18-18.22-1.44-3.27-2.61-10.97-2.61-14.79v-93.98c0-6.78,3.25-13.23,8.7-17.26Z"/>
            <path class="cls-116" d="M230.21,314.45l78.11-57.84c4.41-3.26,9.81-2.95,15.04-3.45,3.78-.37,10.92,3.79,13.97,6.05l74.6,55.24c5.44,4.02,8.67,10.45,8.67,17.22v93.92c0,3.79-1.16,11.53-2.59,14.78-4.52,10.28-14.08,18.23-26.14,18.23h-141.59c-12.06,0-21.62-7.95-26.14-18.23-1.43-3.25-2.59-10.99-2.59-14.78v-93.92c0-6.76,3.24-13.19,8.67-17.22Z"/>
            <path class="cls-100" d="M230.24,314.5l78.11-57.84c4.41-3.26,9.81-2.92,15.03-3.43,3.75-.37,10.92,3.82,13.95,6.07l74.55,55.2c5.42,4.01,8.65,10.42,8.65,17.17v93.86c0,3.76-1.16,11.54-2.57,14.77-4.51,10.28-14.05,18.24-26.1,18.24h-141.59c-12.05,0-21.59-7.96-26.1-18.24-1.42-3.23-2.57-11.01-2.57-14.77v-93.86c0-6.75,3.23-13.15,8.65-17.17Z"/>
            <path class="cls-119" d="M230.28,314.55l78.11-57.84c4.41-3.26,9.81-2.89,15.03-3.41,3.73-.37,10.93,3.85,13.94,6.08l74.5,55.17c5.41,4,8.63,10.39,8.63,17.12v93.8c0,3.74-1.15,11.55-2.56,14.76-4.5,10.28-14.01,18.25-26.06,18.25h-141.59c-12.04,0-21.56-7.97-26.06-18.25-1.4-3.21-2.56-11.03-2.56-14.77v-93.8c0-6.73,3.22-13.12,8.63-17.12Z"/>
            <path class="cls-38" d="M230.31,314.59l78.11-57.84c4.41-3.26,9.81-2.86,15.03-3.39,3.7-.37,10.93,3.88,13.92,6.09l74.45,55.13c5.39,3.99,8.6,10.37,8.6,17.07v93.74c0,3.72-1.15,11.57-2.54,14.76-4.48,10.28-13.98,18.26-26.02,18.26h-141.59c-12.04,0-21.53-7.98-26.02-18.26-1.39-3.19-2.54-11.04-2.54-14.76v-93.74c0-6.71,3.21-13.08,8.6-17.07Z"/>
            <path class="cls-113" d="M230.35,314.64l78.11-57.84c4.41-3.26,9.81-2.83,15.02-3.36,3.68-.38,10.93,3.91,13.9,6.11l74.4,55.09c5.38,3.98,8.58,10.34,8.58,17.03v93.68c0,3.69-1.15,11.58-2.52,14.75-4.47,10.28-13.95,18.27-25.98,18.27h-141.59c-12.03,0-21.5-7.99-25.97-18.27-1.38-3.17-2.53-11.06-2.53-14.75v-93.68c0-6.69,3.2-13.05,8.58-17.03Z"/>
            <path class="cls-238" d="M230.38,314.69l78.11-57.84c4.41-3.26,9.81-2.8,15.02-3.34,3.65-.38,10.93,3.94,13.88,6.12l74.35,55.06c5.36,3.97,8.55,10.31,8.55,16.98v93.62c0,3.67-1.14,11.59-2.51,14.74-4.46,10.28-13.91,18.28-25.93,18.28h-141.59c-12.02,0-21.48-8-25.93-18.27-1.37-3.15-2.51-11.08-2.51-14.75v-93.62c0-6.67,3.19-13.01,8.55-16.98Z"/>
            <path class="cls-190" d="M230.42,314.73l78.11-57.84c4.41-3.26,9.81-2.77,15.02-3.32,3.63-.38,10.93,3.97,13.87,6.14l74.3,55.02c5.35,3.96,8.53,10.28,8.53,16.93v93.56c0,3.64-1.14,11.6-2.49,14.74-4.44,10.27-13.88,18.29-25.89,18.29h-141.59c-12.01,0-21.45-8.01-25.89-18.28-1.35-3.13-2.49-11.1-2.49-14.74v-93.55c0-6.65,3.18-12.97,8.53-16.93Z"/>
            <path class="cls-33" d="M230.45,314.78l78.11-57.84c4.41-3.26,9.81-2.74,15.02-3.3,3.6-.38,10.94,4,13.85,6.15l74.25,54.98c5.33,3.95,8.51,10.25,8.51,16.89v93.5c0,3.62-1.13,11.62-2.47,14.73-4.43,10.27-13.84,18.29-25.85,18.29h-141.59c-12,0-21.42-8.02-25.85-18.29-1.34-3.11-2.48-11.11-2.48-14.73v-93.49c0-6.64,3.18-12.94,8.51-16.89Z"/>
            <path class="cls-86" d="M230.49,314.83l78.11-57.84c4.41-3.26,9.81-2.71,15.01-3.27,3.58-.39,10.94,4.02,13.83,6.17l74.2,54.95c5.32,3.94,8.48,10.22,8.48,16.84v93.44c0,3.59-1.13,11.63-2.46,14.72-4.42,10.27-13.81,18.3-25.81,18.3h-141.59c-12,0-21.39-8.03-25.81-18.3-1.33-3.09-2.46-11.13-2.46-14.72v-93.43c0-6.62,3.17-12.9,8.48-16.84Z"/>
            <path class="cls-42" d="M230.52,314.87l78.11-57.84c4.4-3.26,9.81-2.68,15.01-3.25,3.55-.39,10.94,4.05,13.81,6.18l74.15,54.91c5.3,3.93,8.46,10.19,8.46,16.79v93.38c0,3.57-1.12,11.64-2.44,14.71-4.4,10.27-13.78,18.31-25.77,18.31h-141.59c-11.99,0-21.36-8.04-25.76-18.31-1.32-3.07-2.44-11.15-2.44-14.72v-93.37c0-6.6,3.16-12.87,8.46-16.79Z"/>
            <path class="cls-18" d="M230.56,314.92l78.11-57.84c4.4-3.26,9.81-2.65,15.01-3.23,3.53-.39,10.94,4.08,13.8,6.2l74.1,54.87c5.29,3.92,8.44,10.17,8.44,16.74v93.32c0,3.55-1.12,11.65-2.42,14.71-4.39,10.27-13.74,18.32-25.72,18.32h-141.59c-11.98,0-21.33-8.05-25.72-18.32-1.31-3.05-2.43-11.16-2.43-14.71v-93.31c0-6.58,3.15-12.83,8.44-16.74Z"/>
            <path class="cls-85" d="M230.59,314.97l78.11-57.84c4.4-3.26,9.81-2.62,15.01-3.21,3.51-.39,10.94,4.11,13.78,6.21l74.05,54.84c5.27,3.9,8.41,10.14,8.41,16.7v93.25c0,3.52-1.11,11.67-2.41,14.7-4.38,10.27-13.71,18.33-25.68,18.33h-141.59c-11.97,0-21.3-8.06-25.68-18.33-1.29-3.03-2.41-11.18-2.41-14.7v-93.25c0-6.56,3.14-12.79,8.41-16.7Z"/>
            <path class="cls-97" d="M230.63,315.02l78.11-57.84c4.4-3.26,9.81-2.59,15-3.19,3.48-.4,10.94,4.14,13.76,6.22l74,54.8c5.26,3.89,8.39,10.11,8.39,16.65v93.19c0,3.5-1.11,11.68-2.39,14.69-4.36,10.27-13.67,18.34-25.64,18.34h-141.59c-11.97,0-21.28-8.07-25.64-18.34-1.28-3.02-2.39-11.2-2.39-14.7v-93.19c0-6.54,3.13-12.76,8.39-16.65Z"/>
            <path class="cls-104" d="M230.66,315.06l78.11-57.84c4.4-3.26,9.81-2.56,15-3.16,3.46-.4,10.95,4.17,13.74,6.24l73.95,54.77c5.24,3.88,8.36,10.08,8.36,16.6v93.13c0,3.47-1.11,11.69-2.37,14.69-4.35,10.27-13.64,18.35-25.6,18.35h-141.59c-11.96,0-21.25-8.08-25.6-18.34-1.27-3-2.38-11.22-2.38-14.69v-93.13c0-6.52,3.12-12.72,8.36-16.6Z"/>
            <path class="cls-202" d="M230.7,315.11l78.11-57.84c4.4-3.26,9.81-2.54,15-3.14,3.43-.4,10.95,4.2,13.72,6.25l73.9,54.73c5.23,3.87,8.34,10.05,8.34,16.56v93.07c0,3.45-1.1,11.7-2.36,14.68-4.34,10.27-13.61,18.36-25.56,18.36h-141.59c-11.95,0-21.22-8.09-25.55-18.35-1.26-2.98-2.36-11.23-2.36-14.68v-93.07c0-6.51,3.11-12.68,8.34-16.56Z"/>
            <path class="cls-64" d="M230.73,315.16l78.11-57.84c4.4-3.26,9.81-2.51,15-3.12,3.41-.4,10.95,4.23,13.71,6.27l73.86,54.69c5.21,3.86,8.32,10.02,8.32,16.51v93.01c0,3.42-1.1,11.72-2.34,14.67-4.32,10.27-13.57,18.36-25.51,18.36h-141.59c-11.94,0-21.19-8.1-25.51-18.36-1.25-2.96-2.34-11.25-2.34-14.68v-93.01c0-6.49,3.1-12.65,8.32-16.51Z"/>
            <path class="cls-213" d="M230.77,315.2l78.11-57.84c4.4-3.26,9.81-2.48,14.99-3.1,3.38-.41,10.95,4.26,13.69,6.28l73.81,54.66c5.2,3.85,8.29,9.99,8.29,16.46v92.95c0,3.4-1.09,11.73-2.32,14.66-4.31,10.26-13.54,18.37-25.47,18.37h-141.59c-11.93,0-21.16-8.11-25.47-18.37-1.23-2.94-2.33-11.27-2.33-14.67v-92.95c0-6.47,3.09-12.61,8.29-16.46Z"/>
            <path class="cls-117" d="M230.8,315.25l78.11-57.84c4.4-3.26,9.81-2.45,14.99-3.08,3.36-.41,10.95,4.28,13.67,6.3l73.76,54.62c5.18,3.84,8.27,9.96,8.27,16.42v92.89c0,3.38-1.09,11.74-2.31,14.66-4.3,10.26-13.5,18.38-25.43,18.38h-141.59c-11.93,0-21.13-8.12-25.43-18.38-1.22-2.92-2.31-11.28-2.31-14.66v-92.89c0-6.45,3.09-12.58,8.27-16.42Z"/>
            <path class="cls-208" d="M230.84,315.3l78.11-57.84c4.4-3.26,9.81-2.42,14.99-3.05,3.33-.41,10.96,4.31,13.65,6.31l73.71,54.58c5.17,3.83,8.25,9.94,8.25,16.37v92.83c0,3.35-1.08,11.75-2.29,14.65-4.28,10.26-13.47,18.39-25.39,18.39h-141.59c-11.92,0-21.1-8.13-25.39-18.39-1.21-2.9-2.29-11.3-2.29-14.65v-92.83c0-6.43,3.08-12.54,8.25-16.37Z"/>
            <path class="cls-159" d="M230.87,315.35l78.11-57.84c4.4-3.26,9.81-2.39,14.98-3.03,3.31-.41,10.96,4.34,13.64,6.33l73.66,54.55c5.15,3.82,8.22,9.91,8.22,16.32v92.77c0,3.33-1.08,11.77-2.27,14.64-4.27,10.26-13.44,18.4-25.35,18.4h-141.59c-11.91,0-21.07-8.14-25.35-18.4-1.2-2.88-2.28-11.32-2.28-14.65v-92.77c0-6.41,3.07-12.5,8.22-16.32Z"/>
            <path class="cls-112" d="M230.91,315.39l78.11-57.84c4.4-3.26,9.81-2.36,14.98-3.01,3.28-.41,10.96,4.37,13.62,6.34l73.61,54.51c5.14,3.81,8.2,9.88,8.2,16.27v92.71c0,3.3-1.07,11.78-2.26,14.64-4.26,10.26-13.4,18.41-25.3,18.41h-141.59c-11.9,0-21.04-8.15-25.3-18.41-1.19-2.86-2.26-11.34-2.26-14.64v-92.71c0-6.4,3.06-12.47,8.2-16.27Z"/>
            <path class="cls-236" d="M230.94,315.44l78.11-57.84c4.4-3.26,9.81-2.33,14.98-2.99,3.26-.41,10.96,4.4,13.6,6.35l73.56,54.47c5.12,3.79,8.18,9.85,8.18,16.23v92.65c0,3.28-1.07,11.79-2.24,14.63-4.24,10.26-13.37,18.42-25.26,18.42h-141.59c-11.89,0-21.02-8.16-25.26-18.41-1.17-2.84-2.24-11.35-2.24-14.63v-92.65c0-6.38,3.05-12.43,8.18-16.23Z"/>
            <path class="cls-185" d="M230.98,315.49l78.11-57.84c4.4-3.26,9.81-2.3,14.98-2.96,3.23-.42,10.96,4.43,13.58,6.37l73.51,54.44c5.11,3.78,8.15,9.82,8.15,16.18v92.59c0,3.25-1.06,11.8-2.23,14.62-4.23,10.26-13.33,18.43-25.22,18.43h-141.59c-11.89,0-20.99-8.17-25.22-18.42-1.16-2.82-2.23-11.37-2.23-14.63v-92.59c0-6.36,3.04-12.4,8.15-16.18Z"/>
            <path class="cls-212" d="M231.01,315.53l78.11-57.84c4.4-3.26,9.81-2.27,14.97-2.94,3.21-.42,10.97,4.46,13.57,6.38l73.46,54.4c5.1,3.77,8.13,9.79,8.13,16.13v92.53c0,3.23-1.06,11.82-2.21,14.61-4.22,10.26-13.3,18.43-25.18,18.43h-141.59c-11.88,0-20.96-8.17-25.18-18.43-1.15-2.8-2.21-11.39-2.21-14.62v-92.53c0-6.34,3.03-12.36,8.13-16.13Z"/>
            <path class="cls-95" d="M231.05,315.58l78.11-57.84c4.4-3.26,9.81-2.24,14.97-2.92,3.18-.42,10.97,4.49,13.55,6.4l73.41,54.36c5.08,3.76,8.1,9.76,8.1,16.09v92.47c0,3.21-1.05,11.83-2.19,14.61-4.21,10.26-13.27,18.44-25.14,18.44h-141.59c-11.87,0-20.93-8.18-25.14-18.44-1.14-2.78-2.19-11.41-2.19-14.61v-92.47c0-6.32,3.02-12.32,8.1-16.09Z"/>
            <path class="cls-227" d="M231.08,315.63l78.11-57.84c4.4-3.26,9.81-2.21,14.97-2.9,3.16-.42,10.97,4.52,13.53,6.41l73.36,54.33c5.07,3.75,8.08,9.74,8.08,16.04v92.41c0,3.18-1.05,11.84-2.18,14.6-4.19,10.26-13.23,18.45-25.09,18.45h-141.59c-11.86,0-20.9-8.19-25.09-18.45-1.13-2.76-2.18-11.42-2.18-14.6v-92.41c0-6.3,3.01-12.29,8.08-16.04Z"/>
            <path class="cls-141" d="M231.12,315.67l78.11-57.84c4.4-3.26,9.81-2.18,14.97-2.88,3.13-.42,10.97,4.55,13.51,6.43l73.31,54.29c5.05,3.74,8.06,9.71,8.06,15.99v92.35c0,3.16-1.04,11.86-2.16,14.59-4.18,10.26-13.2,18.46-25.05,18.46h-141.59c-11.85,0-20.87-8.2-25.05-18.46-1.12-2.74-2.16-11.44-2.16-14.6v-92.35c0-6.29,3.01-12.25,8.06-15.99Z"/>
            <path class="cls-36" d="M231.15,315.72l78.11-57.84c4.4-3.26,9.81-2.15,14.96-2.85,3.11-.42,10.97,4.57,13.5,6.44l73.26,54.25c5.04,3.73,8.03,9.68,8.03,15.94v92.29c0,3.13-1.04,11.87-2.14,14.59-4.17,10.26-13.16,18.47-25.01,18.47h-141.59c-11.85,0-20.84-8.21-25.01-18.47-1.1-2.72-2.14-11.46-2.14-14.59v-92.29c0-6.27,3-12.22,8.03-15.94Z"/>
            <path class="cls-195" d="M231.19,315.77l78.11-57.84c4.4-3.26,9.81-2.12,14.96-2.83,3.08-.42,10.98,4.6,13.48,6.46l73.21,54.22c5.02,3.72,8.01,9.65,8.01,15.9v92.23c0,3.11-1.03,11.88-2.13,14.58-4.15,10.26-13.13,18.48-24.97,18.48h-141.59c-11.84,0-20.81-8.22-24.97-18.48-1.09-2.7-2.13-11.47-2.13-14.58v-92.23c0-6.25,2.99-12.18,8.01-15.9Z"/>
            <path class="cls-131" d="M231.22,315.82l78.11-57.84c4.4-3.26,9.81-2.09,14.96-2.81,3.06-.43,10.98,4.63,13.46,6.47l73.16,54.18c5.01,3.71,7.99,9.62,7.99,15.85v92.17c0,3.08-1.03,11.89-2.11,14.57-4.14,10.26-13.1,18.49-24.93,18.49h-141.59c-11.83,0-20.78-8.23-24.93-18.48-1.08-2.68-2.11-11.49-2.11-14.58v-92.17c0-6.23,2.98-12.14,7.99-15.85Z"/>
            <path class="cls-99" d="M231.26,315.86l78.11-57.84c4.4-3.25,9.81-2.07,14.96-2.79,3.04-.43,10.98,4.66,13.44,6.48l73.11,54.14c4.99,3.7,7.96,9.59,7.96,15.8v92.11c0,3.06-1.02,11.91-2.09,14.57-4.13,10.26-13.06,18.5-24.88,18.5h-141.59c-11.82,0-20.76-8.24-24.88-18.49-1.07-2.66-2.09-11.51-2.09-14.57v-92.11c0-6.21,2.97-12.11,7.96-15.8Z"/>
            <path class="cls-57" d="M231.29,315.91l78.11-57.84c4.4-3.25,9.81-2.04,14.95-2.77,3.01-.43,10.98,4.69,13.42,6.5l73.06,54.11c4.98,3.69,7.94,9.56,7.94,15.76v92.05c0,3.04-1.02,11.92-2.08,14.56-4.11,10.26-13.03,18.5-24.84,18.5h-141.59c-11.81,0-20.73-8.25-24.84-18.5-1.06-2.64-2.08-11.53-2.08-14.56v-92.05c0-6.19,2.96-12.07,7.94-15.76Z"/>
            <path class="cls-240" d="M231.33,315.96l78.11-57.84c4.4-3.25,9.81-2.01,14.95-2.74,2.99-.43,10.98,4.72,13.41,6.51l73.01,54.07c4.96,3.67,7.91,9.53,7.91,15.71v91.99c0,3.01-1.01,11.93-2.06,14.55-4.1,10.25-12.99,18.51-24.8,18.51h-141.59c-11.81,0-20.7-8.26-24.8-18.51-1.05-2.62-2.06-11.54-2.06-14.55v-91.99c0-6.18,2.95-12.03,7.91-15.71Z"/>
            <path class="cls-186" d="M231.36,316l78.11-57.84c4.39-3.25,9.81-1.98,14.95-2.72,2.96-.43,10.99,4.75,13.39,6.53l72.97,54.03c4.95,3.66,7.89,9.51,7.89,15.66v91.93c0,2.99-1.01,11.95-2.04,14.54-4.09,10.25-12.96,18.52-24.76,18.52h-141.59c-11.8,0-20.67-8.27-24.76-18.52-1.04-2.6-2.04-11.56-2.04-14.55v-91.93c0-6.16,2.94-12,7.89-15.66Z"/>
            <path class="cls-145" d="M231.4,316.05l78.11-57.84c4.39-3.25,9.81-1.95,14.95-2.7,2.94-.43,10.99,4.78,13.37,6.54l72.92,54c4.93,3.65,7.87,9.48,7.87,15.62v91.87c0,2.96-1,11.96-2.03,14.54-4.08,10.25-12.93,18.53-24.72,18.53h-141.59c-11.79,0-20.64-8.28-24.72-18.53-1.03-2.58-2.03-11.58-2.03-14.54v-91.87c0-6.14,2.93-11.96,7.87-15.62Z"/>
            <path class="cls-226" d="M231.43,316.1l78.11-57.84c4.39-3.25,9.8-1.92,14.94-2.68,2.91-.43,10.99,4.81,13.35,6.56l72.87,53.96c4.92,3.64,7.84,9.45,7.84,15.57v91.81c0,2.94-1,11.97-2.01,14.53-4.06,10.25-12.89,18.54-24.67,18.54h-141.59c-11.78,0-20.61-8.28-24.67-18.54-1.01-2.56-2.01-11.59-2.01-14.53v-91.81c0-6.12,2.93-11.93,7.84-15.57Z"/>
            <path class="cls-7" d="M231.47,316.15l78.11-57.84c4.39-3.25,9.8-1.89,14.94-2.66,2.89-.43,10.99,4.83,13.34,6.57l72.82,53.92c4.9,3.63,7.82,9.42,7.82,15.52v91.75c0,2.91-.99,11.98-1.99,14.52-4.05,10.25-12.86,18.55-24.63,18.55h-141.59c-11.77,0-20.58-8.29-24.63-18.55-1-2.54-1.99-11.61-1.99-14.53v-91.75c0-6.1,2.92-11.89,7.82-15.52Z"/>
            <path class="cls-162" d="M231.5,316.19l78.11-57.84c4.39-3.25,9.8-1.86,14.94-2.63,2.86-.43,10.99,4.86,13.32,6.59l72.77,53.89c4.89,3.62,7.8,9.39,7.8,15.47v91.69c0,2.89-.98,12-1.98,14.52-4.04,10.25-12.82,18.56-24.59,18.56h-141.59c-11.77,0-20.55-8.3-24.59-18.55-.99-2.52-1.98-11.63-1.98-14.52v-91.69c0-6.08,2.91-11.85,7.8-15.47Z"/>
            <path class="cls-87" d="M231.53,316.24l78.11-57.84c4.39-3.25,9.8-1.83,14.93-2.61,2.84-.43,10.99,4.89,13.3,6.6l72.72,53.85c4.87,3.61,7.77,9.36,7.77,15.43v91.63c0,2.87-.98,12.01-1.96,14.51-4.02,10.25-12.79,18.57-24.55,18.57h-141.59c-11.76,0-20.52-8.31-24.55-18.56-.98-2.5-1.96-11.65-1.96-14.51v-91.63c0-6.06,2.9-11.82,7.77-15.43Z"/>
            <path class="cls-32" d="M231.57,316.29l78.11-57.84c4.39-3.25,9.8-1.8,14.93-2.59,2.81-.43,11,4.92,13.28,6.62l72.67,53.81c4.86,3.6,7.75,9.33,7.75,15.38v91.57c0,2.84-.97,12.02-1.94,14.5-4.01,10.25-12.76,18.57-24.51,18.57h-141.59c-11.75,0-20.49-8.32-24.51-18.57-.97-2.48-1.94-11.66-1.94-14.51v-91.57c0-6.05,2.89-11.78,7.75-15.38Z"/>
            <path class="cls-188" d="M231.6,316.33l78.11-57.84c4.39-3.25,9.8-1.77,14.93-2.57,2.79-.43,11,4.95,13.27,6.63l72.62,53.78c4.84,3.59,7.72,9.3,7.72,15.33v91.51c0,2.82-.97,12.04-1.93,14.49-4,10.25-12.72,18.58-24.46,18.58h-141.59c-11.74,0-20.46-8.33-24.46-18.58-.96-2.46-1.93-11.68-1.93-14.5v-91.51c0-6.03,2.88-11.75,7.72-15.33Z"/>
            <path class="cls-26" d="M231.64,316.38l78.11-57.84c4.39-3.25,9.8-1.74,14.93-2.54,2.76-.43,11,4.98,13.25,6.64l72.57,53.74c4.83,3.58,7.7,9.28,7.7,15.29v91.45c0,2.79-.96,12.05-1.91,14.49-3.99,10.25-12.69,18.59-24.42,18.59h-141.59c-11.74,0-20.44-8.34-24.42-18.59-.95-2.44-1.91-11.7-1.91-14.49v-91.45c0-6.01,2.87-11.71,7.7-15.29Z"/>
            <path class="cls-153" d="M231.67,316.43l78.11-57.84c4.39-3.25,9.8-1.71,14.92-2.52,2.74-.43,11,5.01,13.23,6.66l72.52,53.7c4.81,3.56,7.68,9.25,7.68,15.24v91.39c0,2.77-.96,12.06-1.89,14.48-3.97,10.25-12.65,18.6-24.38,18.6h-141.59c-11.73,0-20.41-8.35-24.38-18.6-.94-2.42-1.89-11.72-1.89-14.48v-91.39c0-5.99,2.86-11.67,7.68-15.24Z"/>
            <path class="cls-173" d="M231.71,316.48l78.11-57.84c4.39-3.25,9.8-1.68,14.92-2.5,2.71-.43,11,5.04,13.21,6.67l72.47,53.67c4.8,3.55,7.65,9.22,7.65,15.19v91.33c0,2.74-.95,12.08-1.88,14.47-3.96,10.25-12.62,18.61-24.34,18.61h-141.59c-11.72,0-20.38-8.35-24.34-18.61-.93-2.4-1.88-11.73-1.88-14.48v-91.33c0-5.97,2.85-11.64,7.65-15.19Z"/>
            <path class="cls-49" d="M231.74,316.52l78.11-57.84c4.39-3.25,9.8-1.65,14.92-2.48,2.69-.43,11.01,5.07,13.2,6.69l72.42,53.63c4.78,3.54,7.63,9.19,7.63,15.14v91.27c0,2.72-.94,12.09-1.86,14.47-3.95,10.25-12.58,18.62-24.3,18.62h-141.59c-11.71,0-20.35-8.36-24.3-18.62-.92-2.38-1.86-11.75-1.86-14.47v-91.27c0-5.95,2.84-11.6,7.63-15.14Z"/>
            <path class="cls-25" d="M231.78,316.57l78.11-57.84c4.39-3.25,9.8-1.62,14.92-2.46,2.67-.43,11.01,5.1,13.18,6.7l72.37,53.59c4.77,3.53,7.61,9.16,7.61,15.1v91.21c0,2.7-.94,12.1-1.84,14.46-3.93,10.25-12.55,18.63-24.26,18.63h-141.59c-11.7,0-20.32-8.37-24.25-18.62-.9-2.36-1.84-11.77-1.84-14.46v-91.2c0-5.94,2.84-11.57,7.61-15.1Z"/>
            <path class="cls-147" d="M231.81,316.62l78.11-57.84c4.39-3.25,9.8-1.59,14.91-2.43,2.64-.43,11.01,5.12,13.16,6.72l72.32,53.56c4.76,3.52,7.58,9.13,7.58,15.05v91.15c0,2.67-.93,12.12-1.83,14.45-3.92,10.25-12.52,18.64-24.21,18.64h-141.59c-11.7,0-20.29-8.38-24.21-18.63-.89-2.34-1.83-11.78-1.83-14.46v-91.14c0-5.92,2.83-11.53,7.58-15.05Z"/>
            <path class="cls-209" d="M231.85,316.66l78.11-57.84c4.39-3.25,9.79-1.56,14.91-2.41,2.62-.43,11.01,5.15,13.14,6.73l72.27,53.52c4.74,3.51,7.56,9.1,7.56,15v91.09c0,2.65-.93,12.13-1.81,14.45-3.91,10.25-12.48,18.64-24.17,18.64h-141.59c-11.69,0-20.26-8.39-24.17-18.64-.88-2.32-1.81-11.8-1.81-14.45v-91.08c0-5.9,2.82-11.49,7.56-15Z"/>
            <path class="cls-30" d="M231.88,316.71l78.11-57.84c4.39-3.25,9.79-1.53,14.91-2.39,2.59-.43,11.01,5.18,13.13,6.75l72.22,53.48c4.73,3.5,7.53,9.08,7.53,14.96v91.03c0,2.62-.92,12.14-1.79,14.44-3.9,10.25-12.45,18.65-24.13,18.65h-141.59c-11.68,0-20.23-8.4-24.13-18.65-.87-2.3-1.79-11.82-1.79-14.44v-91.02c0-5.88,2.81-11.46,7.53-14.96Z"/>
            <path class="cls-233" d="M231.92,316.76l78.11-57.84c4.39-3.25,9.79-1.51,14.91-2.37,2.57-.43,11.02,5.21,13.11,6.76l72.17,53.45c4.71,3.49,7.51,9.05,7.51,14.91v90.97c0,2.6-.91,12.15-1.78,14.43-3.88,10.25-12.41,18.66-24.09,18.66h-141.59c-11.67,0-20.2-8.41-24.09-18.66-.86-2.28-1.78-11.84-1.78-14.43v-90.96c0-5.86,2.8-11.42,7.51-14.91Z"/>
            <path class="cls-80" d="M231.95,316.8l78.11-57.84c4.39-3.25,9.79-1.48,14.9-2.35,2.54-.43,11.02,5.24,13.09,6.77l72.13,53.41c4.7,3.48,7.49,9.02,7.49,14.86v90.91c0,2.57-.91,12.17-1.76,14.42-3.87,10.26-12.38,18.67-24.05,18.67h-141.59c-11.66,0-20.17-8.41-24.04-18.67-.85-2.26-1.76-11.85-1.76-14.43v-90.9c0-5.84,2.79-11.38,7.49-14.86Z"/>
            <path class="cls-78" d="M231.99,316.85l78.11-57.84c4.39-3.25,9.79-1.45,14.9-2.32,2.52-.43,11.02,5.27,13.07,6.79l72.08,53.37c4.68,3.47,7.46,8.99,7.46,14.82v90.85c0,2.55-.9,12.18-1.74,14.42-3.86,10.26-12.35,18.68-24,18.68h-141.59c-11.66,0-20.14-8.42-24-18.68-.84-2.24-1.74-11.87-1.74-14.42v-90.84c0-5.83,2.78-11.35,7.46-14.82Z"/>
            <path class="cls-13" d="M232.02,316.9l78.11-57.84c4.39-3.25,9.79-1.42,14.9-2.3,2.49-.43,11.02,5.3,13.05,6.8l72.03,53.34c4.67,3.46,7.44,8.96,7.44,14.77v90.79c0,2.53-.9,12.19-1.73,14.41-3.85,10.26-12.31,18.69-23.96,18.69h-141.59c-11.65,0-20.11-8.43-23.96-18.69-.83-2.22-1.73-11.89-1.73-14.41v-90.78c0-5.81,2.77-11.31,7.44-14.77Z"/>
            <path class="cls-224" d="M232.06,316.95l78.11-57.84c4.39-3.25,9.79-1.39,14.89-2.28,2.47-.43,11.02,5.33,13.04,6.82l71.98,53.3c4.65,3.44,7.42,8.93,7.42,14.72v90.72c0,2.5-.89,12.21-1.71,14.4-3.83,10.26-12.28,18.7-23.92,18.7h-141.59c-11.64,0-20.09-8.44-23.92-18.69-.82-2.2-1.71-11.9-1.71-14.41v-90.72c0-5.79,2.76-11.28,7.42-14.72Z"/>
            <path class="cls-182" d="M232.09,316.99l78.11-57.84c4.39-3.25,9.79-1.36,14.89-2.26,2.44-.43,11.03,5.36,13.02,6.83l71.93,53.26c4.64,3.43,7.39,8.9,7.39,14.67v90.66c0,2.48-.88,12.22-1.69,14.4-3.82,10.26-12.24,18.71-23.88,18.71h-141.59c-11.63,0-20.06-8.45-23.88-18.7-.81-2.17-1.69-11.92-1.69-14.4v-90.66c0-5.77,2.76-11.24,7.39-14.67Z"/>
            <path class="cls-120" d="M232.13,317.04l78.11-57.84c4.39-3.25,10.02-4.02,14.89-2.23,2.46,0,11.03,5.38,13,6.85l71.88,53.23c4.62,3.42,7.37,8.87,7.37,14.63v90.6c0,2.45-.88,12.23-1.68,14.39-3.81,10.26-12.21,18.71-23.84,18.71h-141.59c-11.62,0-20.03-8.46-23.83-18.71-.8-2.15-1.68-11.94-1.68-14.39v-90.6c0-5.75,2.75-11.2,7.37-14.63Z"/>
            <path class="cls-180" d="M232.16,317.09l78.11-57.84c4.39-3.25,10.02-4.01,14.89-2.21,2.43,0,11.03,5.41,12.98,6.86l71.83,53.19c4.61,3.41,7.35,8.85,7.35,14.58v90.54c0,2.43-.87,12.25-1.66,14.38-3.8,10.26-12.18,18.72-23.79,18.72h-141.59c-11.62,0-20-8.46-23.79-18.72-.79-2.13-1.66-11.96-1.66-14.39v-90.54c0-5.73,2.74-11.17,7.35-14.58Z"/>
            <path class="cls-219" d="M232.2,317.13l78.11-57.84c4.38-3.25,10.03-4,14.88-2.19,2.41,0,11.03,5.44,12.97,6.88l71.78,53.15c4.59,3.4,7.32,8.82,7.32,14.53v90.48c0,2.4-.86,12.26-1.64,14.37-3.78,10.26-12.14,18.73-23.75,18.73h-141.59c-11.61,0-19.97-8.47-23.75-18.73-.78-2.11-1.64-11.97-1.64-14.38v-90.48c0-5.72,2.73-11.13,7.32-14.53Z"/>
            <path class="cls-189" d="M232.23,317.18l78.11-57.84c4.38-3.25,10.03-4,14.88-2.17,2.38,0,11.03,5.47,12.95,6.89l71.73,53.12c4.58,3.39,7.3,8.79,7.3,14.49v90.42c0,2.38-.86,12.28-1.63,14.37-3.77,10.26-12.11,18.74-23.71,18.74h-141.59c-11.6,0-19.94-8.48-23.71-18.74-.77-2.09-1.63-11.99-1.63-14.37v-90.42c0-5.7,2.72-11.1,7.3-14.49Z"/>
            <path class="cls-82" d="M232.27,317.23l78.11-57.84c4.38-3.25,10.03-3.99,14.88-2.15,2.36,0,11.03,5.5,12.93,6.9l71.68,53.08c4.56,3.38,7.27,8.76,7.27,14.44v90.36c0,2.36-.85,12.29-1.61,14.36-3.76,10.26-12.07,18.75-23.67,18.75h-141.59c-11.59,0-19.91-8.49-23.67-18.75-.76-2.07-1.61-12.01-1.61-14.36v-90.36c0-5.68,2.71-11.06,7.27-14.44Z"/>
            <path class="cls-181" d="M232.3,317.28l78.11-57.84c4.38-3.25,10.03-3.98,14.88-2.12,2.34,0,11.04,5.53,12.91,6.92l71.63,53.04c4.55,3.37,7.25,8.73,7.25,14.39v90.3c0,2.33-.85,12.3-1.59,14.35-3.74,10.26-12.04,18.76-23.63,18.76h-141.59c-11.58,0-19.88-8.5-23.62-18.76-.75-2.05-1.59-12.03-1.59-14.36v-90.3c0-5.66,2.7-11.02,7.25-14.39Z"/>
            <path class="cls-231" d="M232.34,317.32l78.11-57.84c4.38-3.25,10.04-3.97,14.87-2.1,2.31,0,11.04,5.56,12.9,6.93l71.58,53.01c4.53,3.36,7.23,8.7,7.23,14.34v90.24c0,2.31-.84,12.32-1.58,14.35-3.73,10.26-12.01,18.77-23.58,18.77h-141.59c-11.58,0-19.85-8.5-23.58-18.76-.74-2.03-1.58-12.04-1.58-14.35v-90.24c0-5.64,2.69-10.99,7.23-14.34Z"/>
            <path class="cls-206" d="M232.37,317.37l78.11-57.84c4.38-3.25,10.04-3.96,14.87-2.08,2.29,0,11.04,5.59,12.88,6.95l71.53,52.97c4.52,3.35,7.2,8.67,7.2,14.3v90.18c0,2.28-.83,12.33-1.56,14.34-3.72,10.26-11.97,18.78-23.54,18.78h-141.59c-11.57,0-19.82-8.51-23.54-18.77-.73-2.01-1.56-12.06-1.56-14.34v-90.18c0-5.62,2.68-10.95,7.2-14.3Z"/>
            <path class="cls-40" d="M232.41,317.42l78.11-57.84c4.38-3.24,10.04-3.96,14.87-2.06,2.26,0,11.04,5.62,12.86,6.96l71.48,52.93c4.5,3.33,7.18,8.65,7.18,14.25v90.12c0,2.26-.83,12.34-1.54,14.33-3.71,10.26-11.94,18.78-23.5,18.78h-141.59c-11.56,0-19.79-8.52-23.5-18.78-.72-1.99-1.54-12.08-1.54-14.34v-90.12c0-5.6,2.68-10.91,7.18-14.25Z"/>
            <path class="cls-105" d="M232.44,317.46l78.11-57.84c4.38-3.24,10.04-3.95,14.87-2.04,2.24,0,11.04,5.65,12.84,6.98l71.43,52.9c4.49,3.32,7.16,8.62,7.16,14.2v90.06c0,2.23-.82,12.36-1.53,14.32-3.69,10.26-11.9,18.79-23.46,18.79h-141.59c-11.55,0-19.76-8.53-23.46-18.79-.71-1.97-1.53-12.09-1.53-14.33v-90.06c0-5.59,2.67-10.88,7.16-14.2Z"/>
            <path class="cls-214" d="M232.48,317.51l78.11-57.84c4.38-3.24,10.05-3.94,14.86-2.01,2.21,0,11.05,5.67,12.83,6.99l71.38,52.86c4.47,3.31,7.13,8.59,7.13,14.16v90c0,2.21-.81,12.37-1.51,14.32-3.68,10.26-11.87,18.8-23.42,18.8h-141.59c-11.54,0-19.73-8.54-23.42-18.8-.7-1.95-1.51-12.11-1.51-14.32v-90c0-5.57,2.66-10.84,7.13-14.16Z"/>
            <path class="cls-169" d="M232.51,317.56l78.11-57.84c4.38-3.24,10.05-3.93,14.86-1.99,2.19,0,11.05,5.7,12.81,7.01l71.33,52.82c4.46,3.3,7.11,8.56,7.11,14.11v89.94c0,2.19-.81,12.38-1.49,14.31-3.67,10.27-11.84,18.81-23.37,18.81h-141.59c-11.54,0-19.7-8.54-23.37-18.81-.69-1.93-1.5-12.13-1.5-14.31v-89.94c0-5.55,2.65-10.81,7.11-14.11Z"/>
            <path class="cls-79" d="M232.55,317.6l78.11-57.84c4.38-3.24,10.05-3.92,14.86-1.97,2.17,0,11.05,5.73,12.79,7.02l71.28,52.79c4.44,3.29,7.08,8.53,7.08,14.06v89.88c0,2.16-.8,12.4-1.48,14.3-3.66,10.27-11.8,18.82-23.33,18.82h-141.59c-11.53,0-19.67-8.55-23.33-18.82-.68-1.91-1.48-12.15-1.48-14.31v-89.88c0-5.53,2.64-10.77,7.08-14.06Z"/>
            <path class="cls-19" d="M232.58,317.65l78.11-57.84c4.38-3.24,10.05-3.92,14.85-1.95,2.14,0,11.05,5.76,12.77,7.04l71.24,52.75c4.43,3.28,7.06,8.5,7.06,14.01v89.82c0,2.14-.79,12.41-1.46,14.3-3.64,10.27-11.77,18.83-23.29,18.83h-141.59c-11.52,0-19.64-8.56-23.29-18.83-.67-1.89-1.46-12.16-1.46-14.3v-89.82c0-5.51,2.63-10.73,7.06-14.01Z"/>
            <path class="cls-9" d="M232.62,317.7l78.11-57.84c4.38-3.24,10.06-3.91,14.85-1.92,2.12,0,11.05,5.79,12.75,7.05l71.19,52.72c4.41,3.27,7.04,8.47,7.04,13.97v89.76c0,2.11-.78,12.42-1.44,14.29-3.63,10.27-11.73,18.84-23.25,18.84h-141.59c-11.51,0-19.61-8.57-23.25-18.83-.66-1.87-1.45-12.18-1.45-14.29v-89.76c0-5.49,2.62-10.7,7.04-13.97Z"/>
            <path class="cls-167" d="M232.65,317.75l78.11-57.84c4.38-3.24,10.06-3.9,14.85-1.9,2.09,0,11.06,5.82,12.74,7.06l71.14,52.68c4.4,3.26,7.01,8.44,7.01,13.92v89.7c0,2.09-.78,12.44-1.43,14.28-3.62,10.27-11.7,18.85-23.21,18.85h-141.59c-11.51,0-19.58-8.58-23.21-18.84-.65-1.85-1.43-12.2-1.43-14.29v-89.7c0-5.48,2.61-10.66,7.01-13.92Z"/>
            <path class="cls-6" d="M232.69,317.79l78.11-57.84c4.38-3.24,10.06-3.89,14.85-1.88,2.07,0,11.06,5.85,12.72,7.08l71.09,52.64c4.39,3.25,6.99,8.42,6.99,13.87v89.64c0,2.06-.77,12.45-1.41,14.28-3.61,10.27-11.67,18.85-23.16,18.85h-141.59c-11.5,0-19.56-8.58-23.16-18.85-.64-1.82-1.41-12.21-1.41-14.28v-89.64c0-5.46,2.6-10.63,6.99-13.87Z"/>
            <path class="cls-143" d="M232.72,317.84l78.11-57.84c4.38-3.24,10.06-3.88,14.84-1.86,2.04,0,11.06,5.88,12.7,7.09l71.04,52.61c4.37,3.24,6.97,8.39,6.97,13.83v89.58c0,2.04-.76,12.46-1.39,14.27-3.6,10.27-11.63,18.86-23.12,18.86h-141.59c-11.49,0-19.53-8.59-23.12-18.86-.63-1.8-1.4-12.23-1.4-14.27v-89.58c0-5.44,2.59-10.59,6.97-13.83Z"/>
            <path class="cls-89" d="M232.75,317.89l78.11-57.84c4.38-3.24,10.07-3.88,14.84-1.84,2.02,0,11.06,5.91,12.68,7.11l70.99,52.57c4.36,3.23,6.94,8.36,6.94,13.78v89.52c0,2.02-.76,12.48-1.38,14.26-3.58,10.27-11.6,18.87-23.08,18.87h-141.59c-11.48,0-19.5-8.6-23.08-18.87-.62-1.78-1.38-12.25-1.38-14.26v-89.52c0-5.42,2.59-10.55,6.94-13.78Z"/>
            <path class="cls-15" d="M232.79,317.93l78.11-57.84c4.38-3.24,10.07-3.87,14.84-1.81,1.99,0,11.06,5.94,12.67,7.12l70.94,52.53c4.34,3.21,6.92,8.33,6.92,13.73v89.46c0,1.99-.75,12.49-1.36,14.25-3.57,10.27-11.56,18.88-23.04,18.88h-141.59c-11.47,0-19.47-8.61-23.04-18.88-.61-1.76-1.36-12.27-1.36-14.26v-89.46c0-5.4,2.58-10.52,6.92-13.73Z"/>
            <path class="cls-179" d="M232.82,317.98l78.11-57.84c4.38-3.24,10.07-3.86,14.84-1.79,1.97,0,11.07,5.96,12.65,7.14l70.89,52.5c4.33,3.2,6.89,8.3,6.89,13.69v89.4c0,1.97-.74,12.51-1.34,14.25-3.56,10.28-11.53,18.89-23,18.89h-141.59c-11.47,0-19.44-8.61-23-18.89-.6-1.74-1.35-12.28-1.35-14.25v-89.4c0-5.38,2.57-10.48,6.89-13.69Z"/>
            <path class="cls-45" d="M232.86,318.03l78.11-57.84c4.38-3.24,10.08-3.85,14.83-1.77,1.95,0,11.07,5.99,12.63,7.15l70.84,52.46c4.31,3.19,6.87,8.27,6.87,13.64v89.34c0,1.94-.73,12.52-1.33,14.24-3.55,10.28-11.5,18.9-22.95,18.9h-141.59c-11.46,0-19.41-8.62-22.95-18.9-.59-1.72-1.33-12.3-1.33-14.24v-89.34c0-5.37,2.56-10.45,6.87-13.64Z"/>
            <path class="cls-84" d="M232.89,318.08l78.11-57.84c4.38-3.24,10.08-3.85,14.83-1.75,1.92,0,11.07,6.02,12.61,7.17l70.79,52.42c4.3,3.18,6.85,8.24,6.85,13.59v89.28c0,1.92-.73,12.53-1.31,14.23-3.53,10.28-11.46,18.91-22.91,18.91h-141.59c-11.45,0-19.38-8.63-22.91-18.9-.58-1.7-1.31-12.32-1.31-14.24v-89.28c0-5.35,2.55-10.41,6.85-13.59Z"/>
            <path class="cls-58" d="M232.93,318.12l78.11-57.84c4.38-3.24,10.08-3.84,14.83-1.73,1.9,0,11.07,6.05,12.6,7.18l70.74,52.39c4.28,3.17,6.82,8.22,6.82,13.54v89.22c0,1.89-.72,12.55-1.3,14.23-3.52,10.28-11.43,18.91-22.87,18.91h-141.59c-11.44,0-19.35-8.64-22.87-18.91-.58-1.68-1.3-12.33-1.3-14.23v-89.22c0-5.33,2.54-10.37,6.82-13.54Z"/>
            <path class="cls-56" d="M232.96,318.17l78.11-57.84c4.38-3.24,10.08-3.83,14.83-1.7,1.87,0,11.07,6.08,12.58,7.19l70.69,52.35c4.27,3.16,6.8,8.19,6.8,13.5v89.16c0,1.87-.71,12.56-1.28,14.22-3.51,10.28-11.39,18.92-22.83,18.92h-141.59c-11.43,0-19.32-8.64-22.83-18.92-.57-1.66-1.28-12.35-1.28-14.22v-89.16c0-5.31,2.53-10.34,6.8-13.5Z"/>
            <path class="cls-114" d="M233,318.22l78.11-57.84c4.38-3.24,10.09-3.82,14.82-1.68,1.85,0,11.08,6.11,12.56,7.21l70.64,52.31c4.25,3.15,6.78,8.16,6.78,13.45v89.1c0,1.85-.71,12.58-1.26,14.21-3.5,10.28-11.36,18.93-22.79,18.93h-141.59c-11.43,0-19.29-8.65-22.79-18.93-.56-1.64-1.26-12.37-1.26-14.22v-89.1c0-5.29,2.52-10.3,6.78-13.45Z"/>
            <path class="cls-34" d="M233.03,318.26l78.11-57.84c4.37-3.24,10.09-3.81,14.82-1.66,1.82,0,11.08,6.14,12.54,7.22l70.59,52.28c4.24,3.14,6.75,8.13,6.75,13.4v89.04c0,1.82-.7,12.59-1.25,14.2-3.48,10.28-11.33,18.94-22.74,18.94h-141.59c-11.42,0-19.26-8.66-22.74-18.94-.55-1.62-1.25-12.39-1.25-14.21v-89.04c0-5.27,2.51-10.26,6.75-13.4Z"/>
            <path class="cls-22" d="M233.07,318.31l78.11-57.84c4.37-3.24,10.09-3.81,14.82-1.64,1.8,0,11.08,6.17,12.53,7.24l70.54,52.24c4.22,3.13,6.73,8.1,6.73,13.36v88.98c0,1.8-.69,12.6-1.23,14.2-3.47,10.29-11.29,18.95-22.7,18.95h-141.59c-11.41,0-19.23-8.66-22.7-18.95-.54-1.6-1.23-12.4-1.23-14.2v-88.98c0-5.25,2.51-10.23,6.73-13.36Z"/>
            <path class="cls-28" d="M233.1,318.36l78.11-57.84c4.37-3.24,10.09-3.8,14.82-1.62,1.78,0,11.08,6.2,12.51,7.25l70.49,52.2c4.21,3.12,6.7,8.07,6.7,13.31v88.92c0,1.77-.68,12.62-1.21,14.19-3.46,10.29-11.26,18.96-22.66,18.96h-141.59c-11.4,0-19.2-8.67-22.66-18.96-.53-1.57-1.21-12.42-1.21-14.19v-88.92c0-5.24,2.5-10.19,6.7-13.31Z"/>
            <path class="cls-118" d="M233.14,318.41l78.11-57.84c4.37-3.24,10.1-3.79,14.81-1.59,1.75,0,11.08,6.22,12.49,7.27l70.44,52.17c4.19,3.11,6.68,8.04,6.68,13.26v88.86c0,1.75-.68,12.63-1.2,14.18-3.45,10.29-11.22,18.97-22.62,18.97h-141.59c-11.39,0-19.17-8.68-22.62-18.97-.52-1.55-1.2-12.44-1.2-14.19v-88.86c0-5.22,2.49-10.16,6.68-13.26Z"/>
            <path class="cls-144" d="M233.17,318.45l78.11-57.84c4.37-3.24,10.1-3.78,14.81-1.57,1.73,0,11.08,6.25,12.47,7.28l70.39,52.13c4.18,3.09,6.66,8.01,6.66,13.21v88.8c0,1.72-.67,12.64-1.18,14.18-3.44,10.29-11.19,18.98-22.58,18.98h-141.59c-11.39,0-19.14-8.69-22.58-18.98-.51-1.53-1.18-12.46-1.18-14.18v-88.79c0-5.2,2.48-10.12,6.66-13.21Z"/>
            <path class="cls-129" d="M233.21,318.5l78.11-57.84c4.37-3.24,10.1-3.77,14.81-1.55,1.7,0,11.09,6.28,12.45,7.3l70.35,52.09c4.16,3.08,6.63,7.99,6.63,13.17v88.74c0,1.7-.66,12.66-1.16,14.17-3.42,10.29-11.16,18.98-22.53,18.98h-141.59c-11.38,0-19.11-8.69-22.53-18.98-.5-1.51-1.16-12.47-1.16-14.17v-88.73c0-5.18,2.47-10.08,6.63-13.17Z"/>
            <path class="cls-11" d="M233.24,318.55l78.11-57.84c4.37-3.24,10.1-3.77,14.8-1.53,1.68,0,11.09,6.31,12.44,7.31l70.3,52.06c4.15,3.07,6.61,7.96,6.61,13.12v88.68c0,1.68-.65,12.67-1.15,14.16-3.41,10.29-11.12,18.99-22.49,18.99h-141.59c-11.37,0-19.08-8.7-22.49-18.99-.49-1.49-1.15-12.49-1.15-14.17v-88.67c0-5.16,2.46-10.05,6.61-13.12Z"/>
            <path class="cls-200" d="M233.28,318.59l78.11-57.84c4.37-3.24,10.11-3.76,14.8-1.5,1.65,0,11.09,6.34,12.42,7.32l70.25,52.02c4.13,3.06,6.59,7.93,6.59,13.07v88.62c0,1.65-.64,12.69-1.13,14.16-3.4,10.3-11.09,19-22.45,19h-141.59c-11.36,0-19.05-8.71-22.45-19-.49-1.47-1.13-12.51-1.13-14.16v-88.61c0-5.14,2.45-10.01,6.59-13.07Z"/>
            <path class="cls-170" d="M233.31,318.64l78.11-57.84c4.37-3.24,10.11-3.75,14.8-1.48,1.63,0,11.09,6.37,12.4,7.34l70.2,51.98c4.12,3.05,6.56,7.9,6.56,13.03v88.56c0,1.63-.64,12.7-1.11,14.15-3.39,10.3-11.05,19.01-22.41,19.01h-141.59c-11.35,0-19.02-8.71-22.41-19.01-.48-1.45-1.11-12.52-1.11-14.15v-88.55c0-5.13,2.44-9.98,6.56-13.03Z"/>
            <path class="cls-90" d="M233.35,318.69l78.11-57.84c4.37-3.24,10.11-3.74,14.8-1.46,1.61,0,11.09,6.4,12.38,7.35l70.15,51.95c4.1,3.04,6.54,7.87,6.54,12.98v88.5c0,1.6-.63,12.71-1.1,14.14-3.37,10.3-11.02,19.02-22.37,19.02h-141.59c-11.35,0-18.99-8.72-22.37-19.02-.47-1.43-1.1-12.54-1.1-14.14v-88.49c0-5.11,2.43-9.94,6.54-12.98Z"/>
            <path class="cls-20" d="M233.38,318.73l78.11-57.84c4.37-3.24,10.11-3.73,14.79-1.44,1.58,0,11.1,6.43,12.37,7.37l70.1,51.91c4.09,3.03,6.52,7.84,6.52,12.93v88.44c0,1.58-.62,12.73-1.08,14.13-3.36,10.3-10.99,19.03-22.32,19.03h-141.59c-11.34,0-18.96-8.73-22.32-19.03-.46-1.41-1.08-12.56-1.08-14.14v-88.43c0-5.09,2.43-9.9,6.52-12.93Z"/>
            <path class="cls-210" d="M233.42,318.78l78.11-57.84c4.37-3.24,10.12-3.73,14.79-1.42,1.56,0,11.1,6.46,12.35,7.38l70.05,51.87c4.07,3.02,6.49,7.81,6.49,12.89v88.38c0,1.55-.61,12.74-1.06,14.13-3.35,10.3-10.95,19.04-22.28,19.04h-141.59c-11.33,0-18.93-8.73-22.28-19.04-.45-1.38-1.06-12.58-1.06-14.13v-88.37c0-5.07,2.42-9.87,6.49-12.89Z"/>
            <path class="cls-207" d="M233.45,318.83l78.11-57.84c4.37-3.24,10.12-3.72,14.79-1.39,1.53,0,11.1,6.49,12.33,7.4l70,51.84c4.06,3.01,6.47,7.79,6.47,12.84v88.32c0,1.53-.6,12.76-1.05,14.12-3.34,10.3-10.92,19.05-22.24,19.05h-141.59c-11.32,0-18.9-8.74-22.24-19.05-.44-1.36-1.05-12.59-1.05-14.12v-88.31c0-5.05,2.41-9.83,6.47-12.84Z"/>
            <path class="cls-53" d="M233.49,318.88l78.11-57.84c4.37-3.24,10.12-3.71,14.79-1.37,1.51,0,11.1,6.51,12.31,7.41l69.95,51.8c4.05,3,6.44,7.76,6.44,12.79v88.26c0,1.51-.6,12.77-1.03,14.11-3.33,10.31-10.88,19.05-22.2,19.05h-141.59c-11.31,0-18.87-8.75-22.2-19.05-.43-1.34-1.03-12.61-1.03-14.12v-88.25c0-5.03,2.4-9.8,6.44-12.79Z"/>
            <path class="cls-52" d="M233.52,318.92l78.11-57.84c4.37-3.24,10.12-3.7,14.78-1.35,1.48,0,11.1,6.54,12.3,7.43l69.9,51.76c4.03,2.98,6.42,7.73,6.42,12.74v88.19c0,1.48-.59,12.78-1.01,14.11-3.31,10.31-10.85,19.06-22.16,19.06h-141.59c-11.31,0-18.84-8.75-22.16-19.06-.42-1.32-1.01-12.63-1.01-14.11v-88.19c0-5.02,2.39-9.76,6.42-12.74Z"/>
            <path class="cls-137" d="M233.56,318.97l78.11-57.84c4.37-3.23,10.13-3.69,14.78-1.33,1.46,0,11.11,6.57,12.28,7.44l69.85,51.73c4.02,2.97,6.4,7.7,6.4,12.7v88.13c0,1.46-.58,12.8-1,14.1-3.3,10.31-10.82,19.07-22.11,19.07h-141.59c-11.3,0-18.81-8.76-22.11-19.07-.42-1.3-1-12.64-1-14.1v-88.13c0-5,2.38-9.72,6.4-12.7Z"/>
            <path class="cls-205" d="M233.59,319.02l78.11-57.84c4.37-3.23,10.13-3.69,14.78-1.31,1.44,0,11.11,6.6,12.26,7.45l69.8,51.69c4,2.96,6.37,7.67,6.37,12.65v88.07c0,1.43-.35,12.9-.98,14.09-1.43,10.73-10.78,19.08-22.07,19.08h-141.59c-11.29,0-20.64-8.35-22.07-19.08-.63-1.19-.98-12.66-.98-14.1v-88.07c0-4.98,2.37-9.69,6.37-12.65Z"/>
            <path class="cls-61" d="M233.63,319.06l78.11-57.84c4.37-3.23,10.13-3.68,14.78-1.28,1.41,0,11.11,6.63,12.24,7.47l69.75,51.65c3.99,2.95,6.35,7.64,6.35,12.6v88.01c0,1.41-.35,12.92-.96,14.08-1.41,10.73-10.75,19.09-22.03,19.09h-141.59c-11.28,0-20.62-8.36-22.03-19.09-.62-1.17-.96-12.68-.96-14.09v-88.01c0-4.96,2.36-9.65,6.35-12.6Z"/>
            <path class="cls-4" d="M233.66,319.11l78.11-57.84c4.37-3.23,10.13-3.67,14.77-1.26,1.39,0,11.11,6.66,12.23,7.48l69.7,51.62c3.97,2.94,6.33,7.61,6.33,12.56v87.95c0,1.38-.34,12.93-.95,14.08-1.38,10.73-10.71,19.1-21.99,19.1h-141.59c-11.27,0-20.6-8.37-21.99-19.1-.6-1.15-.95-12.7-.95-14.08v-87.95c0-4.94,2.35-9.61,6.33-12.56Z"/>
            <path class="cls-151" d="M233.7,319.16l78.11-57.84c4.37-3.23,10.14-3.66,14.77-1.24,1.36,0,11.11,6.69,12.21,7.5l69.65,51.58c3.96,2.93,6.3,7.58,6.3,12.51v87.89c0,1.36-.34,12.94-.93,14.07-1.36,10.73-10.68,19.11-21.95,19.11h-141.59c-11.27,0-20.59-8.37-21.95-19.11-.59-1.13-.93-12.71-.93-14.07v-87.89c0-4.92,2.34-9.58,6.3-12.51Z"/>
            <path class="cls-8" d="M233.73,319.21l78.11-57.84c4.37-3.23,10.14-3.65,14.77-1.22,1.34,0,11.12,6.72,12.19,7.51l69.6,51.54c3.94,2.92,6.28,7.56,6.28,12.46v87.83c0,1.34-.33,12.96-.91,14.06-1.34,10.74-10.65,19.12-21.9,19.12h-141.59c-11.26,0-20.57-8.38-21.9-19.12-.58-1.11-.91-12.73-.91-14.07v-87.83c0-4.91,2.34-9.54,6.28-12.46Z"/>
            <path class="cls-201" d="M233.77,319.25l78.11-57.84c4.37-3.23,10.14-3.65,14.76-1.19,1.31,0,11.12,6.75,12.17,7.53l69.55,51.51c3.93,2.91,6.25,7.53,6.25,12.41v87.77c0,1.31-.32,12.97-.9,14.06-1.31,10.74-10.61,19.12-21.86,19.12h-141.59c-11.25,0-20.55-8.39-21.86-19.12-.57-1.09-.9-12.75-.9-14.06v-87.77c0-4.89,2.33-9.51,6.25-12.41Z"/>
            <path class="cls-155" d="M233.8,319.3l78.11-57.84c4.37-3.23,10.14-3.64,14.76-1.17,1.29,0,11.12,6.77,12.16,7.54l69.51,51.47c3.91,2.9,6.23,7.5,6.23,12.37v87.71c0,1.29-.32,12.98-.88,14.05-1.29,10.74-10.58,19.13-21.82,19.13h-141.59c-11.24,0-20.53-8.39-21.82-19.13-.56-1.07-.88-12.77-.88-14.05v-87.71c0-4.87,2.32-9.47,6.23-12.37Z"/>
            <path class="cls-211" d="M233.84,319.35l78.11-57.84c4.37-3.23,10.15-3.63,14.76-1.15,1.27,0,11.12,6.8,12.14,7.56l69.46,51.43c3.9,2.89,6.21,7.47,6.21,12.32v87.65c0,1.26-.31,13-.86,14.04-1.26,10.74-10.54,19.14-21.78,19.14h-141.59c-11.24,0-20.52-8.4-21.78-19.14-.55-1.05-.86-12.78-.86-14.05v-87.65c0-4.85,2.31-9.43,6.21-12.32Z"/>
            <path class="cls-29" d="M233.87,319.39l78.11-57.84c4.36-3.23,10.15-3.62,14.76-1.13,1.24,0,11.12,6.83,12.12,7.57l69.41,51.4c3.88,2.88,6.18,7.44,6.18,12.27v87.59c0,1.24-.31,13.01-.85,14.03-1.24,10.74-10.51,19.15-21.74,19.15h-141.59c-11.23,0-20.5-8.41-21.74-19.15-.54-1.03-.85-12.8-.85-14.04v-87.59c0-4.83,2.3-9.4,6.18-12.27Z"/>
            <path class="cls-150" d="M233.91,319.44l78.11-57.84c4.36-3.23,10.15-3.61,14.75-1.11,1.22,0,11.12,6.86,12.1,7.59l69.36,51.36c3.87,2.86,6.16,7.41,6.16,12.23v87.53c0,1.21-.3,13.02-.83,14.03-1.21,10.74-10.48,19.16-21.7,19.16h-141.59c-11.22,0-20.48-8.42-21.69-19.16-.53-1.01-.83-12.82-.83-14.03v-87.53c0-4.81,2.29-9.36,6.16-12.23Z"/>
            <path class="cls-225" d="M233.94,319.49l78.11-57.84c4.36-3.23,10.15-3.61,14.75-1.08,1.19,0,11.13,6.89,12.08,7.6l69.31,51.32c3.85,2.85,6.14,7.38,6.14,12.18v87.47c0,1.19-.29,13.03-.81,14.02-1.19,10.75-10.44,19.17-21.65,19.17h-141.59c-11.21,0-20.46-8.42-21.65-19.17-.52-.99-.81-12.83-.81-14.02v-87.47c0-4.79,2.28-9.33,6.14-12.18Z"/>
            <path class="cls-74" d="M233.97,319.53l78.11-57.84c4.36-3.23,10.16-3.6,14.75-1.06,1.17,0,11.13,6.92,12.07,7.61l69.26,51.29c3.84,2.84,6.11,7.36,6.11,12.13v87.41c0,1.17-.29,13.05-.8,14.01-1.17,10.75-10.41,19.18-21.61,19.18h-141.59c-11.2,0-20.45-8.43-21.61-19.18-.51-.97-.8-12.85-.8-14.02v-87.41c0-4.78,2.27-9.29,6.11-12.13Z"/>
            <path class="cls-183" d="M234.01,319.58l78.11-57.84c4.36-3.23,10.16-3.59,14.75-1.04,1.14,0,11.13,6.95,12.05,7.63l69.21,51.25c3.82,2.83,6.09,7.33,6.09,12.08v87.35c0,1.14-.28,13.06-.78,14.01-1.14,10.75-10.37,19.19-21.57,19.19h-141.59c-11.2,0-20.43-8.44-21.57-19.19-.5-.95-.78-12.87-.78-14.01v-87.35c0-4.76,2.26-9.25,6.09-12.08Z"/>
            <path class="cls-215" d="M234.04,319.63l78.11-57.84c4.36-3.23,10.16-3.58,14.74-1.02,1.12,0,11.13,6.98,12.03,7.64l69.16,51.21c3.81,2.82,6.06,7.3,6.06,12.04v87.29c0,1.12-.28,13.07-.76,14-1.12,10.75-10.34,19.19-21.53,19.19h-141.59c-11.19,0-20.41-8.44-21.53-19.19-.49-.93-.76-12.89-.76-14v-87.29c0-4.74,2.26-9.22,6.06-12.04Z"/>
            <path class="cls-198" d="M234.08,319.68l78.11-57.84c4.36-3.23,10.16-3.57,14.74-1,1.09,0,11.13,7.01,12.01,7.66l69.11,51.18c3.79,2.81,6.04,7.27,6.04,11.99v87.23c0,1.09-.27,13.09-.75,13.99-1.09,10.75-10.31,19.2-21.49,19.2h-141.59c-11.18,0-20.39-8.45-21.48-19.2-.48-.91-.75-12.9-.75-14v-87.23c0-4.72,2.25-9.18,6.04-11.99Z"/>
            <path class="cls-146" d="M234.11,319.72l78.11-57.84c4.36-3.23,10.17-3.57,14.74-.97,1.07,0,11.14,7.04,12,7.67l69.06,51.14c3.78,2.8,6.02,7.24,6.02,11.94v87.17c0,1.07-.26,13.1-.73,13.99-1.07,10.75-10.27,19.21-21.44,19.21h-141.59c-11.17,0-20.37-8.46-21.44-19.21-.47-.89-.73-12.92-.73-13.99v-87.17c0-4.7,2.24-9.14,6.02-11.94Z"/>
            <path class="cls-187" d="M234.15,319.77l78.11-57.84c4.36-3.23,10.17-3.56,14.74-.95,1.05,0,11.14,7.06,11.98,7.69l69.01,51.1c3.76,2.79,5.99,7.21,5.99,11.9v87.11c0,1.04-.26,13.11-.71,13.98-1.04,10.75-10.24,19.22-21.4,19.22h-141.59c-11.16,0-20.36-8.47-21.4-19.22-.46-.87-.71-12.94-.71-13.98v-87.11c0-4.68,2.23-9.11,5.99-11.9Z"/>
            <path class="cls-165" d="M234.18,319.82l78.11-57.84c4.36-3.23,10.17-3.55,14.73-.93,1.02,0,11.14,7.09,11.96,7.7l68.96,51.07c3.75,2.78,5.97,7.18,5.97,11.85v87.05c0,1.02-.25,13.13-.7,13.97-1.02,10.76-10.2,19.23-21.36,19.23h-141.59c-11.16,0-20.34-8.47-21.36-19.23-.45-.85-.7-12.95-.7-13.97v-87.05c0-4.67,2.22-9.07,5.97-11.85Z"/>
            <path class="cls-72" d="M234.22,319.86l78.11-57.84c4.36-3.23,10.17-3.54,14.73-.91,1,0,11.14,7.12,11.94,7.72l68.91,51.03c3.73,2.77,5.95,7.15,5.95,11.8v86.99c0,1-.25,13.14-.68,13.96-1,10.76-10.17,19.24-21.32,19.24h-141.59c-11.15,0-20.32-8.48-21.32-19.24-.43-.83-.68-12.97-.68-13.97v-86.99c0-4.65,2.21-9.04,5.95-11.8Z"/>
            <path class="cls-81" d="M234.25,319.91l78.11-57.84c4.36-3.23,10.18-3.53,14.73-.89.97,0,11.14,7.15,11.93,7.73l68.86,50.99c3.72,2.75,5.92,7.13,5.92,11.76v86.93c0,.97-.24,13.15-.66,13.96-.97,10.76-10.13,19.25-21.28,19.25h-141.59c-11.14,0-20.3-8.49-21.28-19.25-.42-.81-.66-12.99-.66-13.96v-86.93c0-4.63,2.2-9,5.92-11.76Z"/>
            <path class="cls-128" d="M234.29,319.96l78.11-57.84c4.36-3.23,10.18-3.53,14.72-.86.95,0,11.15,7.18,11.91,7.74l68.81,50.96c3.71,2.74,5.9,7.1,5.9,11.71v86.87c0,.95-.23,13.17-.65,13.95-.95,10.76-10.1,19.26-21.23,19.26h-141.59c-11.13,0-20.29-8.49-21.23-19.26-.41-.78-.65-13.01-.65-13.95v-86.87c0-4.61,2.19-8.96,5.9-11.71Z"/>
            <path class="cls-88" d="M234.32,320.01l78.11-57.84c4.36-3.23,10.18-3.52,14.72-.84.92,0,11.15,7.21,11.89,7.76l68.76,50.92c3.69,2.73,5.87,7.07,5.87,11.66v86.81c0,.92-.23,13.18-.63,13.94-.92,10.76-10.07,19.26-21.19,19.26h-141.59c-11.12,0-20.27-8.5-21.19-19.26-.4-.76-.63-13.02-.63-13.95v-86.81c0-4.59,2.18-8.93,5.87-11.66Z"/>
            <path class="cls-62" d="M234.36,320.05l78.11-57.84c4.36-3.23,10.18-3.51,14.72-.82.9,0,11.15,7.24,11.87,7.77l68.71,50.88c3.68,2.72,5.85,7.04,5.85,11.61v86.75c0,.9-.22,13.19-.61,13.94-.9,10.76-10.03,19.27-21.15,19.27h-141.59c-11.12,0-20.25-8.51-21.15-19.27-.39-.74-.61-13.04-.61-13.94v-86.75c0-4.57,2.18-8.89,5.85-11.61Z"/>
            <path class="cls-234" d="M234.39,320.1l78.11-57.84c4.36-3.23,10.19-3.5,14.72-.8.88,0,11.15,7.27,11.86,7.79l68.66,50.85c3.66,2.71,5.83,7.01,5.83,11.57v86.69c0,.87-.22,13.2-.6,13.93-.87,10.77-10,19.28-21.11,19.28h-141.59c-11.11,0-20.23-8.52-21.11-19.28-.38-.72-.6-13.06-.6-13.93v-86.69c0-4.56,2.17-8.86,5.83-11.57Z"/>
            <path class="cls-168" d="M234.43,320.15l78.11-57.84c4.36-3.23,10.19-3.5,14.71-.77.85,0,11.15,7.3,11.84,7.8l68.62,50.81c3.65,2.7,5.8,6.98,5.8,11.52v86.63c0,.85-.21,13.22-.58,13.92-.85,10.77-9.96,19.29-21.07,19.29h-141.59c-11.1,0-20.22-8.52-21.07-19.29-.37-.7-.58-13.08-.58-13.93v-86.63c0-4.54,2.16-8.82,5.8-11.52Z"/>
            <path class="cls-204" d="M234.46,320.19l78.11-57.84c4.36-3.23,10.19-3.49,14.71-.75.83,0,11.16,7.32,11.82,7.82l68.57,50.77c3.63,2.69,5.78,6.95,5.78,11.47v86.57c0,.83-.2,13.23-.56,13.91-.83,10.77-9.93,19.3-21.02,19.3h-141.59c-11.09,0-20.2-8.53-21.02-19.3-.36-.68-.56-13.09-.56-13.92v-86.57c0-4.52,2.15-8.78,5.78-11.47Z"/>
            <path class="cls-191" d="M234.5,320.24l78.11-57.84c4.36-3.23,10.19-3.48,14.71-.73.8,0,11.16,7.35,11.8,7.83l68.52,50.74c3.62,2.68,5.76,6.93,5.76,11.43v86.51c0,.8-.2,13.24-.55,13.91-.8,10.77-9.9,19.31-20.98,19.31h-141.59c-11.08,0-20.18-8.54-20.98-19.31-.35-.66-.55-13.11-.55-13.91v-86.51c0-4.5,2.14-8.75,5.76-11.43Z"/>
            <path class="cls-5" d="M234.53,320.29l78.11-57.84c4.36-3.23,10.2-3.47,14.71-.71.78,0,11.16,7.38,11.78,7.85l68.47,50.7c3.6,2.67,5.73,6.9,5.73,11.38v86.45c0,.78-.19,13.26-.53,13.9-.78,10.77-9.86,19.32-20.94,19.32h-141.59c-11.08,0-20.16-8.54-20.94-19.32-.34-.64-.53-13.13-.53-13.9v-86.44c0-4.48,2.13-8.71,5.73-11.38Z"/>
            <path class="cls-197" d="M234.57,320.33l78.11-57.84c4.36-3.23,10.2-3.46,14.7-.69.75,0,11.16,7.41,11.77,7.86l68.42,50.67c3.59,2.66,5.71,6.87,5.71,11.33v86.39c0,.75-.19,13.27-.51,13.89-.75,10.77-9.83,19.33-20.9,19.33h-141.59c-11.07,0-20.14-8.55-20.9-19.33-.33-.62-.51-13.14-.51-13.9v-86.38c0-4.46,2.12-8.68,5.71-11.33Z"/>
            <path class="cls-65" d="M234.6,320.38l78.11-57.84c4.36-3.23,10.2-3.46,14.7-.66.73,0,11.16,7.44,11.75,7.87l68.37,50.63c3.57,2.65,5.69,6.84,5.69,11.28v86.33c0,.73-.18,13.28-.5,13.89-.73,10.78-9.79,19.33-20.86,19.33h-141.59c-11.06,0-20.13-8.56-20.86-19.33-.32-.6-.5-13.16-.5-13.89v-86.32c0-4.45,2.11-8.64,5.69-11.28Z"/>
            <path class="cls-130" d="M234.64,320.43l78.11-57.84c4.36-3.23,10.2-3.45,14.7-.64.71,0,11.17,7.47,11.73,7.89l68.32,50.59c3.56,2.63,5.66,6.81,5.66,11.24v86.27c0,.7-.17,13.3-.48,13.88-.7,10.78-9.76,19.34-20.81,19.34h-141.59c-11.05,0-20.11-8.57-20.81-19.34-.31-.58-.48-13.18-.48-13.88v-86.26c0-4.43,2.1-8.6,5.66-11.24Z"/>
            <path class="cls-70" d="M234.67,320.48l78.11-57.84c4.36-3.23,10.21-3.44,14.7-.62.68,0,11.17,7.5,11.71,7.9l68.27,50.56c3.54,2.62,5.64,6.78,5.64,11.19v86.21c0,.68-.17,13.31-.46,13.87-.68,10.78-9.73,19.35-20.77,19.35h-141.59c-11.04,0-20.09-8.57-20.77-19.35-.3-.56-.47-13.2-.47-13.88v-86.2c0-4.41,2.09-8.57,5.64-11.19Z"/>
            <path class="cls-63" d="M234.71,320.52l78.11-57.84c4.35-3.22,10.21-3.43,14.69-.6.66,0,11.17,7.53,11.7,7.92l68.22,50.52c3.53,2.61,5.61,6.75,5.61,11.14v86.15c0,.66-.16,13.32-.45,13.87-.66,10.78-9.69,19.36-20.73,19.36h-141.59c-11.04,0-20.07-8.58-20.73-19.36-.29-.54-.45-13.21-.45-13.87v-86.14c0-4.39,2.09-8.53,5.61-11.14Z"/>
            <path class="cls-152" d="M234.74,320.57l78.11-57.84c4.35-3.22,10.21-3.42,14.69-.58.63,0,11.17,7.56,11.68,7.93l68.17,50.48c3.51,2.6,5.59,6.72,5.59,11.1v86.09c0,.63-.16,13.33-.43,13.86-.63,10.78-9.66,19.37-20.69,19.37h-141.59c-11.03,0-20.06-8.59-20.69-19.37-.28-.52-.43-13.23-.43-13.86v-86.08c0-4.37,2.08-8.49,5.59-11.1Z"/>
            <path class="cls-110" d="M234.78,320.62l78.11-57.84c4.35-3.22,10.21-3.42,14.69-.55.61,0,11.17,7.59,11.66,7.95l68.12,50.45c3.5,2.59,5.57,6.7,5.57,11.05v86.03c0,.61-.15,13.35-.42,13.85-.61,10.78-9.62,19.38-20.65,19.38h-141.59c-11.02,0-20.04-8.59-20.65-19.38-.27-.5-.42-13.25-.42-13.85v-86.02c0-4.35,2.07-8.46,5.57-11.05Z"/>
            <path class="cls-94" d="M234.81,320.66l78.11-57.84c4.35-3.22,10.22-3.41,14.69-.53.58,0,11.17,7.61,11.64,7.96l68.07,50.41c3.48,2.58,5.54,6.67,5.54,11v85.97c0,.58-.14,13.36-.4,13.84-.58,10.78-9.59,19.39-20.6,19.39h-141.59c-11.01,0-20.02-8.6-20.6-19.39-.25-.48-.4-13.26-.4-13.85v-85.96c0-4.33,2.06-8.42,5.54-11Z"/>
            <path class="cls-17" d="M234.85,320.71l78.11-57.84c4.35-3.22,10.22-3.4,14.68-.51.56,0,11.18,7.64,11.63,7.98l68.02,50.37c3.47,2.57,5.52,6.64,5.52,10.96v85.91c0,.56-.14,13.37-.38,13.84-.56,10.79-9.56,19.4-20.56,19.4h-141.59c-11.01,0-20-8.61-20.56-19.4-.24-.46-.38-13.28-.38-13.84v-85.9c0-4.32,2.05-8.39,5.52-10.96Z"/>
            <path class="cls-220" d="M234.88,320.76l78.11-57.84c4.35-3.22,10.22-3.39,14.68-.49.54,0,11.18,7.67,11.61,7.99l67.97,50.34c3.45,2.56,5.5,6.61,5.5,10.91v85.85c0,.53-.13,13.39-.37,13.83-.53,10.79-9.52,19.4-20.52,19.4h-141.59c-11,0-19.99-8.62-20.52-19.4-.23-.44-.37-13.3-.37-13.83v-85.84c0-4.3,2.04-8.35,5.5-10.91Z"/>
            <path class="cls-98" d="M234.92,320.81l78.11-57.84c4.35-3.22,10.22-3.38,14.68-.46.51,0,11.18,7.7,11.59,8.01l67.92,50.3c3.44,2.55,5.47,6.58,5.47,10.86v85.79c0,.51-.13,13.4-.35,13.82-.51,10.79-9.49,19.41-20.48,19.41h-141.59c-10.99,0-19.97-8.62-20.48-19.41-.22-.42-.35-13.32-.35-13.83v-85.78c0-4.28,2.03-8.31,5.47-10.86Z"/>
            <path class="cls-21" d="M234.95,320.85l78.11-57.84c4.35-3.22,10.23-3.38,14.67-.44.49,0,11.18,7.73,11.57,8.02l67.87,50.26c3.42,2.54,5.45,6.55,5.45,10.81v85.73c0,.49-.12,13.41-.33,13.82-.49,10.79-9.45,19.42-20.44,19.42h-141.59c-10.98,0-19.95-8.63-20.44-19.42-.21-.4-.33-13.33-.33-13.82v-85.72c0-4.26,2.02-8.28,5.45-10.81Z"/>
            <path class="cls-196" d="M234.99,320.9l78.11-57.84c4.35-3.22,10.23-3.37,14.67-.42.46,0,11.18,7.76,11.56,8.03l67.82,50.23c3.41,2.53,5.42,6.52,5.42,10.77v85.66c0,.46-.11,13.43-.32,13.81-.46,10.79-9.42,19.43-20.39,19.43h-141.59c-10.97,0-19.93-8.64-20.39-19.43-.2-.38-.32-13.35-.32-13.81v-85.66c0-4.24,2.01-8.24,5.42-10.77Z"/>
            <path class="cls-66" d="M235.02,320.95l78.11-57.84c4.35-3.22,10.23-3.36,14.67-.4.44,0,11.19,7.79,11.54,8.05l67.78,50.19c3.39,2.51,5.4,6.5,5.4,10.72v85.6c0,.44-.11,13.44-.3,13.8-.44,10.79-9.39,19.44-20.35,19.44h-141.59c-10.97,0-19.91-8.64-20.35-19.44-.19-.36-.3-13.37-.3-13.8v-85.6c0-4.22,2.01-8.21,5.4-10.72Z"/>
            <path class="cls-43" d="M235.06,320.99l78.11-57.84c4.35-3.22,10.24-3.35,14.67-.38.41,0,11.19,7.82,11.52,8.06l67.73,50.15c3.38,2.5,5.38,6.47,5.38,10.67v85.54c0,.41-.1,13.45-.28,13.79-.41,10.8-9.35,19.45-20.31,19.45h-141.59c-10.96,0-19.9-8.65-20.31-19.45-.18-.34-.28-13.39-.28-13.8v-85.54c0-4.21,2-8.17,5.38-10.67Z"/>
            <path class="cls-76" d="M235.09,321.04l78.11-57.84c4.35-3.22,10.24-3.34,14.66-.35.39,0,11.19,7.85,11.5,8.08l67.68,50.12c3.36,2.49,5.35,6.44,5.35,10.63v85.48c0,.39-.1,13.47-.27,13.79-.39,10.8-9.32,19.46-20.27,19.46h-141.59c-10.95,0-19.88-8.66-20.27-19.46-.17-.32-.27-13.4-.27-13.79v-85.48c0-4.19,1.99-8.13,5.35-10.63Z"/>
            <path class="cls-166" d="M235.13,321.09l78.11-57.84c4.35-3.22,10.24-3.34,14.66-.33.36,0,11.19,7.87,11.49,8.09l67.63,50.08c3.35,2.48,5.33,6.41,5.33,10.58v85.42c0,.36-.09,13.48-.25,13.78-.36,10.8-9.28,19.47-20.23,19.47h-141.59c-10.94,0-19.86-8.67-20.23-19.47-.16-.3-.25-13.42-.25-13.78v-85.42c0-4.17,1.98-8.1,5.33-10.58Z"/>
            <path class="cls-93" d="M235.16,321.14l78.11-57.84c4.35-3.22,10.24-3.33,14.66-.31.34,0,11.19,7.9,11.47,8.11l67.58,50.04c3.34,2.47,5.31,6.38,5.31,10.53v85.36c0,.34-.08,13.49-.23,13.77-.34,10.8-9.25,19.47-20.18,19.47h-141.59c-10.93,0-19.84-8.67-20.18-19.47-.15-.28-.23-13.44-.23-13.78v-85.36c0-4.15,1.97-8.06,5.31-10.53Z"/>
            <path class="cls-176" d="M235.19,321.18l78.11-57.84c4.35-3.22,10.25-3.32,14.66-.29.32,0,11.2,7.93,11.45,8.12l67.53,50.01c3.32,2.46,5.28,6.35,5.28,10.48v85.3c0,.32-.08,13.5-.22,13.77-.32,10.8-9.22,19.48-20.14,19.48h-141.59c-10.93,0-19.83-8.68-20.14-19.48-.14-.26-.22-13.45-.22-13.77v-85.3c0-4.13,1.96-8.03,5.28-10.48Z"/>
            <path class="cls-171" d="M235.23,321.23l78.11-57.84c4.35-3.22,10.25-3.31,14.65-.27.29,0,11.2,7.96,11.43,8.14l67.48,49.97c3.31,2.45,5.26,6.32,5.26,10.44v85.24c0,.29-.07,13.52-.2,13.76-.29,10.8-9.18,19.49-20.1,19.49h-141.59c-10.92,0-19.81-8.69-20.1-19.49-.13-.24-.2-13.47-.2-13.76v-85.24c0-4.11,1.95-7.99,5.26-10.44Z"/>
            <path class="cls-50" d="M235.26,321.28l78.11-57.84c4.35-3.22,10.25-3.3,14.65-.24.27,0,11.2,7.99,11.41,8.15l67.43,49.93c3.29,2.44,5.23,6.29,5.23,10.39v85.18c0,.27-.07,13.53-.18,13.75-.27,10.81-9.15,19.5-20.06,19.5h-141.59c-10.91,0-19.79-8.69-20.06-19.5-.12-.22-.18-13.49-.18-13.76v-85.18c0-4.1,1.94-7.95,5.23-10.39Z"/>
            <path class="cls-203" d="M235.3,321.32l78.11-57.84c4.35-3.22,10.25-3.3,14.65-.22.24,0,11.2,8.02,11.4,8.16l67.38,49.9c3.28,2.43,5.21,6.27,5.21,10.34v85.12c0,.24-.06,13.54-.17,13.74-.24,10.81-9.11,19.51-20.02,19.51h-141.59c-10.9,0-19.77-8.7-20.02-19.51-.11-.2-.17-13.51-.17-13.75v-85.12c0-4.08,1.93-7.92,5.21-10.34Z"/>
            <path class="cls-135" d="M235.33,321.37l78.11-57.84c4.35-3.22,10.26-3.29,14.65-.2.22,0,11.2,8.05,11.38,8.18l67.33,49.86c3.26,2.42,5.19,6.24,5.19,10.3v85.06c0,.22-.05,13.56-.15,13.74-.22,10.81-9.08,19.52-19.97,19.52h-141.59c-10.89,0-19.76-8.71-19.97-19.52-.1-.18-.15-13.52-.15-13.74v-85.06c0-4.06,1.93-7.88,5.19-10.3Z"/>
            <path class="cls-126" d="M235.37,321.42l78.11-57.84c4.35-3.22,10.26-3.28,14.64-.18.19,0,11.21,8.08,11.36,8.19l67.28,49.82c3.25,2.4,5.16,6.21,5.16,10.25v85c0,.19-.05,13.57-.13,13.73-.19,10.81-9.05,19.53-19.93,19.53h-141.59c-10.89,0-19.74-8.72-19.93-19.53-.08-.16-.13-13.54-.13-13.73v-85c0-4.04,1.92-7.84,5.16-10.25Z"/>
            <path class="cls-125" d="M235.4,321.46l78.11-57.84c4.35-3.22,10.26-3.27,14.64-.15.17,0,11.21,8.11,11.34,8.21l67.23,49.79c3.23,2.39,5.14,6.18,5.14,10.2v84.94c0,.17-.04,13.58-.12,13.72-.17,10.81-9.01,19.54-19.89,19.54h-141.59c-10.88,0-19.72-8.72-19.89-19.54-.07-.14-.12-13.56-.12-13.73v-84.94c0-4.02,1.91-7.81,5.14-10.2Z"/>
            <path class="cls-184" d="M235.44,321.51l78.11-57.84c4.35-3.22,10.26-3.26,14.64-.13.15,0,11.21,8.14,11.33,8.22l67.18,49.75c3.22,2.38,5.12,6.15,5.12,10.16v84.88c0,.15-.04,13.6-.1,13.72-.15,10.81-8.98,19.54-19.85,19.54h-141.59c-10.87,0-19.7-8.73-19.85-19.54-.06-.12-.1-13.57-.1-13.72v-84.88c0-4,1.9-7.77,5.12-10.16Z"/>
            <path class="cls-156" d="M235.47,321.56l78.11-57.84c4.35-3.22,10.27-3.26,14.63-.11.12,0,11.21,8.16,11.31,8.24l67.13,49.71c3.2,2.37,5.09,6.12,5.09,10.11v84.82c0,.12-.03,13.61-.08,13.71-.12,10.81-8.94,19.55-19.81,19.55h-141.59c-10.86,0-19.68-8.74-19.81-19.55-.05-.1-.08-13.59-.08-13.71v-84.82c0-3.99,1.89-7.74,5.09-10.11Z"/>
            <path class="cls-132" d="M235.51,321.61l78.11-57.84c4.35-3.22,10.27-3.25,14.63-.09.1,0,11.21,8.19,11.29,8.25l67.08,49.68c3.19,2.36,5.07,6.09,5.07,10.06v84.76c0,.1-.02,13.62-.07,13.7-.1,10.82-8.91,19.56-19.76,19.56h-141.59c-10.85,0-19.67-8.75-19.76-19.56-.04-.08-.07-13.61-.07-13.71v-84.76c0-3.97,1.88-7.7,5.07-10.06Z"/>
            <path class="cls-239" d="M235.54,321.65l78.11-57.84c4.34-3.22,10.27-3.24,14.63-.07.07,0,11.21,8.22,11.27,8.27l67.03,49.64c3.17,2.35,5.04,6.07,5.04,10.01v84.7c0,.07-.02,13.63-.05,13.7-.07,10.82-8.88,19.57-19.72,19.57h-141.59c-10.85,0-19.65-8.75-19.72-19.57-.03-.06-.05-13.63-.05-13.7v-84.7c0-3.95,1.87-7.66,5.04-10.01Z"/>
            <path class="cls-133" d="M235.58,321.7l78.11-57.84c4.34-3.22,10.27-3.23,14.63-.04.05,0,11.22,8.25,11.26,8.28l66.98,49.6c3.16,2.34,5.02,6.04,5.02,9.97v84.64s-.01,13.65-.03,13.69c-.05,10.82-8.84,19.58-19.68,19.58h-141.59c-10.84,0-19.63-8.76-19.68-19.58-.02-.04-.03-13.64-.03-13.69v-84.64c0-3.93,1.86-7.63,5.02-9.97Z"/>
            <path class="cls-237" d="M235.61,321.75l78.11-57.84c4.34-3.22,10.28-3.22,14.62-.02.02,0,11.22,8.28,11.24,8.29l66.93,49.57c3.14,2.33,5,6.01,5,9.92v84.58s0,13.66-.02,13.68c-.02,10.82-8.81,19.59-19.64,19.59h-141.59c-10.83,0-19.61-8.77-19.64-19.59-.01-.02-.02-13.66-.02-13.68v-84.58c0-3.91,1.85-7.59,5-9.92Z"/>
            <path class="cls-177" d="M411.46,331.67v98.19c0,10.82-8.77,19.6-19.6,19.6h-141.59c-10.82,0-19.6-8.77-19.6-19.6v-98.19c0-3.89,1.84-7.56,4.97-9.87l78.11-57.84c4.34-3.22,10.28-3.22,14.62,0l78.11,57.84c3.13,2.32,4.97,5.98,4.97,9.87Z"/>
          </g>
        </g>
        <g class="cls-124">
          <g class="cls-3">
            <path class="cls-123" d="M393.24,301.82v52.92c0,6.74-3.46,13.02-9.16,16.62l-52.52,33.16c-6.41,4.05-14.58,4.05-20.98,0l-52.52-33.16c-5.7-3.6-9.16-9.88-9.16-16.62v-52.92c0-12.28,9.96-22.23,22.24-22.23h99.89c12.28,0,22.23,9.95,22.23,22.23Z"/>
          </g>
        </g>
        <path class="cls-138" d="M353.13,368.6h-64.14c-3.97,0-7.18-3.21-7.18-7.18h0c0-3.97,3.21-7.18,7.18-7.18h64.14c3.97,0,7.18,3.21,7.18,7.18h0c0,3.97-3.21,7.18-7.18,7.18Z"/>
        <path class="cls-138" d="M357.31,315.16h-72.49c-3.97,0-7.18-3.21-7.18-7.18h0c0-3.97,3.21-7.18,7.18-7.18h72.49c3.97,0,7.18,3.21,7.18,7.18h0c0,3.97-3.21,7.18-7.18,7.18Z"/>
        <path class="cls-138" d="M365.66,341.88h-89.19c-3.97,0-7.18-3.21-7.18-7.18h0c0-3.97,3.21-7.18,7.18-7.18h89.19c3.97,0,7.18,3.21,7.18,7.18h0c0,3.97-3.21,7.18-7.18,7.18Z"/>
        <path class="cls-46" d="M321.06,407.92c-3.72,0-7.45-1.03-10.7-3.08l-52.52-33.16c-5.85-3.69-9.34-10.03-9.34-16.95v-52.92c0-12.47,10.15-22.62,22.62-22.62h99.89c12.47,0,22.62,10.15,22.62,22.62v52.92c0,6.92-3.49,13.25-9.34,16.95l-52.53,33.16c-3.25,2.05-6.97,3.08-10.7,3.08ZM271.12,279.97c-12.05,0-21.85,9.8-21.85,21.85v52.92c0,6.65,3.36,12.75,8.98,16.3l52.52,33.16c6.25,3.95,14.33,3.95,20.58,0l52.53-33.16c5.63-3.55,8.98-9.64,8.98-16.3v-52.92c0-12.05-9.8-21.85-21.85-21.85h-99.89Z"/>
      </g>
    </g>
  </g>
</svg>