<?xml version="1.0" encoding="UTF-8"?>
<svg xmlns="http://www.w3.org/2000/svg" xmlns:xlink="http://www.w3.org/1999/xlink" version="1.1" viewBox="0 0 674.48 711.17">
  <defs>
    <style>
      .cls-1 {
        fill: none;
      }

      .cls-2 {
        mask: url(#mask);
      }

      .cls-3 {
        filter: url(#luminosity-noclip);
      }

      .cls-4 {
        fill: url(#linear-gradient-6);
      }

      .cls-5 {
        fill: url(#linear-gradient-3);
      }

      .cls-6 {
        fill: url(#linear-gradient-2);
      }

      .cls-7 {
        fill: url(#linear-gradient-4);
        mix-blend-mode: multiply;
      }

      .cls-8 {
        fill: url(#linear-gradient);
      }

      .cls-9 {
        fill: #4cc992;
        opacity: .79;
      }

      .cls-10 {
        fill: #dbf4e9;
        opacity: .16;
      }

      .cls-11 {
        fill: #34c184;
        opacity: .89;
      }

      .cls-12 {
        mask: url(#mask-1);
      }

      .cls-13 {
        fill: #b7e9d3;
        opacity: .32;
      }

      .cls-14 {
        fill: #64d0a1;
        opacity: .68;
      }

      .cls-15 {
        fill: url(#linear-gradient-5);
      }

      .cls-15, .cls-16 {
        opacity: .8;
      }

      .cls-17 {
        fill: #58cc99;
        opacity: .74;
      }

      .cls-18 {
        fill: #abe6cc;
        opacity: .37;
      }

      .cls-19, .cls-20 {
        fill: #fff;
      }

      .cls-20 {
        opacity: 0;
      }

      .cls-21 {
        fill: #93debe;
        opacity: .47;
      }

      .cls-22 {
        fill: #c3eddb;
        opacity: .26;
      }

      .cls-23 {
        fill: #28be7c;
        opacity: .95;
      }

      .cls-24 {
        fill: #1cba75;
      }

      .cls-25 {
        fill: #7cd7af;
        opacity: .58;
      }

      .cls-26 {
        fill: #70d3a8;
        opacity: .63;
      }

      .cls-27 {
        fill: #88dbb6;
        opacity: .53;
      }

      .cls-28 {
        fill: #e7f8f0;
        opacity: .11;
      }

      .cls-29 {
        fill: #f3fbf8;
        opacity: .05;
      }

      .cls-30 {
        fill: #cff0e2;
        opacity: .21;
      }

      .cls-31 {
        fill: #9fe2c5;
        opacity: .42;
      }

      .cls-32 {
        clip-path: url(#clippath);
      }

      .cls-33 {
        fill: #40c58b;
        opacity: .84;
      }
    </style>
    <linearGradient id="linear-gradient" x1="504.99" y1="205.37" x2="256.53" y2="417.87" gradientUnits="userSpaceOnUse">
      <stop offset="0" stop-color="#004645"/>
      <stop offset="1" stop-color="#00bb72" stop-opacity=".5"/>
    </linearGradient>
    <linearGradient id="linear-gradient-2" x1="251.5" y1="313.11" x2="309.72" y2="313.11" xlink:href="#linear-gradient"/>
    <linearGradient id="linear-gradient-3" x1="214.52" y1="386.09" x2="346.69" y2="386.09" xlink:href="#linear-gradient"/>
    <clipPath id="clippath">
      <path class="cls-1" d="M432.1,336.79v65.27c0,12.77-10.35,23.11-23.11,23.11h-19.68c-5.09,0-10.04,1.62-14.14,4.63l-21.06,15.44c-2.94,2.15-6.93,2.15-9.87,0l-21.06-15.44c-4.1-3.01-9.06-4.63-14.14-4.63h-19.68c-12.77,0-23.11-10.35-23.11-23.11v-65.27c0-12.77,10.35-23.11,23.11-23.11h119.63c12.77,0,23.11,10.35,23.11,23.11Z"/>
    </clipPath>
    <filter id="luminosity-noclip" x="266.24" y="313.67" width="165.86" height="133.18" color-interpolation-filters="sRGB" filterUnits="userSpaceOnUse">
      <feFlood flood-color="#fff" result="bg"/>
      <feBlend in="SourceGraphic" in2="bg"/>
    </filter>
    <filter id="luminosity-noclip-2" x="266.24" y="-4206.14" width="165.86" height="32766" color-interpolation-filters="sRGB" filterUnits="userSpaceOnUse">
      <feFlood flood-color="#fff" result="bg"/>
      <feBlend in="SourceGraphic" in2="bg"/>
    </filter>
    <mask id="mask-1" x="266.24" y="-4206.14" width="165.86" height="32766" maskUnits="userSpaceOnUse"/>
    <linearGradient id="linear-gradient-4" x1="349.17" y1="446.85" x2="349.17" y2="313.67" gradientUnits="userSpaceOnUse">
      <stop offset="0" stop-color="#595959"/>
      <stop offset="1" stop-color="#fff"/>
    </linearGradient>
    <mask id="mask" x="266.24" y="313.67" width="165.86" height="133.18" maskUnits="userSpaceOnUse">
      <g class="cls-3">
        <g class="cls-12">
          <path class="cls-7" d="M432.1,336.79v65.27c0,12.77-10.35,23.11-23.11,23.11h-19.68c-5.09,0-10.04,1.62-14.14,4.63l-21.06,15.44c-2.94,2.15-6.93,2.15-9.87,0l-21.06-15.44c-4.1-3.01-9.06-4.63-14.14-4.63h-19.68c-12.77,0-23.11-10.35-23.11-23.11v-65.27c0-12.77,10.35-23.11,23.11-23.11h119.63c12.77,0,23.11,10.35,23.11,23.11Z"/>
        </g>
      </g>
    </mask>
    <linearGradient id="linear-gradient-5" x1="349.17" y1="446.85" x2="349.17" y2="313.67" gradientUnits="userSpaceOnUse">
      <stop offset="0" stop-color="#f2f8ff"/>
      <stop offset="1" stop-color="#1cba75"/>
    </linearGradient>
    <linearGradient id="linear-gradient-6" x1="349.17" y1="447.22" x2="349.17" y2="313.31" gradientUnits="userSpaceOnUse">
      <stop offset="0" stop-color="#e6f1ff"/>
      <stop offset="1" stop-color="#1cba75"/>
    </linearGradient>
  </defs>
  <!-- Generator: Adobe Illustrator 28.6.0, SVG Export Plug-In . SVG Version: 1.2.0 Build 709)  -->
  <g>
    <g id="Layer_3">
      <circle class="cls-8" cx="321.06" cy="362.67" r="195.67"/>
      <g>
        <g>
          <path class="cls-6" d="M309.17,307.49c3.1,15.77-7.17,31.07-22.94,34.17-15.77,3.1-31.07-7.17-34.17-22.94-3.1-15.77,7.17-31.07,22.94-34.17,15.77-3.1,31.07,7.17,34.17,22.94Z"/>
          <path class="cls-5" d="M342.48,418.41c2.49,0,4.44-2.15,4.2-4.62-3.21-33.67-31.55-60.01-66.07-60.01s-62.85,26.34-66.07,60.01c-.24,2.48,1.71,4.62,4.2,4.62h123.73Z"/>
        </g>
        <g class="cls-32">
          <g>
            <path class="cls-20" d="M280.58,354.79c-19.84,0-37.03-14.15-40.86-33.64-4.43-22.55,10.31-44.5,32.85-48.93,2.66-.52,5.38-.79,8.07-.79,19.84,0,37.03,14.15,40.86,33.64,4.43,22.55-10.31,44.5-32.85,48.93-2.66.52-5.38.79-8.07.79Z"/>
            <path class="cls-29" d="M280.34,272.12c19.63-.16,36.72,13.78,40.51,33.08,4.35,22.1-10.03,43.62-32.08,48.08-2.6.53-5.26.8-7.9.82-19.63.16-36.72-13.78-40.51-33.08-4.35-22.1,10.03-43.62,32.08-48.08,2.6-.53,5.26-.8,7.9-.82Z"/>
            <path class="cls-28" d="M280.05,272.81c19.42-.33,36.4,13.41,40.16,32.52,4.26,21.66-9.76,42.74-31.3,47.23-2.54.53-5.14.82-7.73.85-19.42.33-36.4-13.41-40.16-32.52-4.26-21.66,9.76-42.74,31.3-47.23,2.54-.53,5.14-.82,7.73-.85Z"/>
            <path class="cls-10" d="M279.75,273.5c19.2-.44,36.09,13.05,39.81,31.95,4.17,21.21-9.49,41.86-30.52,46.38-2.49.53-5.03.83-7.56.88-19.2.49-36.09-13.05-39.81-31.95-4.17-21.21,9.49-41.86,30.52-46.38,2.48-.53,5.03-.83,7.56-.88Z"/>
            <path class="cls-30" d="M279.45,274.19c18.99-.59,35.77,12.68,39.45,31.39,4.08,20.77-9.22,40.98-29.75,45.53-2.43.54-4.91.85-7.39.92-18.99.65-35.78-12.68-39.45-31.39-4.08-20.77,9.22-40.98,29.75-45.53,2.43-.54,4.91-.84,7.39-.92Z"/>
            <path class="cls-22" d="M279.15,274.88c18.78-.74,35.46,12.31,39.1,30.83,4,20.32-8.94,40.11-28.97,44.68-2.37.54-4.79.86-7.22.95-18.77.82-35.46-12.31-39.1-30.83-4-20.32,8.94-40.11,28.97-44.68,2.37-.54,4.79-.85,7.22-.95Z"/>
            <path class="cls-13" d="M278.86,275.57c18.56-.9,35.15,11.95,38.75,30.26,3.91,19.88-8.67,39.23-28.19,43.83-2.31.55-4.68.87-7.05.98-18.56.98-35.15-11.95-38.75-30.26-3.91-19.88,8.67-39.23,28.19-43.83,2.31-.55,4.68-.86,7.05-.98Z"/>
            <path class="cls-18" d="M278.56,276.26c18.35-1.05,34.83,11.58,38.4,29.7,3.82,19.43-8.4,38.35-27.42,42.98-2.25.55-4.56.89-6.88,1.01-18.34,1.14-34.83-11.58-38.4-29.7-3.82-19.43,8.4-38.35,27.42-42.98,2.25-.55,4.56-.88,6.88-1.01Z"/>
            <path class="cls-31" d="M278.26,276.95c18.14-1.21,34.52,11.21,38.05,29.14,3.73,18.99-8.13,37.47-26.64,42.13-2.19.55-4.45.9-6.71,1.04-18.13,1.31-34.52-11.21-38.05-29.14-3.73-18.99,8.13-37.47,26.64-42.13,2.19-.55,4.45-.89,6.71-1.04Z"/>
            <path class="cls-21" d="M277.97,277.64c17.92-1.37,34.21,10.84,37.69,28.57,3.65,18.54-7.86,36.59-25.86,41.28-2.13.56-4.33.92-6.54,1.07-17.92,1.47-34.21-10.84-37.69-28.57-3.65-18.54,7.86-36.59,25.86-41.28,2.13-.56,4.33-.91,6.54-1.07Z"/>
            <path class="cls-27" d="M277.67,278.33c17.71-1.53,33.89,10.48,37.34,28.01,3.56,18.1-7.58,35.71-25.09,40.43-2.07.56-4.21.93-6.37,1.11-17.7,1.63-33.89-10.48-37.34-28.01-3.56-18.1,7.58-35.71,25.09-40.43,2.07-.56,4.21-.92,6.37-1.11Z"/>
            <path class="cls-25" d="M277.37,279.02c17.5-1.69,33.58,10.11,36.99,27.45,3.47,17.65-7.31,34.83-24.31,39.58-2.02.56-4.1.95-6.2,1.14-17.49,1.79-33.58-10.11-36.99-27.45-3.47-17.65,7.31-34.83,24.31-39.58,2.02-.56,4.1-.93,6.2-1.14Z"/>
            <path class="cls-26" d="M277.07,279.71c17.28-1.86,33.27,9.74,36.64,26.89,3.38,17.21-7.04,33.96-23.53,38.73-1.96.57-3.98.96-6.03,1.17-17.27,1.96-33.27-9.74-36.64-26.89-3.38-17.21,7.04-33.96,23.53-38.73,1.96-.57,3.98-.95,6.04-1.17Z"/>
            <path class="cls-14" d="M276.78,280.4c17.07-2.03,32.95,9.38,36.29,26.32,3.3,16.76-6.77,33.08-22.76,37.88-1.9.57-3.86.98-5.87,1.2-17.06,2.12-32.95-9.38-36.29-26.32-3.3-16.76,6.77-33.08,22.76-37.88,1.9-.57,3.87-.96,5.87-1.2Z"/>
            <path class="cls-17" d="M276.48,281.09c16.86-2.2,32.64,9.01,35.93,25.76,3.21,16.32-6.49,32.2-21.98,37.03-1.84.58-3.75.99-5.7,1.23-16.84,2.28-32.64-9.01-35.93-25.76-3.21-16.32,6.49-32.2,21.98-37.03,1.84-.58,3.75-.98,5.7-1.23Z"/>
            <path class="cls-9" d="M276.18,281.78c16.64-2.37,32.33,8.64,35.58,25.2,3.12,15.87-6.22,31.32-21.2,36.18-1.78.58-3.63,1-5.53,1.27-16.63,2.45-32.33-8.64-35.58-25.2-3.12-15.87,6.22-31.32,21.2-36.18,1.78-.58,3.63-1,5.53-1.27Z"/>
            <path class="cls-33" d="M275.89,282.48c16.43-2.55,32.01,8.27,35.23,24.63,3.03,15.43-5.95,30.44-20.43,35.33-1.72.58-3.51,1.02-5.36,1.3-16.42,2.61-32.01-8.27-35.23-24.63-3.03-15.43,5.95-30.44,20.43-35.33,1.72-.58,3.52-1.01,5.36-1.3Z"/>
            <path class="cls-11" d="M275.59,283.17c16.21-2.73,31.7,7.91,34.88,24.07,2.95,14.98-5.68,29.56-19.65,34.48-1.66.59-3.4,1.03-5.19,1.33-16.2,2.77-31.7-7.91-34.88-24.07-2.95-14.98,5.68-29.56,19.65-34.48,1.66-.59,3.4-1.03,5.19-1.33Z"/>
            <path class="cls-23" d="M275.29,283.86c15.99-2.94,31.39,7.54,34.52,23.51,2.86,14.54-5.41,28.68-18.87,33.63-1.61.59-3.28,1.05-5.02,1.36-15.99,2.94-31.39-7.54-34.52-23.51-2.86-14.54,5.41-28.68,18.87-33.63,1.61-.59,3.28-1.05,5.02-1.36Z"/>
            <path class="cls-24" d="M309.17,307.49c3.1,15.77-7.17,31.07-22.94,34.17-15.77,3.1-31.07-7.17-34.17-22.94-3.1-15.77,7.17-31.07,22.94-34.17,15.77-3.1,31.07,7.17,34.17,22.94Z"/>
          </g>
          <g>
            <path class="cls-20" d="M201.36,430.98l.34-12.9c.27-10.33,2.52-20.32,6.54-29.54s9.84-17.66,17.24-24.89c14.83-14.48,34.41-22.45,55.13-22.45s40.31,7.97,55.13,22.45c7.4,7.22,13.21,15.67,17.24,24.89s6.27,19.21,6.54,29.54l.23,8.91c.06,2.19-1.7,3.99-3.89,3.99h-154.51Z"/>
            <path class="cls-29" d="M225.94,364.13c14.68-14.33,34.09-22.26,54.67-22.26s39.93,7.9,54.59,22.19c7.32,7.13,13.08,15.47,17.09,24.58,3.98,9.06,6.22,18.88,6.53,29.03.01.07.16,5.51.16,5.58,0,.04.07,3.14.06,3.18.02,2.14-1.71,3.89-3.86,3.89h-153.14c0-.14.33-12.49.35-12.63.3-10.11,2.52-19.88,6.46-28.91,4-9.14,9.76-17.51,17.08-24.66Z"/>
            <path class="cls-28" d="M226.4,364.6c14.53-14.18,33.76-22.07,54.21-22.07s39.55,7.83,54.06,21.93c7.24,7.03,12.96,15.27,16.94,24.28,3.93,8.89,6.16,18.54,6.52,28.52.02.13.17,5.35.18,5.48,0,.08.07,3.05.03,3.12-.02,2.09-1.72,3.79-3.84,3.79h-151.78c0-.27.33-12.09.37-12.35.33-9.89,2.52-19.45,6.39-28.27,3.97-9.06,9.68-17.35,16.93-24.43Z"/>
            <path class="cls-10" d="M226.86,365.07c14.37-14.03,33.44-21.88,53.75-21.88s39.16,7.76,53.52,21.67c7.16,6.94,12.83,15.07,16.8,23.98,3.88,8.73,6.11,18.2,6.5,28.01.03.2.18,5.18.2,5.39.01.12.06,2.96,0,3.07-.05,2.04-1.74,3.69-3.82,3.69h-150.41c.01-.41.33-11.68.39-12.08.37-9.67,2.53-19.01,6.31-27.64,3.94-8.99,9.6-17.2,16.77-24.2Z"/>
            <path class="cls-30" d="M227.33,365.55c14.22-13.89,33.12-21.7,53.28-21.7s38.78,7.69,52.98,21.4c7.08,6.85,12.71,14.88,16.65,23.68,3.83,8.57,6.05,17.87,6.49,27.5.04.27.19,5.02.21,5.29.01.16.05,2.87-.02,3.01-.09,1.99-1.75,3.59-3.79,3.59h-149.05c.01-.55.33-11.27.4-11.81.4-9.45,2.53-18.57,6.23-27.01,3.91-8.91,9.52-17.04,16.62-23.97Z"/>
            <path class="cls-22" d="M227.79,366.02c14.07-13.74,32.8-21.51,52.82-21.51s38.4,7.62,52.44,21.14c7.01,6.75,12.58,14.68,16.51,23.38,3.78,8.41,6,17.53,6.47,26.99.05.34.2,4.86.23,5.2.02.21.04,2.78-.05,2.95-.13,1.94-1.76,3.49-3.77,3.49h-147.68c.02-.69.32-10.87.42-11.53.43-9.23,2.54-18.14,6.15-26.37,3.87-8.83,9.44-16.88,16.47-23.74Z"/>
            <path class="cls-13" d="M228.25,366.49c13.92-13.59,32.48-21.32,52.36-21.32s38.02,7.55,51.9,20.88c6.93,6.66,12.46,14.48,16.36,23.08,3.73,8.24,5.94,17.19,6.46,26.48.06.4.21,4.69.25,5.1.02.25.03,2.7-.08,2.9-.17,1.89-1.77,3.39-3.75,3.39h-146.32c.02-.82.32-10.46.43-11.26.46-9.01,2.54-17.7,6.07-25.74,3.84-8.75,9.36-16.73,16.31-23.51Z"/>
            <path class="cls-18" d="M228.71,366.97c13.77-13.44,32.16-21.13,51.9-21.13s37.64,7.48,51.36,20.62c6.85,6.56,12.33,14.29,16.21,22.78,3.68,8.08,5.89,16.85,6.45,25.97.07.47.22,4.53.26,5.01.03.29.02,2.61-.1,2.84-.2,1.84-1.79,3.29-3.73,3.29h-144.95c.03-.96.32-10.06.45-10.99.49-8.79,2.55-17.26,5.99-25.11,3.81-8.67,9.28-16.57,16.16-23.28Z"/>
            <path class="cls-31" d="M229.17,367.44c13.62-13.3,31.84-20.94,51.43-20.94s37.26,7.41,50.82,20.36c6.77,6.47,12.21,14.09,16.07,22.48,3.63,7.92,5.83,16.52,6.43,25.46.08.54.23,4.37.28,4.91.03.33-.04,2.5-.13,2.79-.55,1.72-1.8,3.19-3.7,3.19h-143.59c.03-1.1.32-9.65.47-10.72.53-8.57,2.55-16.83,5.91-24.47,3.78-8.6,9.2-16.41,16-23.05Z"/>
            <path class="cls-21" d="M229.64,367.91c13.47-13.15,31.52-20.75,50.97-20.75s36.88,7.34,50.28,20.1c6.69,6.37,12.08,13.89,15.92,22.18,3.58,7.76,5.78,16.18,6.42,24.95.09.61.24,4.2.3,4.82.03.37-.05,2.4-.16,2.73-.55,1.67-1.81,3.09-3.68,3.09h-142.22c.03-1.24.31-9.25.48-10.44.56-8.35,2.55-16.39,5.83-23.84,3.75-8.52,9.12-16.26,15.85-22.83Z"/>
            <path class="cls-27" d="M230.1,368.39c13.32-13,31.2-20.57,50.51-20.57s36.5,7.27,49.74,19.84c6.61,6.28,11.96,13.69,15.78,21.87,3.53,7.59,5.72,15.84,6.41,24.44.1.67.25,4.04.31,4.72.04.41-.06,2.31-.19,2.68-.56,1.62-1.82,2.99-3.66,2.99h-140.86c.04-1.37.31-8.84.5-10.17.59-8.13,2.56-15.95,5.75-23.21,3.72-8.44,9.04-16.1,15.69-22.6Z"/>
            <path class="cls-25" d="M230.56,368.86c13.17-12.86,30.88-20.38,50.05-20.38s36.12,7.2,49.21,19.58c6.53,6.19,11.83,13.5,15.63,21.57,3.48,7.43,5.67,15.5,6.39,23.93.11.74.26,3.88.33,4.63.04.45-.07,2.22-.21,2.62-.57,1.57-1.84,2.89-3.63,2.89h-139.49c.04-1.51.31-8.43.52-9.9.62-7.91,2.56-15.52,5.67-22.57,3.69-8.36,8.96-15.95,15.54-22.37Z"/>
            <path class="cls-26" d="M231.02,369.33c13.02-12.71,30.56-20.19,49.59-20.19s35.74,7.13,48.67,19.32c6.46,6.09,11.7,13.3,15.48,21.27,3.43,7.27,5.61,15.17,6.38,23.42.12.81.27,3.71.35,4.53.04.49-.08,2.13-.24,2.56-.58,1.53-1.85,2.79-3.61,2.79h-138.13c.04-1.65.31-8.03.53-9.63.65-7.69,2.57-15.08,5.59-21.94,3.66-8.28,8.88-15.79,15.39-22.14Z"/>
            <path class="cls-14" d="M231.48,369.81c12.87-12.56,30.24-20,49.12-20s35.36,7.05,48.13,19.06c6.38,6,11.58,13.1,15.34,20.97,3.38,7.11,5.56,14.83,6.36,22.91.13.87.28,3.55.36,4.44.05.54-.08,2.05-.27,2.51-.59,1.48-1.86,2.69-3.59,2.69h-136.76c.05-1.79.3-7.62.55-9.35.69-7.47,2.57-14.64,5.51-21.31,3.63-8.21,8.8-15.63,15.23-21.91Z"/>
            <path class="cls-17" d="M231.95,370.28c12.71-12.41,29.92-19.81,48.66-19.81s34.98,6.98,47.59,18.8c6.3,5.9,11.45,12.9,15.19,20.67,3.33,6.94,5.5,14.49,6.35,22.39.14.94.29,3.38.38,4.34.05.58-.09,1.96-.29,2.45-.59,1.44-1.87,2.59-3.56,2.59h-135.4c.05-1.92.3-7.22.57-9.08.72-7.25,2.58-14.21,5.44-20.67,3.6-8.13,8.72-15.48,15.08-21.68Z"/>
            <path class="cls-9" d="M232.41,370.75c12.56-12.27,29.6-19.62,48.2-19.62s34.6,6.91,47.05,18.54c6.22,5.81,11.33,12.71,15.05,20.37,3.28,6.78,5.45,14.16,6.34,21.88.15,1.01.3,3.22.4,4.25.06.62-.09,1.87-.32,2.4-.6,1.4-1.89,2.49-3.54,2.49h-134.03c.05-2.06.3-6.81.58-8.81.75-7.03,2.58-13.77,5.36-20.04,3.57-8.05,8.65-15.32,14.92-21.45Z"/>
            <path class="cls-33" d="M232.87,371.23c12.41-12.12,29.27-19.44,47.74-19.44s34.22,6.84,46.51,18.27c6.14,5.71,11.2,12.51,14.9,20.07,3.23,6.62,5.39,13.82,6.32,21.37.16,1.08.31,3.06.41,4.15.06.66-.1,1.78-.35,2.34-.61,1.35-1.9,2.39-3.52,2.39h-132.67c.06-2.2.29-6.4.6-8.53.78-6.81,2.59-13.33,5.28-19.41,3.54-7.97,8.57-15.17,14.77-21.22Z"/>
            <path class="cls-11" d="M233.33,371.7c12.26-11.97,28.95-19.25,47.28-19.25s33.84,6.77,45.97,18.01c6.06,5.62,11.08,12.31,14.75,19.77,3.18,6.46,5.34,13.48,6.31,20.86.17,1.14.32,2.89.43,4.06.06.7-.1,1.7-.38,2.29-.62,1.31-1.91,2.29-3.49,2.29h-131.3c.06-2.34.29-6,.62-8.26.81-6.59,2.59-12.9,5.2-18.77,3.51-7.9,8.49-15.01,14.62-20.99Z"/>
            <path class="cls-23" d="M233.8,372.17c12.11-11.82,28.63-19.06,46.81-19.06s33.46,6.7,45.43,17.75c5.99,5.52,10.95,12.12,14.61,19.47,3.13,6.29,5.28,13.14,6.29,20.35.18,1.21.33,2.73.45,3.96.07.74-.1,1.61-.4,2.23-.64,1.27-1.92,2.19-3.47,2.19h-129.94c.06-2.47.29-5.59.63-7.99.85-6.37,2.59-12.46,5.12-18.14,3.48-7.82,8.41-14.85,14.46-20.77Z"/>
            <path class="cls-24" d="M342.83,418.41c2.3,0,4.08-1.98,3.88-4.27-.76-8.46-3.11-16.46-6.74-23.71-3.63-7.25-8.55-13.73-14.46-19.16-11.81-10.86-27.58-17.49-44.9-17.49s-34.39,7.2-46.35,18.87c-5.98,5.84-10.86,12.8-14.31,20.54-3.45,7.74-5.45,16.26-5.69,25.22h128.57Z"/>
          </g>
        </g>
        <g class="cls-16">
          <g class="cls-2">
            <path class="cls-15" d="M432.1,336.79v65.27c0,12.77-10.35,23.11-23.11,23.11h-19.68c-5.09,0-10.04,1.62-14.14,4.63l-21.06,15.44c-2.94,2.15-6.93,2.15-9.87,0l-21.06-15.44c-4.1-3.01-9.06-4.63-14.14-4.63h-19.68c-12.77,0-23.11-10.35-23.11-23.11v-65.27c0-12.77,10.35-23.11,23.11-23.11h119.63c12.77,0,23.11,10.35,23.11,23.11Z"/>
          </g>
        </g>
        <path class="cls-19" d="M359.18,360.24l-2.48,2.42c-2.42,1.89-4.96,1.7-6.6-.2-1.37-1.76-1.37-4.64,1.04-6.73l9.21-8.23c.85-.72,1.83-1.18,2.94-1.31.33-.07.59-.07.85-.07h.39c1.31.07,2.42.59,3.27,1.5.98.98,1.5,2.55,1.5,4.7v32.86c0,4.44-2.22,6.27-5.16,6.27s-5.16-1.83-5.16-6.27l.2-24.95Z"/>
        <path class="cls-4" d="M349.17,447.22c-1.8,0-3.61-.56-5.15-1.69l-21.06-15.44c-4.07-2.98-8.89-4.56-13.93-4.56h-19.68c-12.95,0-23.48-10.53-23.48-23.48v-65.27c0-12.94,10.53-23.48,23.48-23.48h119.63c12.94,0,23.48,10.53,23.48,23.48v65.27c0,12.95-10.53,23.48-23.48,23.48h-19.68c-5.05,0-9.86,1.58-13.93,4.56l-21.06,15.44c-1.54,1.13-3.34,1.69-5.15,1.69ZM289.36,314.04c-12.55,0-22.75,10.21-22.75,22.75v65.27c0,12.55,10.21,22.75,22.75,22.75h19.68c5.2,0,10.17,1.62,14.36,4.7l21.06,15.44c2.82,2.07,6.61,2.07,9.44,0l21.06-15.44c4.19-3.07,9.16-4.7,14.36-4.7h19.68c12.55,0,22.75-10.21,22.75-22.75v-65.27c0-12.54-10.21-22.75-22.75-22.75h-119.63Z"/>
        <rect class="cls-19" x="326.16" y="353.77" width="10.3" height="36.26" rx="5.15" ry="5.15"/>
        <rect class="cls-19" x="325.79" y="357.67" width="10.3" height="28.46" rx="4.56" ry="4.56" transform="translate(702.84 40.96) rotate(90)"/>
      </g>
    </g>
  </g>
</svg>