<?xml version="1.0" encoding="UTF-8"?>
<svg xmlns="http://www.w3.org/2000/svg" xmlns:xlink="http://www.w3.org/1999/xlink" version="1.1" viewBox="0 0 674.48 711.17">
  <defs>
    <style>
      .cls-1 {
        fill: none;
      }

      .cls-2 {
        mask: url(#mask);
      }

      .cls-3 {
        fill: #b3d2c5;
        opacity: .32;
      }

      .cls-4 {
        fill: #8cbca7;
        opacity: .47;
      }

      .cls-5 {
        filter: url(#luminosity-noclip);
      }

      .cls-6 {
        fill: #40906d;
        opacity: .79;
      }

      .cls-7 {
        fill: #338863;
        opacity: .84;
      }

      .cls-8 {
        fill: #f2f8f5;
        opacity: .05;
      }

      .cls-9 {
        fill: #a6cbbb;
        opacity: .37;
      }

      .cls-10 {
        fill: url(#linear-gradient-5);
      }

      .cls-11 {
        fill: url(#linear-gradient-2);
      }

      .cls-12 {
        fill: url(#linear-gradient-3);
        mix-blend-mode: multiply;
      }

      .cls-13 {
        fill: #1a7950;
        opacity: .95;
      }

      .cls-14 {
        fill: #0d7246;
      }

      .cls-15 {
        fill: url(#linear-gradient);
      }

      .cls-16 {
        mask: url(#mask-1);
      }

      .cls-17 {
        fill: #4d9777;
        opacity: .74;
      }

      .cls-18 {
        fill: url(#linear-gradient-4);
      }

      .cls-18, .cls-19 {
        opacity: .8;
      }

      .cls-20, .cls-21 {
        fill: #fff;
      }

      .cls-21 {
        opacity: 0;
      }

      .cls-22 {
        fill: #d9e9e2;
        opacity: .16;
      }

      .cls-23 {
        fill: #73ad94;
        opacity: .58;
      }

      .cls-24 {
        fill: #599f80;
        opacity: .68;
      }

      .cls-25 {
        fill: #cce1d8;
        opacity: .21;
      }

      .cls-26 {
        fill: #80b59e;
        opacity: .53;
      }

      .cls-27 {
        fill: #99c4b1;
        opacity: .42;
      }

      .cls-28 {
        fill: #66a68a;
        opacity: .63;
      }

      .cls-29 {
        fill: #268159;
        opacity: .89;
      }

      .cls-30 {
        fill: #bfdace;
        opacity: .26;
      }

      .cls-31 {
        fill: #e6f0ec;
        opacity: .11;
      }

      .cls-32 {
        clip-path: url(#clippath);
      }
    </style>
    <linearGradient id="linear-gradient" x1="504.99" y1="205.37" x2="256.53" y2="417.87" gradientUnits="userSpaceOnUse">
      <stop offset="0" stop-color="#004645"/>
      <stop offset="1" stop-color="#00bb72" stop-opacity=".5"/>
    </linearGradient>
    <linearGradient id="linear-gradient-2" x1="198.06" y1="342.97" x2="401.76" y2="342.97" xlink:href="#linear-gradient"/>
    <clipPath id="clippath">
      <path class="cls-1" d="M266.4,314.68h150.74c14.61,0,26.48,11.87,26.48,26.48v82.78c0,14.61-11.87,26.48-26.48,26.48h-150.74c-14.61,0-26.48-11.87-26.48-26.48v-82.78c0-14.61,11.87-26.48,26.48-26.48Z"/>
    </clipPath>
    <filter id="luminosity-noclip" x="239.92" y="314.68" width="203.7" height="135.74" color-interpolation-filters="sRGB" filterUnits="userSpaceOnUse">
      <feFlood flood-color="#fff" result="bg"/>
      <feBlend in="SourceGraphic" in2="bg"/>
    </filter>
    <filter id="luminosity-noclip-2" x="239.92" y="-8822.33" width="203.7" height="32766" color-interpolation-filters="sRGB" filterUnits="userSpaceOnUse">
      <feFlood flood-color="#fff" result="bg"/>
      <feBlend in="SourceGraphic" in2="bg"/>
    </filter>
    <mask id="mask-1" x="239.92" y="-8822.33" width="203.7" height="32766" maskUnits="userSpaceOnUse"/>
    <linearGradient id="linear-gradient-3" x1="341.78" y1="450.42" x2="341.78" y2="314.68" gradientUnits="userSpaceOnUse">
      <stop offset="0" stop-color="#595959"/>
      <stop offset="1" stop-color="#fff"/>
    </linearGradient>
    <mask id="mask" x="239.92" y="314.68" width="203.7" height="135.74" maskUnits="userSpaceOnUse">
      <g class="cls-5">
        <g class="cls-16">
          <path class="cls-12" d="M266.4,314.68h150.74c14.61,0,26.48,11.87,26.48,26.48v82.78c0,14.61-11.87,26.48-26.48,26.48h-150.74c-14.61,0-26.48-11.87-26.48-26.48v-82.78c0-14.61,11.87-26.48,26.48-26.48Z"/>
        </g>
      </g>
    </mask>
    <linearGradient id="linear-gradient-4" x1="341.78" y1="450.42" x2="341.78" y2="314.68" gradientUnits="userSpaceOnUse">
      <stop offset="0" stop-color="#f2f8ff"/>
      <stop offset="1" stop-color="#a2deb9"/>
    </linearGradient>
    <linearGradient id="linear-gradient-5" x1="341.78" y1="450.84" x2="341.78" y2="314.27" gradientUnits="userSpaceOnUse">
      <stop offset="0" stop-color="#e6f1ff"/>
      <stop offset="1" stop-color="#f7fbff"/>
    </linearGradient>
  </defs>
  <!-- Generator: Adobe Illustrator 28.6.0, SVG Export Plug-In . SVG Version: 1.2.0 Build 709)  -->
  <g>
    <g id="Layer_3">
      <circle class="cls-15" cx="321.06" cy="362.67" r="195.67"/>
      <g>
        <path class="cls-11" d="M224.54,275.1h150.74c14.61,0,26.48,11.87,26.48,26.48v82.78c0,14.61-11.87,26.48-26.48,26.48h-150.74c-14.61,0-26.48-11.87-26.48-26.48v-82.78c0-14.61,11.87-26.48,26.48-26.48Z"/>
        <g class="cls-32">
          <g>
            <path class="cls-21" d="M224.54,260.7h150.74c22.56,0,40.88,18.32,40.88,40.88v82.78c0,22.56-18.32,40.88-40.88,40.88h-150.74c-22.56,0-40.88-18.32-40.88-40.88v-82.78c0-22.56,18.32-40.88,40.88-40.88Z"/>
            <path class="cls-8" d="M224.54,261.46h150.74c22.14,0,40.12,17.98,40.12,40.12v82.78c0,22.14-17.98,40.12-40.12,40.12h-150.74c-22.14,0-40.12-17.98-40.12-40.12v-82.78c0-22.14,17.98-40.12,40.12-40.12Z"/>
            <path class="cls-31" d="M224.54,262.22h150.74c21.73,0,39.36,17.64,39.36,39.36v82.78c0,21.73-17.64,39.36-39.36,39.36h-150.74c-21.73,0-39.36-17.64-39.36-39.36v-82.78c0-21.73,17.64-39.36,39.36-39.36Z"/>
            <path class="cls-22" d="M224.54,262.98h150.74c21.31,0,38.61,17.3,38.61,38.61v82.78c0,21.31-17.3,38.61-38.61,38.61h-150.74c-21.31,0-38.61-17.3-38.61-38.61v-82.78c0-21.31,17.3-38.61,38.61-38.61Z"/>
            <path class="cls-25" d="M224.54,263.73h150.74c20.89,0,37.85,16.96,37.85,37.85v82.78c0,20.89-16.96,37.85-37.85,37.85h-150.74c-20.89,0-37.85-16.96-37.85-37.85v-82.78c0-20.89,16.96-37.85,37.85-37.85Z"/>
            <path class="cls-30" d="M224.54,264.49h150.74c20.47,0,37.09,16.62,37.09,37.09v82.78c0,20.47-16.62,37.09-37.09,37.09h-150.74c-20.47,0-37.09-16.62-37.09-37.09v-82.78c0-20.47,16.62-37.09,37.09-37.09Z"/>
            <path class="cls-3" d="M224.54,265.25h150.74c20.05,0,36.33,16.28,36.33,36.33v82.78c0,20.05-16.28,36.33-36.33,36.33h-150.74c-20.05,0-36.33-16.28-36.33-36.33v-82.78c0-20.05,16.28-36.33,36.33-36.33Z"/>
            <rect class="cls-9" x="188.96" y="266.01" width="221.89" height="153.93" rx="35.57" ry="35.57"/>
            <rect class="cls-27" x="189.72" y="266.77" width="220.38" height="152.41" rx="34.82" ry="34.82"/>
            <rect class="cls-4" x="190.48" y="267.52" width="218.86" height="150.9" rx="34.06" ry="34.06"/>
            <rect class="cls-26" x="191.24" y="268.28" width="217.35" height="149.38" rx="33.3" ry="33.3"/>
            <rect class="cls-23" x="191.99" y="269.04" width="215.83" height="147.87" rx="32.54" ry="32.54"/>
            <path class="cls-28" d="M224.54,269.8h150.74c17.54,0,31.79,14.24,31.79,31.79v82.78c0,17.54-14.24,31.78-31.78,31.78h-150.74c-17.54,0-31.79-14.24-31.79-31.79v-82.78c0-17.54,14.24-31.79,31.79-31.79Z"/>
            <path class="cls-24" d="M224.54,270.56h150.74c17.12,0,31.03,13.9,31.03,31.03v82.78c0,17.12-13.9,31.03-31.03,31.03h-150.74c-17.12,0-31.03-13.9-31.03-31.03v-82.78c0-17.12,13.9-31.03,31.03-31.03Z"/>
            <path class="cls-17" d="M224.54,271.31h150.74c16.71,0,30.27,13.56,30.27,30.27v82.78c0,16.71-13.56,30.27-30.27,30.27h-150.74c-16.71,0-30.27-13.56-30.27-30.27v-82.78c0-16.71,13.56-30.27,30.27-30.27Z"/>
            <path class="cls-6" d="M224.54,272.07h150.74c16.29,0,29.51,13.22,29.51,29.51v82.78c0,16.29-13.22,29.51-29.51,29.51h-150.74c-16.29,0-29.51-13.22-29.51-29.51v-82.78c0-16.29,13.22-29.51,29.51-29.51Z"/>
            <path class="cls-7" d="M224.54,272.83h150.74c15.87,0,28.75,12.88,28.75,28.75v82.78c0,15.87-12.88,28.75-28.75,28.75h-150.74c-15.87,0-28.75-12.88-28.75-28.75v-82.78c0-15.87,12.88-28.75,28.75-28.75Z"/>
            <path class="cls-29" d="M224.54,273.59h150.74c15.45,0,28,12.54,28,28v82.78c0,15.45-12.54,28-28,28h-150.74c-15.45,0-28-12.54-28-28v-82.78c0-15.45,12.54-28,28-28Z"/>
            <path class="cls-13" d="M224.54,274.35h150.74c15.03,0,27.24,12.2,27.24,27.24v82.78c0,15.03-12.2,27.24-27.24,27.24h-150.74c-15.03,0-27.24-12.2-27.24-27.24v-82.78c0-15.03,12.2-27.24,27.24-27.24Z"/>
            <path class="cls-14" d="M224.54,275.1h150.74c14.61,0,26.48,11.87,26.48,26.48v82.78c0,14.61-11.87,26.48-26.48,26.48h-150.74c-14.61,0-26.48-11.87-26.48-26.48v-82.78c0-14.61,11.87-26.48,26.48-26.48Z"/>
          </g>
        </g>
        <g class="cls-19">
          <g class="cls-2">
            <path class="cls-18" d="M266.4,314.68h150.74c14.61,0,26.48,11.87,26.48,26.48v82.78c0,14.61-11.87,26.48-26.48,26.48h-150.74c-14.61,0-26.48-11.87-26.48-26.48v-82.78c0-14.61,11.87-26.48,26.48-26.48Z"/>
          </g>
        </g>
        <g>
          <rect class="cls-20" x="261.17" y="371.29" width="36.47" height="27.96" rx="5.68" ry="5.68"/>
          <path class="cls-20" d="M358.31,431.28h-89.36c-4.29,0-7.78-3.48-7.78-7.78h0c0-4.29,3.48-7.78,7.78-7.78h89.36c4.29,0,7.78,3.48,7.78,7.78h0c0,4.29-3.48,7.78-7.78,7.78Z"/>
          <path class="cls-20" d="M384.94,333.75h29.67c4.29,0,7.78,3.48,7.78,7.78h0c0,4.29-3.48,7.78-7.78,7.78h-29.67c-4.29,0-7.78-3.48-7.78-7.78h0c0-4.29,3.48-7.78,7.78-7.78Z"/>
        </g>
        <path class="cls-10" d="M417.15,450.84h-150.74c-14.83,0-26.9-12.07-26.9-26.89v-82.78c0-14.83,12.06-26.9,26.9-26.9h150.74c14.83,0,26.9,12.07,26.9,26.9v82.78c0,14.83-12.07,26.89-26.9,26.89ZM266.4,315.1c-14.37,0-26.06,11.69-26.06,26.06v82.78c0,14.37,11.69,26.06,26.06,26.06h150.74c14.37,0,26.06-11.69,26.06-26.06v-82.78c0-14.37-11.69-26.06-26.06-26.06h-150.74Z"/>
      </g>
    </g>
  </g>
</svg>