<?xml version="1.0" encoding="UTF-8"?>
<svg xmlns="http://www.w3.org/2000/svg" xmlns:xlink="http://www.w3.org/1999/xlink" version="1.1" viewBox="0 0 674.48 711.17">
  <defs>
    <style>
      .cls-1 {
        fill: none;
      }

      .cls-2 {
        mask: url(#mask);
      }

      .cls-3 {
        filter: url(#luminosity-noclip);
      }

      .cls-4 {
        fill: url(#linear-gradient-5);
      }

      .cls-5 {
        fill: url(#linear-gradient-2);
      }

      .cls-6 {
        fill: url(#linear-gradient-3);
        mix-blend-mode: multiply;
      }

      .cls-7 {
        fill: url(#linear-gradient);
      }

      .cls-8 {
        fill: #4cc992;
        opacity: .79;
      }

      .cls-9 {
        fill: #dbf4e9;
        opacity: .16;
      }

      .cls-10 {
        fill: #34c184;
        opacity: .89;
      }

      .cls-11 {
        mask: url(#mask-1);
      }

      .cls-12 {
        fill: #b7e9d3;
        opacity: .32;
      }

      .cls-13 {
        fill: #64d0a1;
        opacity: .68;
      }

      .cls-14 {
        fill: url(#linear-gradient-4);
      }

      .cls-14, .cls-15 {
        opacity: .8;
      }

      .cls-16 {
        fill: #58cc99;
        opacity: .74;
      }

      .cls-17 {
        fill: #abe6cc;
        opacity: .37;
      }

      .cls-18, .cls-19 {
        fill: #fff;
      }

      .cls-19 {
        opacity: 0;
      }

      .cls-20 {
        fill: #93debe;
        opacity: .47;
      }

      .cls-21 {
        fill: #c3eddb;
        opacity: .26;
      }

      .cls-22 {
        fill: #28be7c;
        opacity: .95;
      }

      .cls-23 {
        fill: #1cba75;
      }

      .cls-24 {
        fill: #7cd7af;
        opacity: .58;
      }

      .cls-25 {
        fill: #70d3a8;
        opacity: .63;
      }

      .cls-26 {
        fill: #88dbb6;
        opacity: .53;
      }

      .cls-27 {
        fill: #e7f8f0;
        opacity: .11;
      }

      .cls-28 {
        fill: #f3fbf8;
        opacity: .05;
      }

      .cls-29 {
        fill: #cff0e2;
        opacity: .21;
      }

      .cls-30 {
        fill: #9fe2c5;
        opacity: .42;
      }

      .cls-31 {
        clip-path: url(#clippath);
      }

      .cls-32 {
        fill: #40c58b;
        opacity: .84;
      }
    </style>
    <linearGradient id="linear-gradient" x1="504.99" y1="205.37" x2="256.53" y2="417.87" gradientUnits="userSpaceOnUse">
      <stop offset="0" stop-color="#004645"/>
      <stop offset="1" stop-color="#00bb72" stop-opacity=".5"/>
    </linearGradient>
    <linearGradient id="linear-gradient-2" x1="253.98" y1="354.01" x2="383.57" y2="354.01" xlink:href="#linear-gradient"/>
    <clipPath id="clippath">
      <path class="cls-1" d="M432.17,449.46l-96.04-112.09c9.51-22.52,6.23-49.46-10.76-69.29-23.93-27.93-65.98-31.18-93.91-7.24-27.93,23.93-31.18,65.98-7.24,93.91,16.99,19.83,43.1,27.2,66.82,21.26l5.61,6.55c1.49,1.74,3.61,2.81,5.89,2.99l23.67,1.83c4.75.37,8.31,4.52,7.94,9.27l-1.43,18.58c-.37,4.75,3.19,8.9,7.94,9.27l18.58,1.43c4.75.37,8.31,4.52,7.94,9.27l-1.31,16.95c-.39,5.03,3.59,9.31,8.63,9.3l52.25-.18c6.1-.02,9.38-7.18,5.41-11.81Z"/>
    </clipPath>
    <filter id="luminosity-noclip" x="208.19" y="244.81" width="225.71" height="216.63" color-interpolation-filters="sRGB" filterUnits="userSpaceOnUse">
      <feFlood flood-color="#fff" result="bg"/>
      <feBlend in="SourceGraphic" in2="bg"/>
    </filter>
    <filter id="luminosity-noclip-2" x="208.19" y="-8057.32" width="225.71" height="32766" color-interpolation-filters="sRGB" filterUnits="userSpaceOnUse">
      <feFlood flood-color="#fff" result="bg"/>
      <feBlend in="SourceGraphic" in2="bg"/>
    </filter>
    <mask id="mask-1" x="208.19" y="-8057.32" width="225.71" height="32766" maskUnits="userSpaceOnUse"/>
    <linearGradient id="linear-gradient-3" x1="321.05" y1="461.44" x2="321.05" y2="244.81" gradientUnits="userSpaceOnUse">
      <stop offset="0" stop-color="#595959"/>
      <stop offset="1" stop-color="#fff"/>
    </linearGradient>
    <mask id="mask" x="208.19" y="244.81" width="225.71" height="216.63" maskUnits="userSpaceOnUse">
      <g class="cls-3">
        <g class="cls-11">
          <path class="cls-6" d="M432.17,449.46l-96.04-112.09c9.51-22.52,6.23-49.46-10.76-69.29-23.93-27.93-65.98-31.18-93.91-7.24-27.93,23.93-31.18,65.98-7.24,93.91,16.99,19.83,43.1,27.2,66.82,21.26l5.61,6.55c1.49,1.74,3.61,2.81,5.89,2.99l23.67,1.83c4.75.37,8.31,4.52,7.94,9.27l-1.43,18.58c-.37,4.75,3.19,8.9,7.94,9.27l18.58,1.43c4.75.37,8.31,4.52,7.94,9.27l-1.31,16.95c-.39,5.03,3.59,9.31,8.63,9.3l52.25-.18c6.1-.02,9.38-7.18,5.41-11.81Z"/>
        </g>
      </g>
    </mask>
    <linearGradient id="linear-gradient-4" x1="321.05" y1="461.44" x2="321.05" y2="244.81" gradientUnits="userSpaceOnUse">
      <stop offset="0" stop-color="#f2f8ff"/>
      <stop offset="1" stop-color="#128955"/>
    </linearGradient>
    <linearGradient id="linear-gradient-5" x1="321.06" y1="461.89" x2="321.06" y2="244.36" gradientUnits="userSpaceOnUse">
      <stop offset="0" stop-color="#e6f1ff"/>
      <stop offset="1" stop-color="#f7fbff"/>
    </linearGradient>
  </defs>
  <!-- Generator: Adobe Illustrator 28.6.0, SVG Export Plug-In . SVG Version: 1.2.0 Build 709)  -->
  <g>
    <g id="Layer_3">
      <circle class="cls-7" cx="321.06" cy="362.67" r="195.67"/>
      <g>
        <path class="cls-5" d="M383.57,309.61c0-35.79-29.01-64.8-64.8-64.8s-64.8,29.01-64.8,64.8c0,23.84,12.88,44.65,32.05,55.91l-10.14,81.78c-1.05,8.45,5.54,15.91,14.06,15.91h57.65c8.52,0,15.11-7.46,14.06-15.91l-10.14-81.78c19.17-11.25,32.05-32.07,32.05-55.91Z"/>
        <g class="cls-31">
          <g>
            <path class="cls-19" d="M289.95,478.96c-8.57,0-16.74-3.68-22.42-10.11-5.68-6.42-8.33-14.98-7.27-23.49l8.96-72.28c-19.34-15.15-30.99-38.62-30.99-63.47,0-44.41,36.13-80.54,80.54-80.54s80.54,36.13,80.54,80.54c0,24.86-11.66,48.33-30.99,63.47l8.96,72.28c1.05,8.51-1.6,17.07-7.27,23.49-5.68,6.42-13.85,10.11-22.42,10.11h-57.65Z"/>
            <path class="cls-28" d="M239.06,309.61c0-43.96,35.76-79.71,79.71-79.71s79.71,35.76,79.71,79.71c0,24.8-11.72,48.13-31.05,63.07l8.89,71.67c1,8.06-1.37,17.28-6.75,23.37-5.32,6.53-13.41,10.41-21.98,10.41h-57.6c-.29,0-.63,0-.92-.01-8.25-.24-15.98-4.09-21.11-10.4-5.38-6.08-7.75-15.31-6.75-23.36l8.89-71.67c-19.33-14.94-31.05-38.27-31.05-63.07Z"/>
            <path class="cls-27" d="M239.89,309.61c0-43.5,35.38-78.89,78.89-78.89s78.89,35.38,78.89,78.89c0,24.75-11.78,47.94-31.1,62.68l8.81,71.06c.94,7.61-1.15,17.49-6.23,23.24-4.97,6.64-12.97,10.72-21.54,10.72h-57.56c-.27,0-.64,0-.92-.01-8.26-.23-15.93-4.27-20.72-10.71-5.08-5.75-7.17-15.63-6.23-23.24l8.81-71.06c-19.32-14.74-31.1-37.93-31.1-62.68Z"/>
            <path class="cls-9" d="M240.72,309.61c0-43.05,35.01-78.06,78.06-78.06s78.06,35.01,78.06,78.06c0,24.7-11.85,47.75-31.16,62.28l8.74,70.45c.89,7.16-.93,17.71-5.71,23.11-4.61,6.74-12.54,11.02-21.1,11.02h-57.51c-.26,0-.66,0-.92-.01-8.28-.21-15.88-4.46-20.32-11.01-4.78-5.41-6.6-15.95-5.71-23.11l8.74-70.45c-19.31-14.53-31.16-37.58-31.16-62.28Z"/>
            <path class="cls-29" d="M241.54,309.61c0-42.6,34.63-77.23,77.23-77.23s77.23,34.63,77.23,77.23c0,24.64-11.91,47.55-31.22,61.88l8.66,69.84c.83,6.72-.71,17.92-5.19,22.99-4.26,6.85-12.1,11.33-20.66,11.33h-57.46c-.24,0-.67,0-.91-.01-8.29-.2-15.83-4.65-19.93-11.32-4.48-5.07-6.02-16.27-5.19-22.99l8.66-69.84c-19.3-14.33-31.22-37.24-31.22-61.88Z"/>
            <path class="cls-21" d="M242.37,309.61c0-42.14,34.26-76.4,76.4-76.4s76.4,34.26,76.4,76.4c0,24.59-11.98,47.36-31.27,61.48l8.58,69.22c.78,6.27-.49,18.13-4.67,22.86-3.91,6.96-11.66,11.63-20.22,11.63h-57.42c-.23,0-.69,0-.91-.01-8.31-.19-15.78-4.84-19.54-11.62-4.18-4.73-5.45-16.6-4.67-22.86l8.58-69.23c-19.29-14.12-31.27-36.89-31.27-61.48Z"/>
            <path class="cls-12" d="M243.2,309.61c0-41.69,33.88-75.57,75.57-75.57s75.57,33.88,75.57,75.57c0,24.53-12.04,47.17-31.33,61.08l8.51,68.61c.72,5.82-.27,18.34-4.15,22.74-3.55,7.06-11.22,11.94-19.78,11.94h-57.37c-.21,0-.7,0-.91,0-8.32-.17-15.74-5.02-19.15-11.93-3.88-4.39-4.87-16.92-4.15-22.74l8.51-68.61c-19.28-13.92-31.33-36.55-31.33-61.08Z"/>
            <path class="cls-17" d="M244.03,309.61c0-41.23,33.51-74.74,74.74-74.74s74.74,33.51,74.74,74.74c0,24.48-12.11,46.97-31.38,60.68l8.43,68c.67,5.37-.04,18.56-3.63,22.61-3.2,7.17-10.79,12.25-19.34,12.25h-57.32c-.19,0-.72,0-.91,0-8.34-.16-15.69-5.21-18.76-12.24-3.58-4.06-4.29-17.24-3.63-22.61l8.43-68c-19.28-13.71-31.38-36.2-31.38-60.68Z"/>
            <path class="cls-30" d="M244.86,309.61c0-40.78,33.13-73.91,73.91-73.91s73.91,33.13,73.91,73.91c0,24.43-12.17,46.78-31.44,60.29l8.36,67.39c.61,4.92.18,18.77-3.11,22.49-2.84,7.28-10.35,12.55-18.9,12.55h-57.28c-.18,0-.73,0-.91,0-8.35-.15-15.64-5.4-18.37-12.54-3.29-3.72-3.72-17.56-3.11-22.49l8.36-67.39c-19.27-13.51-31.44-35.86-31.44-60.29Z"/>
            <path class="cls-20" d="M245.69,309.61c0-40.33,32.76-73.08,73.08-73.08s73.08,32.76,73.08,73.08c0,24.37-12.24,46.59-31.49,59.89l8.28,66.78c.56,4.48.4,18.98-2.59,22.36-2.49,7.38-9.91,12.86-18.46,12.86h-57.23c-.16,0-.75,0-.91,0-8.37-.13-15.59-5.59-17.98-12.85-2.99-3.38-3.14-17.89-2.59-22.36l8.28-66.78c-19.26-13.3-31.49-35.52-31.49-59.89Z"/>
            <path class="cls-26" d="M246.52,309.61c0-39.87,32.38-72.26,72.26-72.26s72.26,32.38,72.26,72.26c0,24.32-12.3,46.39-31.55,59.49l8.21,66.17c.5,4.03.62,19.2-2.07,22.24-2.14,7.49-9.48,13.16-18.02,13.16h-57.18c-.15,0-.76,0-.91,0-8.38-.12-15.54-5.77-17.58-13.16-2.69-3.04-2.57-18.21-2.07-22.24l8.21-66.17c-19.25-13.1-31.55-35.17-31.55-59.49Z"/>
            <path class="cls-24" d="M247.35,309.61c0-39.42,32.01-71.43,71.43-71.43s71.43,32.01,71.43,71.43c0,24.27-12.36,46.2-31.61,59.09l8.13,65.56c.44,3.58.84,19.41-1.55,22.11-1.78,7.6-9.04,13.47-17.58,13.47h-57.13c-.13,0-.78,0-.9,0-8.4-.11-15.5-5.96-17.19-13.46-2.39-2.7-1.99-18.53-1.55-22.11l8.13-65.56c-19.24-12.89-31.61-34.83-31.61-59.09Z"/>
            <path class="cls-25" d="M248.17,309.61c0-38.96,31.63-70.6,70.6-70.6s70.6,31.63,70.6,70.6c0,24.21-12.43,46.01-31.66,58.69l8.05,64.95c.39,3.13,1.07,19.62-1.03,21.99-1.43,7.7-8.6,13.77-17.14,13.77h-57.09c-.11,0-.79,0-.9,0-8.41-.09-15.45-6.15-16.8-13.77-2.09-2.37-1.41-18.85-1.02-21.99l8.05-64.95c-19.23-12.69-31.66-34.48-31.66-58.69Z"/>
            <path class="cls-13" d="M249,309.61c0-38.51,31.26-69.77,69.77-69.77s69.77,31.26,69.77,69.77c0,24.16-12.49,45.81-31.72,58.3l7.98,64.34c.33,2.69,1.29,19.83-.5,21.86-1.08,7.81-8.17,14.08-16.7,14.08h-57.04c-.1,0-.8,0-.9,0-8.43-.08-15.4-6.34-16.41-14.08-1.79-2.03-.84-19.17-.5-21.86l7.98-64.34c-19.22-12.48-31.72-34.14-31.72-58.3Z"/>
            <path class="cls-16" d="M249.83,309.61c0-38.06,30.88-68.94,68.94-68.94s68.94,30.88,68.94,68.94c0,24.11-12.56,45.62-31.77,57.9l7.9,63.73c.28,2.24,1.51,20.05.02,21.74-.72,7.92-7.73,14.39-16.26,14.39h-56.99c-.08,0-.82,0-.9,0-8.44-.07-15.35-6.52-16.02-14.38-1.49-1.69-.26-19.5.02-21.74l7.9-63.73c-19.21-12.28-31.77-33.79-31.77-57.9Z"/>
            <path class="cls-8" d="M250.66,309.61c0-37.6,30.51-68.11,68.11-68.11s68.11,30.51,68.11,68.11c0,24.05-12.62,45.43-31.83,57.5l7.83,63.12c.22,1.79,1.73,20.26.54,21.61-.37,8.03-7.29,14.69-15.82,14.69h-56.95c-.06,0-.83,0-.9,0-8.46-.05-15.3-6.71-15.63-14.69-1.19-1.35.31-19.82.54-21.61l7.83-63.12c-19.21-12.07-31.83-33.45-31.83-57.5Z"/>
            <path class="cls-32" d="M251.49,309.61c0-37.15,30.13-67.28,67.28-67.28s67.28,30.14,67.28,67.28c0,24-12.69,45.23-31.88,57.1l7.75,62.51c.17,1.34,1.95,20.47,1.06,21.48-.01,8.13-6.86,15-15.38,15h-56.9s-.85,0-.9,0c-8.47-.04-15.26-6.9-15.24-14.99-.9-1.01.89-20.14,1.06-21.48l7.75-62.51c-19.2-11.87-31.88-33.1-31.88-57.1Z"/>
            <path class="cls-10" d="M252.32,309.61c0-36.69,29.76-66.45,66.46-66.45s66.45,29.76,66.45,66.45c0,23.94-12.75,45.04-31.94,56.7l7.68,61.89c.11.9,2.17,20.68,1.58,21.36.34,8.24-6.42,15.3-14.94,15.3h-56.85s-.86,0-.9,0c-8.49-.03-15.21-7.09-14.84-15.3-.6-.68,1.47-20.46,1.58-21.36l7.68-61.9c-19.19-11.66-31.94-32.76-31.94-56.7Z"/>
            <path class="cls-22" d="M253.15,309.61c0-36.24,29.39-65.63,65.63-65.63s65.63,29.39,65.63,65.63c0,23.89-12.82,44.85-32,56.31l7.6,61.28c.06.45,2.4,20.9,2.1,21.23.69,8.35-5.98,15.61-14.5,15.61h-56.81s-.88,0-.89,0c-8.5-.01-15.16-7.27-14.45-15.61-.3-.34,2.04-20.79,2.1-21.23l7.6-61.28c-19.18-11.46-32-32.41-32-56.31Z"/>
            <path class="cls-23" d="M383.57,309.61c0-35.79-29.01-64.8-64.8-64.8s-64.8,29.01-64.8,64.8c0,23.84,12.88,44.65,32.05,55.91l-10.14,81.78c-1.05,8.45,5.54,15.91,14.06,15.91h57.65c8.52,0,15.11-7.46,14.06-15.91l-10.14-81.78c19.17-11.25,32.05-32.07,32.05-55.91Z"/>
          </g>
        </g>
        <g class="cls-15">
          <g class="cls-2">
            <path class="cls-14" d="M432.17,449.46l-96.04-112.09c9.51-22.52,6.23-49.46-10.76-69.29-23.93-27.93-65.98-31.18-93.91-7.24-27.93,23.93-31.18,65.98-7.24,93.91,16.99,19.83,43.1,27.2,66.82,21.26l5.61,6.55c1.49,1.74,3.61,2.81,5.89,2.99l23.67,1.83c4.75.37,8.31,4.52,7.94,9.27l-1.43,18.58c-.37,4.75,3.19,8.9,7.94,9.27l18.58,1.43c4.75.37,8.31,4.52,7.94,9.27l-1.31,16.95c-.39,5.03,3.59,9.31,8.63,9.3l52.25-.18c6.1-.02,9.38-7.18,5.41-11.81Z"/>
          </g>
        </g>
        <path class="cls-18" d="M270.41,306.3c-7.28,6.24-18.24,5.39-24.49-1.89-6.24-7.28-5.39-18.24,1.89-24.49,7.28-6.24,18.24-5.39,24.49,1.89,6.24,7.28,5.39,18.24-1.89,24.49Z"/>
        <path class="cls-4" d="M374.48,461.89c-2.52,0-4.94-1.06-6.66-2.9-1.72-1.85-2.6-4.36-2.4-6.88l1.31-16.95c.35-4.49-3.03-8.43-7.53-8.78l-18.58-1.43c-4.99-.39-8.75-4.76-8.36-9.76l1.43-18.58c.17-2.18-.52-4.29-1.94-5.95-1.42-1.66-3.4-2.66-5.58-2.83l-23.67-1.83c-2.42-.19-4.62-1.31-6.2-3.15l-5.43-6.33c-24.77,6.1-50.41-2.11-67-21.47-24.06-28.08-20.79-70.49,7.29-94.55,13.6-11.66,30.93-17.31,48.79-15.94,17.86,1.38,34.11,9.63,45.77,23.23,16.58,19.36,20.77,45.96,10.94,69.5l95.85,111.87c1.95,2.28,2.39,5.39,1.14,8.12-1.25,2.73-3.89,4.43-6.89,4.44l-52.25.18h-.03ZM291.2,375.5l5.79,6.76c1.42,1.66,3.4,2.66,5.58,2.83l23.67,1.82c2.42.19,4.62,1.31,6.2,3.15,1.58,1.84,2.35,4.19,2.16,6.61l-1.43,18.58c-.35,4.49,3.03,8.43,7.53,8.78l18.58,1.43c5,.39,8.75,4.76,8.36,9.76l-1.31,16.95c-.18,2.3.59,4.5,2.16,6.19,1.57,1.69,3.69,2.61,5.99,2.61h.03l52.25-.18c2.64,0,4.97-1.51,6.07-3.91,1.1-2.4.72-5.14-1-7.15l-96.22-112.3.11-.26c9.83-23.28,5.73-49.65-10.69-68.81-11.5-13.42-27.53-21.56-45.14-22.91-17.61-1.36-34.71,4.22-48.13,15.72-27.7,23.73-30.92,65.57-7.19,93.27,16.42,19.17,41.84,27.25,66.36,21.11l.27-.07Z"/>
      </g>
    </g>
  </g>
</svg>